<mxfile host="app.diagrams.net" modified="2021-07-10T04:32:21.553Z" agent="5.0 (Macintosh; Intel Mac OS X 10_15_7) AppleWebKit/537.36 (KHTML, like Gecko) Chrome/91.0.4472.114 Safari/537.36" etag="OHhCPgE8DUEWByEzAAV2" version="14.8.5" type="github">
  <diagram id="V9JzEmFy9SrS_1O4ibWq" name="Page-1">
    <mxGraphModel dx="1483" dy="840" grid="1" gridSize="10" guides="1" tooltips="1" connect="1" arrows="1" fold="1" page="1" pageScale="1" pageWidth="2339" pageHeight="3300" math="0" shadow="0">
      <root>
        <mxCell id="0" />
        <mxCell id="1" parent="0" />
        <mxCell id="e8k9zVqKPG3VjERlfDlT-28" value="&lt;div style=&quot;text-align: justify&quot;&gt;&lt;span&gt;BrowserApi&lt;/span&gt;&lt;/div&gt;" style="rounded=1;whiteSpace=wrap;html=1;align=right;" vertex="1" parent="1">
          <mxGeometry x="20" y="810" width="620" height="128" as="geometry" />
        </mxCell>
        <mxCell id="e8k9zVqKPG3VjERlfDlT-26" value="" style="rounded=1;whiteSpace=wrap;html=1;" vertex="1" parent="1">
          <mxGeometry x="670" y="230" width="120" height="600" as="geometry" />
        </mxCell>
        <mxCell id="e8k9zVqKPG3VjERlfDlT-24" value="" style="rounded=1;whiteSpace=wrap;html=1;" vertex="1" parent="1">
          <mxGeometry x="12.96" y="560" width="615" height="130" as="geometry" />
        </mxCell>
        <mxCell id="e8k9zVqKPG3VjERlfDlT-23" value="" style="rounded=0;whiteSpace=wrap;html=1;" vertex="1" parent="1">
          <mxGeometry x="20" y="140" width="610" height="120" as="geometry" />
        </mxCell>
        <mxCell id="e8k9zVqKPG3VjERlfDlT-5" value="LocatorDrive&lt;br&gt;" style="aspect=fixed;html=1;points=[];align=center;image;fontSize=12;image=img/lib/mscae/SchedulerJobCollection.svg;" vertex="1" parent="1">
          <mxGeometry x="62.96" y="575" width="81.4" height="70" as="geometry" />
        </mxCell>
        <mxCell id="e8k9zVqKPG3VjERlfDlT-10" value="&lt;span style=&quot;background-color: rgb(248 , 249 , 250)&quot;&gt;PageOperator&lt;/span&gt;" style="aspect=fixed;html=1;points=[];align=center;image;fontSize=12;image=img/lib/mscae/WebHosting.svg;" vertex="1" parent="1">
          <mxGeometry x="276.96" y="570" width="90" height="90" as="geometry" />
        </mxCell>
        <mxCell id="e8k9zVqKPG3VjERlfDlT-12" value="TestDataDrive&lt;br&gt;" style="aspect=fixed;pointerEvents=1;shadow=0;dashed=0;html=1;strokeColor=none;labelPosition=center;verticalLabelPosition=bottom;verticalAlign=top;align=center;fillColor=#00188D;shape=mxgraph.mscae.enterprise.database_server" vertex="1" parent="1">
          <mxGeometry x="480" y="160" width="53.2" height="70" as="geometry" />
        </mxCell>
        <mxCell id="e8k9zVqKPG3VjERlfDlT-18" value="TestCase" style="aspect=fixed;html=1;points=[];align=center;image;fontSize=12;image=img/lib/mscae/Dedicated_Event_Hub.svg;" vertex="1" parent="1">
          <mxGeometry x="278.12" y="160" width="72.92" height="70" as="geometry" />
        </mxCell>
        <mxCell id="e8k9zVqKPG3VjERlfDlT-19" value="FunctionLogic" style="aspect=fixed;html=1;points=[];align=center;image;fontSize=12;image=img/lib/mscae/Chart.svg;" vertex="1" parent="1">
          <mxGeometry x="284" y="360" width="72.92" height="70" as="geometry" />
        </mxCell>
        <mxCell id="e8k9zVqKPG3VjERlfDlT-22" value="" style="dashed=0;outlineConnect=0;html=1;align=center;labelPosition=center;verticalLabelPosition=bottom;verticalAlign=top;shape=mxgraph.webicons.chrome;" vertex="1" parent="1">
          <mxGeometry x="52.96" y="835" width="77.04" height="78" as="geometry" />
        </mxCell>
        <mxCell id="e8k9zVqKPG3VjERlfDlT-31" value="" style="shape=flexArrow;endArrow=classic;html=1;" edge="1" parent="1">
          <mxGeometry width="50" height="50" relative="1" as="geometry">
            <mxPoint x="160" y="199.29" as="sourcePoint" />
            <mxPoint x="260" y="199.29" as="targetPoint" />
          </mxGeometry>
        </mxCell>
        <mxCell id="e8k9zVqKPG3VjERlfDlT-33" value="" style="shape=flexArrow;endArrow=classic;html=1;" edge="1" parent="1">
          <mxGeometry width="50" height="50" relative="1" as="geometry">
            <mxPoint x="464" y="206" as="sourcePoint" />
            <mxPoint x="364.0000000000002" y="206.00000000000006" as="targetPoint" />
          </mxGeometry>
        </mxCell>
        <mxCell id="e8k9zVqKPG3VjERlfDlT-34" value="" style="shape=flexArrow;endArrow=classic;html=1;" edge="1" parent="1">
          <mxGeometry width="50" height="50" relative="1" as="geometry">
            <mxPoint x="324.29" y="340" as="sourcePoint" />
            <mxPoint x="324.29" y="270" as="targetPoint" />
          </mxGeometry>
        </mxCell>
        <mxCell id="e8k9zVqKPG3VjERlfDlT-35" value="" style="shape=flexArrow;endArrow=classic;html=1;" edge="1" parent="1">
          <mxGeometry width="50" height="50" relative="1" as="geometry">
            <mxPoint x="319.74999999999994" y="540" as="sourcePoint" />
            <mxPoint x="319.74999999999994" y="470" as="targetPoint" />
          </mxGeometry>
        </mxCell>
        <mxCell id="e8k9zVqKPG3VjERlfDlT-36" value="" style="shape=flexArrow;endArrow=classic;html=1;" edge="1" parent="1">
          <mxGeometry width="50" height="50" relative="1" as="geometry">
            <mxPoint x="153.70000000000002" y="610" as="sourcePoint" />
            <mxPoint x="253.70000000000024" y="610" as="targetPoint" />
          </mxGeometry>
        </mxCell>
        <mxCell id="e8k9zVqKPG3VjERlfDlT-43" value="W3C" style="label;whiteSpace=wrap;html=1;align=center;verticalAlign=bottom;spacingLeft=0;spacingBottom=4;imageAlign=center;imageVerticalAlign=top;image=img/clipart/Gear_128x128.png" vertex="1" parent="1">
          <mxGeometry x="246.96" y="710" width="120" height="80" as="geometry" />
        </mxCell>
        <mxCell id="e8k9zVqKPG3VjERlfDlT-44" value="TestResultDrive&lt;br&gt;" style="shape=image;html=1;verticalAlign=top;verticalLabelPosition=bottom;labelBackgroundColor=#ffffff;imageAspect=0;aspect=fixed;image=https://cdn0.iconfinder.com/data/icons/web-development-79/32/development_computer_website_check_result-128.png" vertex="1" parent="1">
          <mxGeometry x="40" y="155" width="75" height="75" as="geometry" />
        </mxCell>
        <mxCell id="e8k9zVqKPG3VjERlfDlT-48" value="" style="shape=image;html=1;verticalAlign=top;verticalLabelPosition=bottom;labelBackgroundColor=#ffffff;imageAspect=0;aspect=fixed;image=https://cdn3.iconfinder.com/data/icons/logos-brands-3/24/logo_brand_brands_logos_firefox-128.png" vertex="1" parent="1">
          <mxGeometry x="320" y="844" width="69" height="69" as="geometry" />
        </mxCell>
        <mxCell id="e8k9zVqKPG3VjERlfDlT-49" value="" style="shape=image;html=1;verticalAlign=top;verticalLabelPosition=bottom;labelBackgroundColor=#ffffff;imageAspect=0;aspect=fixed;image=https://cdn2.iconfinder.com/data/icons/social-icons-33/128/Internet_Explorer-128.png" vertex="1" parent="1">
          <mxGeometry x="180" y="841.8" width="70" height="70" as="geometry" />
        </mxCell>
        <mxCell id="e8k9zVqKPG3VjERlfDlT-51" value="" style="shape=image;html=1;verticalAlign=top;verticalLabelPosition=bottom;labelBackgroundColor=#ffffff;imageAspect=0;aspect=fixed;image=https://cdn3.iconfinder.com/data/icons/logos-brands-3/24/logo_brand_brands_logos_safari-128.png" vertex="1" parent="1">
          <mxGeometry x="433.2" y="835" width="85" height="85" as="geometry" />
        </mxCell>
        <mxCell id="e8k9zVqKPG3VjERlfDlT-52" value="ELK" style="shape=image;imageAspect=0;aspect=fixed;verticalLabelPosition=bottom;verticalAlign=top;image=data:image/svg+xml,PHN2ZyB4bWxucz0iaHR0cDovL3d3dy53My5vcmcvMjAwMC9zdmciIHhtbG5zOnhsaW5rPSJodHRwOi8vd3d3LnczLm9yZy8xOTk5L3hsaW5rIiB2ZXJzaW9uPSIxLjEiIGlkPSJMYXllcl8xIiB4PSIwcHgiIHk9IjBweCIgdmlld0JveD0iMCAwIDUyMCA1MzguMjk5OTg3NzkyOTY4OCIgc3R5bGU9ImVuYWJsZS1iYWNrZ3JvdW5kOm5ldyAwIDAgNTIwIDUzMDsiIHhtbDpzcGFjZT0icHJlc2VydmUiIHdpZHRoPSI1MjAiIGhlaWdodD0iNTM4LjI5OTk4Nzc5Mjk2ODgiPiYjeGE7PHN0eWxlIHR5cGU9InRleHQvY3NzIj4mI3hhOwkuc3Qwe29wYWNpdHk6NS4wMDAwMDBlLTAyO2ZpbGw6IzM0Mzc0MTt9JiN4YTsJLnN0MXtmaWxsOnVybCgjU1ZHSURfMV8pO30mI3hhOwkuc3Qye2ZpbGw6I0ZGRkZGRjt9JiN4YTsJLnN0M3tmaWxsOiMzNDM3NDE7fSYjeGE7CS5zdDR7ZmlsbDojMDBBOUU1O30mI3hhOwkuc3Q1e2ZpbGw6dXJsKCNTVkdJRF8yXyk7fSYjeGE7CS5zdDZ7ZmlsbDojRkVEMTBBO30mI3hhOwkuc3Q3e2NsaXAtcGF0aDp1cmwoI1NWR0lEXzRfKTt9JiN4YTsJLnN0OHtjbGlwLXBhdGg6dXJsKCNTVkdJRF82Xyk7fSYjeGE7CS5zdDl7ZmlsbDp1cmwoI1NWR0lEXzdfKTt9JiN4YTsJLnN0MTB7ZmlsbDojMDBCRkIzO30mI3hhOwkuc3QxMXtjbGlwLXBhdGg6dXJsKCNTVkdJRF85Xyk7fSYjeGE7CS5zdDEye2ZpbGw6dXJsKCNTVkdJRF8xMF8pO30mI3hhOwkuc3QxM3tmaWxsOiNGMDRFOTg7fSYjeGE7CS5zdDE0e29wYWNpdHk6MC4yO30mI3hhOwkuc3QxNXtmaWxsOiMzMUM4RkE7fSYjeGE7CS5zdDE2e29wYWNpdHk6MC40Nzt9JiN4YTsJLnN0MTd7b3BhY2l0eTowLjgzO30mI3hhOwkuc3QxOHtmaWxsOm5vbmU7fSYjeGE7CS5zdDE5e2ZpbGw6I0ZGRkZGRjtzdHJva2U6I0NDQ0NDQztzdHJva2Utd2lkdGg6MC43NTk1O3N0cm9rZS1taXRlcmxpbWl0OjEwO30mI3hhOzwvc3R5bGU+JiN4YTs8dGl0bGU+RUxLIFBhZ2UgQXNzZXRzIE91dGxpbmVkPC90aXRsZT4mI3hhOzxnPiYjeGE7CTxnIGlkPSJTdGFjayI+JiN4YTsJCTxwYXRoIGNsYXNzPSJzdDAiIGQ9Ik01MC4xLDQwMS4xbDIxNS40LTEyMy43YzEuMi0wLjcsMi44LTAuNyw0LDBsODcuNCw1MC40YzEuOSwxLjEsMi42LDMuNiwxLjUsNS41Yy0wLjMsMC42LTAuOSwxLjEtMS41LDEuNSYjMTA7JiM5OyYjOTsmIzk7TDE0My43LDQ1OS41Yy0xLjIsMC43LTIuOCwwLjctNCwwTDUwLjEsNDA4Yy0xLjktMS4xLTIuNi0zLjUtMS41LTUuNUM0OSw0MDIsNDkuNSw0MDEuNSw1MC4xLDQwMS4xeiIvPiYjeGE7CQk8cGF0aCBjbGFzcz0ic3QwIiBkPSJNMTcwLjQsNDczLjJsMjE1LjQtMTIzLjdjMS4yLTAuNywyLjgtMC43LDQsMGw4Ny40LDUwLjRjMS45LDEuMSwyLjYsMy42LDEuNSw1LjVjLTAuMywwLjYtMC45LDEuMS0xLjUsMS41JiMxMDsmIzk7JiM5OyYjOTtMMjY0LDUzMS41Yy0xLjIsMC43LTIuOCwwLjctNCwwbC04OS42LTUxLjVjLTEuOS0xLjEtMi42LTMuNS0xLjUtNS41QzE2OS4zLDQ3NCwxNjkuOCw0NzMuNSwxNzAuNCw0NzMuMnoiLz4mI3hhOwkJJiN4YTsJCQk8bGluZWFyR3JhZGllbnQgaWQ9IlNWR0lEXzFfIiBncmFkaWVudFVuaXRzPSJ1c2VyU3BhY2VPblVzZSIgeDE9IjE5OC41ODIxIiB5MT0iMTM0Ljg0OSIgeDI9IjE5OC41ODIxIiB5Mj0iMTk1LjU5OSIgZ3JhZGllbnRUcmFuc2Zvcm09Im1hdHJpeCgxIDAgMCAtMSAwIDU3NC42MTgpIj4mI3hhOwkJCTxzdG9wIG9mZnNldD0iMCIgc3R5bGU9InN0b3AtY29sb3I6IzMxQzhGQSIvPiYjeGE7CQkJPHN0b3Agb2Zmc2V0PSIxIiBzdHlsZT0ic3RvcC1jb2xvcjojMDA3OEEwIi8+JiN4YTsJCTwvbGluZWFyR3JhZGllbnQ+JiN4YTsJCTxwYXRoIGNsYXNzPSJzdDEiIGQ9Ik00NS4yLDM2NS44bDIxNS40LTEyMy43YzEuMi0wLjcsMi44LTAuNyw0LDBsODcuNCw1MC40YzEuOSwxLjEsMi42LDMuNiwxLjUsNS41Yy0wLjMsMC42LTAuOSwxLjEtMS41LDEuNSYjMTA7JiM5OyYjOTsmIzk7TDEzOC44LDQyNC4xYy0xLjIsMC43LTIuOCwwLjctNCwwbC04OS42LTUxLjVjLTEuOS0xLjEtMi42LTMuNS0xLjUtNS41QzQ0LjEsMzY2LjYsNDQuNiwzNjYuMSw0NS4yLDM2NS44eiIvPiYjeGE7CQk8cGF0aCBjbGFzcz0ic3QyIiBkPSJNMjU5LjMsNTM3LjNjMC0wLjYsMC40LTEsMS0xbDAsMGMwLjYsMCwxLDAuNCwxLDFsMCwwYzAsMC42LTAuNCwxLTEsMWwwLDAmIzEwOyYjOTsmIzk7JiM5O0MyNTkuOCw1MzguMywyNTkuMyw1MzcuOSwyNTkuMyw1MzcuM3ogTTI1OS4zLDUyOS4zYzAtMC42LDAuNC0xLDEtMWwwLDBjMC42LDAsMSwwLjQsMSwxbDAsMGMwLDAuNi0wLjQsMS0xLDFsMCwwJiMxMDsmIzk7JiM5OyYjOTtDMjU5LjgsNTMwLjMsMjU5LjMsNTI5LjksMjU5LjMsNTI5LjN6IE0yNTkuMyw1MjEuM2MwLTAuNiwwLjQtMSwxLTFsMCwwYzAuNiwwLDEsMC40LDEsMWwwLDBjMCwwLjYtMC40LDEtMSwxbDAsMCYjMTA7JiM5OyYjOTsmIzk7QzI1OS44LDUyMi4zLDI1OS4zLDUyMS45LDI1OS4zLDUyMS4zeiBNMjU5LjMsNTEzLjNjMC0wLjYsMC40LTEsMS0xbDAsMGMwLjYsMCwxLDAuNCwxLDFsMCwwYzAsMC42LTAuNCwxLTEsMWwwLDAmIzEwOyYjOTsmIzk7JiM5O0MyNTkuOCw1MTQuMywyNTkuMyw1MTMuOSwyNTkuMyw1MTMuM3ogTTI1OS4zLDUwNS4zYzAtMC42LDAuNC0xLDEtMWwwLDBjMC42LDAsMSwwLjQsMSwxbDAsMGMwLDAuNi0wLjQsMS0xLDFsMCwwJiMxMDsmIzk7JiM5OyYjOTtDMjU5LjgsNTA2LjMsMjU5LjMsNTA1LjksMjU5LjMsNTA1LjN6IE0yNTkuMyw0OTcuM2MwLTAuNiwwLjQtMSwxLTFsMCwwYzAuNiwwLDEsMC40LDEsMWwwLDBjMCwwLjYtMC40LDEtMSwxbDAsMCYjMTA7JiM5OyYjOTsmIzk7QzI1OS44LDQ5OC4zLDI1OS4zLDQ5Ny45LDI1OS4zLDQ5Ny4zeiBNMjU5LjMsNDg5LjNjMC0wLjYsMC40LTEsMS0xbDAsMGMwLjYsMCwxLDAuNCwxLDFsMCwwYzAsMC42LTAuNCwxLTEsMWwwLDAmIzEwOyYjOTsmIzk7JiM5O0MyNTkuOCw0OTAuMywyNTkuMyw0ODkuOSwyNTkuMyw0ODkuM3ogTTI1OS4zLDQ4MS4zYzAtMC42LDAuNC0xLDEtMWwwLDBjMC42LDAsMSwwLjQsMSwxbDAsMGMwLDAuNi0wLjQsMS0xLDFsMCwwJiMxMDsmIzk7JiM5OyYjOTtDMjU5LjgsNDgyLjMsMjU5LjMsNDgxLjksMjU5LjMsNDgxLjN6IE0yNTkuMyw0NzMuM2MwLTAuNiwwLjQtMSwxLTFsMCwwYzAuNiwwLDEsMC40LDEsMWwwLDBjMCwwLjYtMC40LDEtMSwxbDAsMCYjMTA7JiM5OyYjOTsmIzk7QzI1OS44LDQ3NC4zLDI1OS4zLDQ3My45LDI1OS4zLDQ3My4zeiBNMjU5LjMsNDY1LjNjMC0wLjYsMC40LTEsMS0xbDAsMGMwLjYsMCwxLDAuNCwxLDFsMCwwYzAsMC42LTAuNCwxLTEsMWwwLDAmIzEwOyYjOTsmIzk7JiM5O0MyNTkuOCw0NjYuMywyNTkuMyw0NjUuOSwyNTkuMyw0NjUuM3ogTTI1OS4zLDQ1Ny4zYzAtMC42LDAuNC0xLDEtMWwwLDBjMC42LDAsMSwwLjQsMSwxbDAsMGMwLDAuNi0wLjQsMS0xLDFsMCwwJiMxMDsmIzk7JiM5OyYjOTtDMjU5LjgsNDU4LjMsMjU5LjMsNDU3LjksMjU5LjMsNDU3LjN6IE0yNTkuMyw0NDkuM2MwLTAuNiwwLjQtMSwxLTFsMCwwYzAuNiwwLDEsMC40LDEsMWwwLDBjMCwwLjYtMC40LDEtMSwxbDAsMCYjMTA7JiM5OyYjOTsmIzk7QzI1OS44LDQ1MC4zLDI1OS4zLDQ0OS45LDI1OS4zLDQ0OS4zeiBNMjU5LjMsNDQxLjNjMC0wLjYsMC40LTEsMS0xbDAsMGMwLjYsMCwxLDAuNCwxLDFsMCwwYzAsMC42LTAuNCwxLTEsMWwwLDAmIzEwOyYjOTsmIzk7JiM5O0MyNTkuOCw0NDIuMywyNTkuMyw0NDEuOSwyNTkuMyw0NDEuM3ogTTI1OS4zLDQzMy4zYzAtMC42LDAuNC0xLDEtMWwwLDBjMC42LDAsMSwwLjQsMSwxbDAsMGMwLDAuNi0wLjQsMS0xLDFsMCwwJiMxMDsmIzk7JiM5OyYjOTtDMjU5LjgsNDM0LjMsMjU5LjMsNDMzLjksMjU5LjMsNDMzLjN6IE0yNTkuMyw0MjUuM2MwLTAuNiwwLjQtMSwxLTFsMCwwYzAuNiwwLDEsMC40LDEsMWwwLDBjMCwwLjYtMC40LDEtMSwxbDAsMCYjMTA7JiM5OyYjOTsmIzk7QzI1OS44LDQyNi4zLDI1OS4zLDQyNS45LDI1OS4zLDQyNS4zeiBNMjU5LjMsNDE3LjNjMC0wLjYsMC40LTEsMS0xbDAsMGMwLjYsMCwxLDAuNCwxLDFsMCwwYzAsMC42LTAuNCwxLTEsMWwwLDAmIzEwOyYjOTsmIzk7JiM5O0MyNTkuOCw0MTguMywyNTkuMyw0MTcuOSwyNTkuMyw0MTcuM3ogTTI1OS4zLDQwOS4zYzAtMC42LDAuNC0xLDEtMWwwLDBjMC42LDAsMSwwLjQsMSwxbDAsMGMwLDAuNi0wLjQsMS0xLDFsMCwwJiMxMDsmIzk7JiM5OyYjOTtDMjU5LjgsNDEwLjMsMjU5LjMsNDA5LjksMjU5LjMsNDA5LjN6IE0yNTkuMyw0MDEuM2MwLTAuNiwwLjQtMSwxLTFsMCwwYzAuNiwwLDEsMC40LDEsMWwwLDBjMCwwLjYtMC40LDEtMSwxbDAsMCYjMTA7JiM5OyYjOTsmIzk7QzI1OS44LDQwMi4zLDI1OS4zLDQwMS45LDI1OS4zLDQwMS4zeiBNMjU5LjMsMzkzLjNjMC0wLjYsMC40LTEsMS0xbDAsMGMwLjYsMCwxLDAuNCwxLDFsMCwwYzAsMC42LTAuNCwxLTEsMWwwLDAmIzEwOyYjOTsmIzk7JiM5O0MyNTkuOCwzOTQuMywyNTkuMywzOTMuOSwyNTkuMywzOTMuM3ogTTI1OS4zLDM4NS4zYzAtMC42LDAuNC0xLDEtMWwwLDBjMC42LDAsMSwwLjQsMSwxbDAsMGMwLDAuNi0wLjQsMS0xLDFsMCwwJiMxMDsmIzk7JiM5OyYjOTtDMjU5LjgsMzg2LjMsMjU5LjMsMzg1LjksMjU5LjMsMzg1LjN6Ii8+JiN4YTsJCTxwYXRoIGNsYXNzPSJzdDMiIGQ9Ik00NS4yLDM2MS44bDIxNS40LTEyMy43YzEuMi0wLjcsMi44LTAuNyw0LDBsODcuNCw1MC40YzEuOSwxLjEsMi42LDMuNiwxLjUsNS41Yy0wLjMsMC42LTAuOSwxLjEtMS41LDEuNSYjMTA7JiM5OyYjOTsmIzk7TDEzOC44LDQyMC4xYy0xLjIsMC43LTIuOCwwLjctNCwwbC04OS42LTUxLjVjLTEuOS0xLjEtMi42LTMuNS0xLjUtNS41QzQ0LjEsMzYyLjYsNDQuNiwzNjIuMSw0NS4yLDM2MS44eiIvPiYjeGE7CQk8cGF0aCBjbGFzcz0ic3Q0IiBkPSJNMjYyLjYsMjM4LjZMMjYyLjYsMjM4LjZjMC41LDAsMSwwLjEsMS41LDAuNGw4Ny40LDUwLjRjMS40LDAuOCwxLjksMi43LDEuMSw0LjFjLTAuMywwLjUtMC42LDAuOC0xLjEsMS4xJiMxMDsmIzk7JiM5OyYjOTtMMTM4LjMsNDE5LjNjLTAuOSwwLjUtMi4xLDAuNS0zLDBsLTg5LjYtNTEuNWMtMS40LTAuOC0xLjktMi43LTEuMS00LjFjMC4zLTAuNSwwLjYtMC44LDEuMS0xLjFMMjYxLjEsMjM5JiMxMDsmIzk7JiM5OyYjOTtDMjYxLjYsMjM4LjcsMjYyLjEsMjM4LjYsMjYyLjYsMjM4LjYgTTI2Mi42LDIzNy42Yy0wLjcsMC0xLjQsMC4yLTIsMC41TDQ1LjIsMzYxLjhjLTEuOSwxLjEtMi42LDMuNS0xLjUsNS41JiMxMDsmIzk7JiM5OyYjOTtjMC40LDAuNiwwLjksMS4xLDEuNSwxLjVsODkuNiw1MS41YzEuMiwwLjcsMi44LDAuNyw0LDBMMzUyLDI5NS40YzEuOS0xLjEsMi42LTMuNiwxLjUtNS41Yy0wLjMtMC42LTAuOS0xLjEtMS41LTEuNWwtODcuNC01MC40JiMxMDsmIzk7JiM5OyYjOTtDMjY0LDIzNy43LDI2My4zLDIzNy42LDI2Mi42LDIzNy42TDI2Mi42LDIzNy42eiIvPiYjeGE7CQkmI3hhOwkJCTxsaW5lYXJHcmFkaWVudCBpZD0iU1ZHSURfMl8iIGdyYWRpZW50VW5pdHM9InVzZXJTcGFjZU9uVXNlIiB4MT0iMzIwLjUzMDMiIHkxPSI2NS4zMjkiIHgyPSIzMjAuNTMwMyIgeTI9IjE2OC43NjkiIGdyYWRpZW50VHJhbnNmb3JtPSJtYXRyaXgoMSAwIDAgLTEgMCA1NzQuNjE4KSI+JiN4YTsJCQk8c3RvcCBvZmZzZXQ9IjAiIHN0eWxlPSJzdG9wLWNvbG9yOiNGRUQxMEEiLz4mI3hhOwkJCTxzdG9wIG9mZnNldD0iMSIgc3R5bGU9InN0b3AtY29sb3I6I0U1ODMwRSIvPiYjeGE7CQk8L2xpbmVhckdyYWRpZW50PiYjeGE7CQk8cGF0aCBjbGFzcz0ic3Q1IiBkPSJNMTY3LjEsNDQwLjlsMjE1LjQtMTIzLjdjMS4yLTAuNywyLjgtMC43LDQsMGw4Ny40LDUwLjRjMS45LDEuMSwyLjYsMy42LDEuNSw1LjVjLTAuMywwLjYtMC45LDEuMS0xLjUsMS41JiMxMDsmIzk7JiM5OyYjOTtMMjYwLjgsNDk5LjNjLTEuMiwwLjctMi44LDAuNy00LDBsLTg5LjYtNTEuNWMtMS45LTEuMS0yLjYtMy41LTEuNS01LjVDMTY2LDQ0MS44LDE2Ni41LDQ0MS4zLDE2Ny4xLDQ0MC45eiIvPiYjeGE7CQk8cGF0aCBjbGFzcz0ic3QzIiBkPSJNMTY3LjEsNDM2LjlsMjE1LjQtMTIzLjdjMS4yLTAuNywyLjgtMC43LDQsMGw4Ny40LDUwLjRjMS45LDEuMSwyLjYsMy42LDEuNSw1LjVjLTAuMywwLjYtMC45LDEuMS0xLjUsMS41JiMxMDsmIzk7JiM5OyYjOTtMMjYwLjgsNDk1LjNjLTEuMiwwLjctMi44LDAuNy00LDBsLTg5LjYtNTEuNWMtMS45LTEuMS0yLjYtMy41LTEuNS01LjVDMTY2LDQzNy44LDE2Ni41LDQzNy4zLDE2Ny4xLDQzNi45eiIvPiYjeGE7CQk8cGF0aCBjbGFzcz0ic3Q2IiBkPSJNMzg0LjUsMzEzLjdjMC41LDAsMSwwLjEsMS41LDAuNGw4Ny40LDUwLjRjMS40LDAuOCwxLjksMi43LDEuMSw0LjFjLTAuMywwLjUtMC42LDAuOC0xLjEsMS4xTDI2MC4zLDQ5NC40JiMxMDsmIzk7JiM5OyYjOTtjLTAuOSwwLjUtMi4xLDAuNS0zLDBMMTY3LjYsNDQzYy0xLjQtMC44LTEuOS0yLjctMS4xLTQuMWMwLjMtMC41LDAuNi0wLjgsMS4xLTEuMWwyMTUuNC0xMjMuNyYjMTA7JiM5OyYjOTsmIzk7QzM4My41LDMxMy44LDM4NCwzMTMuNywzODQuNSwzMTMuNyBNMzg0LjUsMzEyLjdjLTAuNywwLTEuNCwwLjItMiwwLjVMMTY3LjEsNDM2LjljLTEuOSwxLjEtMi42LDMuNS0xLjUsNS41JiMxMDsmIzk7JiM5OyYjOTtjMC40LDAuNiwwLjksMS4xLDEuNSwxLjVsODkuNiw1MS41YzEuMiwwLjcsMi44LDAuNyw0LDBMNDc0LDM3MC42YzEuOS0xLjEsMi42LTMuNiwxLjUtNS41Yy0wLjMtMC42LTAuOS0xLjEtMS41LTEuNWwtODcuNC01MC40JiMxMDsmIzk7JiM5OyYjOTtDMzg1LjksMzEyLjksMzg1LjIsMzEyLjcsMzg0LjUsMzEyLjd6Ii8+JiN4YTsJCTxnPiYjeGE7CQkJPGRlZnM+JiN4YTsJCQkJPHBhdGggaWQ9IlNWR0lEXzNfIiBkPSJNMTcwLjMsNDM3LjRMMzgzLjYsMzE1YzEuMi0wLjcsMi43LTAuNyw0LDBsODYuNSw0OS45YzEuOSwxLjEsMi41LDMuNiwxLjQsNS41Yy0wLjMsMC42LTAuOCwxLTEuNCwxLjQmIzEwOyYjOTsmIzk7JiM5OyYjOTsmIzk7TDI2Myw0OTUuMWMtMS4yLDAuNy0yLjgsMC43LTQsMGwtODguNy01MC45Yy0xLjktMS4xLTIuNS0zLjYtMS40LTUuNUMxNjkuMyw0MzguMiwxNjkuOCw0MzcuNywxNzAuMyw0MzcuNHoiLz4mI3hhOwkJCTwvZGVmcz4mI3hhOwkJCTxjbGlwUGF0aCBpZD0iU1ZHSURfNF8iPiYjeGE7CQkJCTx1c2UgeGxpbms6aHJlZj0iI1NWR0lEXzNfIiBzdHlsZT0ib3ZlcmZsb3c6dmlzaWJsZTsiLz4mI3hhOwkJCTwvY2xpcFBhdGg+JiN4YTsJCQk8ZyBjbGFzcz0ic3Q3Ij4mI3hhOwkJCQk8cGF0aCBkPSJNNDYuMywzMDcuMmwyMTMuMi0xMjIuNGMxLjItMC43LDIuNy0wLjcsMy45LDBsMjEzLjIsMTIyLjRjMS45LDEuMSwyLjUsMy42LDEuNCw1LjVjLTAuMywwLjYtMC44LDEtMS40LDEuNCYjMTA7JiM5OyYjOTsmIzk7JiM5OyYjOTtMMjYzLjUsNDM2LjVjLTEuMiwwLjctMi43LDAuNy0zLjksMEw0Ni4zLDMxNC4xYy0xLjktMS4xLTIuNS0zLjYtMS40LTUuNUM0NS4zLDMwOCw0NS44LDMwNy42LDQ2LjMsMzA3LjJ6Ii8+JiN4YTsJCQk8L2c+JiN4YTsJCTwvZz4mI3hhOwkJPGc+JiN4YTsJCQk8ZGVmcz4mI3hhOwkJCQk8cGF0aCBpZD0iU1ZHSURfNV8iIGQ9Ik0xNy4zLDM3OS4zTDIyOCwyNTcuNmMxLjItMC43LDIuNy0wLjcsMy45LDBsODUuNCw0OS42YzEuOSwxLjIsMi41LDMuNiwxLjMsNS41Yy0wLjMsMC41LTAuOCwxLTEuMywxLjMmIzEwOyYjOTsmIzk7JiM5OyYjOTsmIzk7TDEwOC45LDQzNi44Yy0xLjIsMC43LTIuNywwLjctMy45LDBsLTg3LjYtNTAuNmMtMS45LTEuMi0yLjUtMy42LTEuMy01LjVDMTYuNCwzODAuMSwxNi44LDM3OS42LDE3LjMsMzc5LjN6Ii8+JiN4YTsJCQk8L2RlZnM+JiN4YTsJCQk8Y2xpcFBhdGggaWQ9IlNWR0lEXzZfIj4mI3hhOwkJCQk8dXNlIHhsaW5rOmhyZWY9IiNTVkdJRF81XyIgc3R5bGU9Im92ZXJmbG93OnZpc2libGU7Ii8+JiN4YTsJCQk8L2NsaXBQYXRoPiYjeGE7CQkJPGcgY2xhc3M9InN0OCI+JiN4YTsJCQkJPHBhdGggZD0iTTEzLjcsMjg1LjhsMjEwLjctMTIxLjdjMS4yLTAuNywyLjctMC43LDMuOSwwTDQzOSwyODUuOGMxLjksMS4yLDIuNSwzLjYsMS4zLDUuNWMtMC4zLDAuNS0wLjgsMS0xLjMsMS4zTDIyOC4zLDQxNC40JiMxMDsmIzk7JiM5OyYjOTsmIzk7JiM5O2MtMS4yLDAuNy0yLjcsMC43LTMuOSwwTDEzLjcsMjkyLjZjLTEuOS0xLjItMi41LTMuNi0xLjMtNS41QzEyLjcsMjg2LjYsMTMuMSwyODYuMiwxMy43LDI4NS44eiIvPiYjeGE7CQkJPC9nPiYjeGE7CQk8L2c+JiN4YTsJCSYjeGE7CQkJPGxpbmVhckdyYWRpZW50IGlkPSJTVkdJRF83XyIgZ3JhZGllbnRVbml0cz0idXNlclNwYWNlT25Vc2UiIHgxPSIyNjEuODk3MSIgeTE9IjI1Mi43NzkiIHgyPSIyNjEuODk3MSIgeTI9IjEyOS42MzkiIGdyYWRpZW50VHJhbnNmb3JtPSJtYXRyaXgoMSAwIDAgLTEgMCA1NzQuNjE4KSI+JiN4YTsJCQk8c3RvcCBvZmZzZXQ9IjAiIHN0eWxlPSJzdG9wLWNvbG9yOiMwMTcxNjkiLz4mI3hhOwkJCTxzdG9wIG9mZnNldD0iMSIgc3R5bGU9InN0b3AtY29sb3I6IzAwQkZCMyIvPiYjeGE7CQk8L2xpbmVhckdyYWRpZW50PiYjeGE7CQk8cGF0aCBjbGFzcz0ic3Q5IiBkPSJNNDQuNCwyODIuOGwyMTUuNC0xMjMuN2MxLjItMC43LDIuOC0wLjcsNCwwbDIxNS41LDEyMy43YzEuOSwxLjEsMi42LDMuNSwxLjUsNS41Yy0wLjQsMC42LTAuOSwxLjEtMS41LDEuNSYjMTA7JiM5OyYjOTsmIzk7TDI2My45LDQxMy40Yy0xLjIsMC43LTIuOCwwLjctNCwwTDQ0LjQsMjg5LjdjLTEuOS0xLjEtMi42LTMuNS0xLjUtNS41QzQzLjMsMjgzLjcsNDMuOCwyODMuMiw0NC40LDI4Mi44eiIvPiYjeGE7CQk8cGF0aCBjbGFzcz0ic3QzIiBkPSJNNDQuNCwyNzcuOGwyMTUuNC0xMjMuN2MxLjItMC43LDIuOC0wLjcsNCwwbDIxNS41LDEyMy43YzEuOSwxLjEsMi42LDMuNSwxLjUsNS41Yy0wLjQsMC42LTAuOSwxLjEtMS41LDEuNSYjMTA7JiM5OyYjOTsmIzk7TDI2My45LDQwOC40Yy0xLjIsMC43LTIuOCwwLjctNCwwTDQ0LjQsMjg0LjdjLTEuOS0xLjEtMi42LTMuNS0xLjUtNS41QzQzLjMsMjc4LjcsNDMuOCwyNzguMiw0NC40LDI3Ny44eiIvPiYjeGE7CQk8cGF0aCBjbGFzcz0ic3QxMCIgZD0iTTI2MS45LDE1NC42YzAuNSwwLDEsMC4xLDEuNSwwLjRsMjE1LjQsMTIzLjdjMS40LDAuOCwxLjksMi43LDEuMSw0LjFjLTAuMywwLjUtMC42LDAuOC0xLjEsMS4xJiMxMDsmIzk7JiM5OyYjOTtMMjYzLjMsNDA3LjVjLTAuOSwwLjUtMi4xLDAuNS0zLDBMNDQuOSwyODMuOWMtMS40LTAuOC0xLjktMi43LTEuMS00LjFjMC4zLTAuNSwwLjYtMC44LDEuMS0xLjFMMjYwLjMsMTU1JiMxMDsmIzk7JiM5OyYjOTtDMjYwLjgsMTU0LjcsMjYxLjMsMTU0LjYsMjYxLjksMTU0LjYgTTI2MS44LDE1My42Yy0wLjcsMC0xLjQsMC4yLTIsMC41TDQ0LjQsMjc3LjhjLTEuOSwxLjEtMi42LDMuNS0xLjUsNS41JiMxMDsmIzk7JiM5OyYjOTtjMC40LDAuNiwwLjksMS4xLDEuNSwxLjVsMjE1LjQsMTIzLjdjMS4yLDAuNywyLjgsMC43LDQsMGwyMTUuNS0xMjMuN2MxLjktMS4xLDIuNi0zLjUsMS41LTUuNWMtMC40LTAuNi0wLjktMS4xLTEuNS0xLjUmIzEwOyYjOTsmIzk7JiM5O0wyNjMuOSwxNTQuMUMyNjMuMywxNTMuOCwyNjIuNiwxNTMuNiwyNjEuOCwxNTMuNkwyNjEuOCwxNTMuNnoiLz4mI3hhOwkJPGc+JiN4YTsJCQk8ZGVmcz4mI3hhOwkJCQk8cGF0aCBpZD0iU1ZHSURfOF8iIGQ9Ik00Ni40LDI3OC43TDI1OS45LDE1NmMxLjItMC43LDIuNy0wLjcsNCwwbDIxMy41LDEyMi43YzEuOSwxLjEsMi41LDMuNiwxLjQsNS41JiMxMDsmIzk7JiM5OyYjOTsmIzk7JiM5O2MtMC4zLDAuNi0wLjgsMS4xLTEuNCwxLjRMMjYzLjksNDA4LjJjLTEuMiwwLjctMi43LDAuNy00LDBMNDYuNCwyODUuNmMtMS45LTEuMS0yLjUtMy42LTEuNC01LjUmIzEwOyYjOTsmIzk7JiM5OyYjOTsmIzk7QzQ1LjQsMjc5LjUsNDUuOSwyNzksNDYuNCwyNzguN3oiLz4mI3hhOwkJCTwvZGVmcz4mI3hhOwkJCTxjbGlwUGF0aCBpZD0iU1ZHSURfOV8iPiYjeGE7CQkJCTx1c2UgeGxpbms6aHJlZj0iI1NWR0lEXzhfIiBzdHlsZT0ib3ZlcmZsb3c6dmlzaWJsZTsiLz4mI3hhOwkJCTwvY2xpcFBhdGg+JiN4YTsJCQk8ZyBjbGFzcz0ic3QxMSI+JiN4YTsJCQkJPHBhdGggZD0iTTQ2LjQsMjIzLjFsMjEzLjUtMTIyLjdjMS4yLTAuNywyLjctMC43LDQsMGwyMTMuNSwxMjIuN2MxLjksMS4xLDIuNSwzLjYsMS40LDUuNWMtMC4zLDAuNi0wLjgsMS4xLTEuNCwxLjQmIzEwOyYjOTsmIzk7JiM5OyYjOTsmIzk7TDI2My45LDM1Mi43Yy0xLjIsMC43LTIuNywwLjctNCwwTDQ2LjQsMjMwYy0xLjktMS4xLTIuNS0zLjYtMS40LTUuNUM0NS40LDIyNCw0NS45LDIyMy41LDQ2LjQsMjIzLjF6Ii8+JiN4YTsJCQk8L2c+JiN4YTsJCTwvZz4mI3hhOwkJJiN4YTsJCQk8bGluZWFyR3JhZGllbnQgaWQ9IlNWR0lEXzEwXyIgZ3JhZGllbnRVbml0cz0idXNlclNwYWNlT25Vc2UiIHgxPSIyNjEuODk3MSIgeTE9IjIzMS44MDkiIHgyPSIyNjEuODk3MSIgeTI9IjM2OC4xNzkiIGdyYWRpZW50VHJhbnNmb3JtPSJtYXRyaXgoMSAwIDAgLTEgMCA1NzQuNjE4KSI+JiN4YTsJCQk8c3RvcCBvZmZzZXQ9IjAiIHN0eWxlPSJzdG9wLWNvbG9yOiNGMDRFOTgiLz4mI3hhOwkJCTxzdG9wIG9mZnNldD0iMSIgc3R5bGU9InN0b3AtY29sb3I6I0FGMDA1OCIvPiYjeGE7CQk8L2xpbmVhckdyYWRpZW50PiYjeGE7CQk8cGF0aCBjbGFzcz0ic3QxMiIgZD0iTTQ0LjQsMjAxTDI1OS45LDc3LjNjMS4yLTAuNywyLjgtMC43LDQsMEw0NzkuMywyMDFjMS45LDEuMSwyLjYsMy41LDEuNSw1LjVjLTAuNCwwLjYtMC45LDEuMS0xLjUsMS41JiMxMDsmIzk7JiM5OyYjOTtMMjYzLjksMzMxLjZjLTEuMiwwLjctMi44LDAuNy00LDBMNDQuNCwyMDcuOWMtMS45LTEuMS0yLjYtMy41LTEuNS01LjVDNDMuMywyMDEuOSw0My44LDIwMS40LDQ0LjQsMjAxeiIvPiYjeGE7CQk8cGF0aCBjbGFzcz0ic3QzIiBkPSJNNDQuNCwxOTZMMjU5LjksNzIuM2MxLjItMC43LDIuOC0wLjcsNCwwTDQ3OS4zLDE5NmMxLjksMS4xLDIuNiwzLjUsMS41LDUuNWMtMC40LDAuNi0wLjksMS4xLTEuNSwxLjUmIzEwOyYjOTsmIzk7JiM5O0wyNjMuOSwzMjYuNmMtMS4yLDAuNy0yLjgsMC43LTQsMEw0NC40LDIwMi45Yy0xLjktMS4xLTIuNi0zLjUtMS41LTUuNUM0My4zLDE5Ni45LDQzLjgsMTk2LjQsNDQuNCwxOTZ6Ii8+JiN4YTsJCTxwYXRoIGNsYXNzPSJzdDEzIiBkPSJNMjYxLjksNzIuOGMwLjUsMCwxLDAuMSwxLjUsMC40bDIxNS40LDEyMy43YzEuNCwwLjgsMS45LDIuNywxLjEsNC4xYy0wLjMsMC41LTAuNiwwLjgtMS4xLDEuMUwyNjMuMywzMjUuOCYjMTA7JiM5OyYjOTsmIzk7Yy0wLjksMC41LTIuMSwwLjUtMywwTDQ0LjksMjAyLjFjLTEuNC0wLjgtMS45LTIuNy0xLjEtNC4xYzAuMy0wLjUsMC42LTAuOCwxLjEtMS4xTDI2MC4zLDczLjJDMjYwLjgsNzIuOSwyNjEuMyw3Mi44LDI2MS45LDcyLjgmIzEwOyYjOTsmIzk7JiM5OyBNMjYxLjgsNzEuOGMtMC43LDAtMS40LDAuMi0yLDAuNUw0NC40LDE5NmMtMS45LDEuMS0yLjYsMy41LTEuNSw1LjVjMC40LDAuNiwwLjksMS4xLDEuNSwxLjVsMjE1LjQsMTIzLjdjMS4yLDAuNywyLjgsMC43LDQsMCYjMTA7JiM5OyYjOTsmIzk7bDIxNS41LTEyMy43YzEuOS0xLjEsMi42LTMuNSwxLjUtNS41Yy0wLjQtMC42LTAuOS0xLjEtMS41LTEuNUwyNjMuOSw3Mi4zQzI2My4zLDcyLDI2Mi42LDcxLjgsMjYxLjgsNzEuOEwyNjEuOCw3MS44eiIvPiYjeGE7CQk8ZyBjbGFzcz0ic3QxNCI+JiN4YTsJCQk8cGF0aCBjbGFzcz0ic3QxNSIgZD0iTTIwMi45LDE4NC42bDU2LjQtMzIuNGMwLjMtMC4yLDAuNy0wLjIsMSwwbDU2LjQsMzIuNGMwLjUsMC4yLDAuNywwLjgsMC41LDEuM2MtMC4xLDAuMi0wLjMsMC40LTAuNSwwLjUmIzEwOyYjOTsmIzk7JiM5OyYjOTtsLTU2LjQsMzIuNGMtMC4zLDAuMi0wLjcsMC4yLTEsMGwtNTYuNC0zMi40Yy0wLjUtMC4yLTAuOC0wLjctMC42LTEuM0MyMDIuNCwxODQuOSwyMDIuNiwxODQuNiwyMDIuOSwxODQuNnoiLz4mI3hhOwkJPC9nPiYjeGE7CQk8ZyBjbGFzcz0ic3QxNiI+JiN4YTsJCQk8cGF0aCBjbGFzcz0ic3QxNSIgZD0iTTIwMi45LDE0NS42bDU2LjQtMzIuNGMwLjMtMC4yLDAuNy0wLjIsMSwwbDU2LjQsMzIuNGMwLjUsMC4yLDAuNywwLjgsMC41LDEuM2MtMC4xLDAuMi0wLjMsMC40LTAuNSwwLjUmIzEwOyYjOTsmIzk7JiM5OyYjOTtsLTU2LjQsMzIuNGMtMC4zLDAuMi0wLjcsMC4yLTEsMGwtNTYuNC0zMi40Yy0wLjUtMC4yLTAuNy0wLjgtMC41LTEuM0MyMDIuNSwxNDUuOCwyMDIuNywxNDUuNywyMDIuOSwxNDUuNnoiLz4mI3hhOwkJPC9nPiYjeGE7CQk8ZyBjbGFzcz0ic3QxNiI+JiN4YTsJCQk8cGF0aCBjbGFzcz0ic3QxMCIgZD0iTTIwMi45LDEwNi42bDU2LjQtMzIuNGMwLjMtMC4yLDAuNy0wLjIsMSwwbDU2LjQsMzIuNGMwLjUsMC4yLDAuNywwLjgsMC41LDEuM2MtMC4xLDAuMi0wLjMsMC40LTAuNSwwLjUmIzEwOyYjOTsmIzk7JiM5OyYjOTtsLTU2LjQsMzIuNGMtMC4zLDAuMi0wLjcsMC4yLTEsMGwtNTYuNC0zMi40Yy0wLjUtMC4yLTAuNy0wLjgtMC41LTEuM0MyMDIuNSwxMDYuOCwyMDIuNywxMDYuNywyMDIuOSwxMDYuNnoiLz4mI3hhOwkJPC9nPiYjeGE7CQk8ZyBjbGFzcz0ic3QxNyI+JiN4YTsJCQk8cGF0aCBjbGFzcz0ic3QxMCIgZD0iTTIwMi45LDY3LjZsNTYuNC0zMi40YzAuMy0wLjIsMC43LTAuMiwxLDBsNTYuNCwzMi40YzAuNSwwLjIsMC43LDAuOCwwLjUsMS4zYy0wLjEsMC4yLTAuMywwLjQtMC41LDAuNSYjMTA7JiM5OyYjOTsmIzk7JiM5O2wtNTYuNCwzMi40Yy0wLjMsMC4yLTAuNywwLjItMSwwbC01Ni40LTMyLjRjLTAuNS0wLjItMC43LTAuOC0wLjUtMS4zQzIwMi41LDY3LjgsMjAyLjcsNjcuNywyMDIuOSw2Ny42eiIvPiYjeGE7CQk8L2c+JiN4YTsJCTxwYXRoIGNsYXNzPSJzdDIiIGQ9Ik0yNTkuMywxODkuOWMwLTAuNiwwLjQtMSwxLTFsMCwwYzAuNiwwLDEsMC40LDEsMWwwLDBjMCwwLjYtMC40LDEtMSwxbDAsMCYjMTA7JiM5OyYjOTsmIzk7QzI1OS44LDE5MC45LDI1OS4zLDE5MC41LDI1OS4zLDE4OS45eiBNMjU5LjMsMTgxLjljMC0wLjYsMC40LTEsMS0xbDAsMGMwLjYsMCwxLDAuNCwxLDFsMCwwYzAsMC42LTAuNCwxLTEsMWwwLDAmIzEwOyYjOTsmIzk7JiM5O0MyNTkuOCwxODIuOSwyNTkuMywxODIuNSwyNTkuMywxODEuOUwyNTkuMywxODEuOXogTTI1OS4zLDE3My45YzAtMC42LDAuNC0xLDEtMWwwLDBjMC42LDAsMSwwLjQsMSwxbDAsMGMwLDAuNi0wLjQsMS0xLDFsMCwwJiMxMDsmIzk7JiM5OyYjOTtDMjU5LjgsMTc0LjksMjU5LjMsMTc0LjUsMjU5LjMsMTczLjlMMjU5LjMsMTczLjl6IE0yNTkuMywxNjUuOWMwLTAuNiwwLjQtMSwxLTFsMCwwYzAuNiwwLDEsMC40LDEsMWwwLDBjMCwwLjYtMC40LDEtMSwxbDAsMCYjMTA7JiM5OyYjOTsmIzk7QzI1OS44LDE2Ni45LDI1OS4zLDE2Ni41LDI1OS4zLDE2NS45TDI1OS4zLDE2NS45eiBNMjU5LjMsMTU3LjljMC0wLjYsMC40LTEsMS0xbDAsMGMwLjYsMCwxLDAuNCwxLDFsMCwwYzAsMC42LTAuNCwxLTEsMWwwLDAmIzEwOyYjOTsmIzk7JiM5O0MyNTkuOCwxNTguOSwyNTkuMywxNTguNSwyNTkuMywxNTcuOUwyNTkuMywxNTcuOXogTTI1OS4zLDE0OS45YzAtMC42LDAuNC0xLDEtMWwwLDBjMC42LDAsMSwwLjQsMSwxbDAsMGMwLDAuNi0wLjQsMS0xLDFsMCwwJiMxMDsmIzk7JiM5OyYjOTtDMjU5LjgsMTUwLjksMjU5LjMsMTUwLjUsMjU5LjMsMTQ5LjlMMjU5LjMsMTQ5Ljl6IE0yNTkuMywxNDEuOWMwLTAuNiwwLjQtMSwxLTFsMCwwYzAuNiwwLDEsMC40LDEsMWwwLDBjMCwwLjYtMC40LDEtMSwxbDAsMCYjMTA7JiM5OyYjOTsmIzk7QzI1OS44LDE0Mi45LDI1OS4zLDE0Mi41LDI1OS4zLDE0MS45TDI1OS4zLDE0MS45eiBNMjU5LjMsMTMzLjljMC0wLjYsMC40LTEsMS0xbDAsMGMwLjYsMCwxLDAuNCwxLDFsMCwwYzAsMC42LTAuNCwxLTEsMWwwLDAmIzEwOyYjOTsmIzk7JiM5O0MyNTkuOCwxMzQuOSwyNTkuMywxMzQuNSwyNTkuMywxMzMuOUwyNTkuMywxMzMuOXogTTI1OS4zLDEyNS45YzAtMC42LDAuNC0xLDEtMWwwLDBjMC42LDAsMSwwLjQsMSwxbDAsMGMwLDAuNi0wLjQsMS0xLDFsMCwwJiMxMDsmIzk7JiM5OyYjOTtDMjU5LjgsMTI2LjksMjU5LjMsMTI2LjUsMjU5LjMsMTI1LjlMMjU5LjMsMTI1Ljl6IE0yNTkuMywxMTcuOWMwLTAuNiwwLjQtMSwxLTFsMCwwYzAuNiwwLDEsMC40LDEsMWwwLDBjMCwwLjYtMC40LDEtMSwxbDAsMCYjMTA7JiM5OyYjOTsmIzk7QzI1OS44LDExOC45LDI1OS4zLDExOC41LDI1OS4zLDExNy45TDI1OS4zLDExNy45eiBNMjU5LjMsMTA5LjljMC0wLjYsMC40LTEsMS0xbDAsMGMwLjYsMCwxLDAuNCwxLDFsMCwwYzAsMC42LTAuNCwxLTEsMWwwLDAmIzEwOyYjOTsmIzk7JiM5O0MyNTkuOCwxMTAuOSwyNTkuMywxMTAuNSwyNTkuMywxMDkuOUwyNTkuMywxMDkuOXogTTI1OS4zLDEwMS45YzAtMC42LDAuNC0xLDEtMWwwLDBjMC42LDAsMSwwLjQsMSwxbDAsMGMwLDAuNi0wLjQsMS0xLDFsMCwwJiMxMDsmIzk7JiM5OyYjOTtDMjU5LjgsMTAyLjksMjU5LjMsMTAyLjUsMjU5LjMsMTAxLjlMMjU5LjMsMTAxLjl6IE0yNTkuMyw5My45YzAtMC42LDAuNC0xLDEtMWwwLDBjMC42LDAsMSwwLjQsMSwxbDAsMGMwLDAuNi0wLjQsMS0xLDFsMCwwJiMxMDsmIzk7JiM5OyYjOTtDMjU5LjgsOTQuOSwyNTkuMyw5NC41LDI1OS4zLDkzLjlMMjU5LjMsOTMuOXogTTI1OS4zLDg1LjljMC0wLjYsMC40LTEsMS0xbDAsMGMwLjYsMCwxLDAuNCwxLDFsMCwwYzAsMC42LTAuNCwxLTEsMWwwLDAmIzEwOyYjOTsmIzk7JiM5O0MyNTkuOCw4Ni45LDI1OS4zLDg2LjUsMjU5LjMsODUuOUwyNTkuMyw4NS45eiBNMjU5LjMsNzcuOWMwLTAuNiwwLjQtMSwxLTFsMCwwYzAuNiwwLDEsMC40LDEsMWwwLDBjMCwwLjYtMC40LDEtMSwxbDAsMCYjMTA7JiM5OyYjOTsmIzk7QzI1OS44LDc4LjksMjU5LjMsNzguNSwyNTkuMyw3Ny45TDI1OS4zLDc3Ljl6IE0yNTkuMyw2OS45YzAtMC42LDAuNC0xLDEtMWwwLDBjMC42LDAsMSwwLjQsMSwxbDAsMGMwLDAuNi0wLjQsMS0xLDFsMCwwJiMxMDsmIzk7JiM5OyYjOTtDMjU5LjgsNzAuOSwyNTkuMyw3MC41LDI1OS4zLDY5LjlMMjU5LjMsNjkuOXogTTI1OS4zLDYxLjljMC0wLjYsMC40LTEsMS0xbDAsMGMwLjYsMCwxLDAuNCwxLDFsMCwwYzAsMC42LTAuNCwxLTEsMWwwLDAmIzEwOyYjOTsmIzk7JiM5O0MyNTkuOCw2Mi45LDI1OS4zLDYyLjUsMjU5LjMsNjEuOUwyNTkuMyw2MS45eiBNMjU5LjMsNTMuOWMwLTAuNiwwLjQtMSwxLTFsMCwwYzAuNiwwLDEsMC40LDEsMWwwLDBjMCwwLjYtMC40LDEtMSwxbDAsMCYjMTA7JiM5OyYjOTsmIzk7QzI1OS44LDU0LjksMjU5LjMsNTQuNSwyNTkuMyw1My45TDI1OS4zLDUzLjl6IE0yNTkuMyw0NS45YzAtMC42LDAuNC0xLDEtMWwwLDBjMC42LDAsMSwwLjQsMSwxbDAsMGMwLDAuNi0wLjQsMS0xLDFsMCwwJiMxMDsmIzk7JiM5OyYjOTtDMjU5LjgsNDYuOSwyNTkuMyw0Ni41LDI1OS4zLDQ1LjlMMjU5LjMsNDUuOXogTTI1OS4zLDM3LjljMC0wLjYsMC40LTEsMS0xbDAsMGMwLjYsMCwxLDAuNCwxLDFsMCwwYzAsMC42LTAuNCwxLTEsMWwwLDAmIzEwOyYjOTsmIzk7JiM5O0MyNTkuOCwzOC45LDI1OS4zLDM4LjUsMjU5LjMsMzcuOUwyNTkuMywzNy45eiBNMjU5LjMsMjkuOWMwLTAuNiwwLjQtMSwxLTFsMCwwYzAuNiwwLDEsMC40LDEsMWwwLDBjMCwwLjYtMC40LDEtMSwxbDAsMCYjMTA7JiM5OyYjOTsmIzk7QzI1OS44LDMwLjksMjU5LjMsMzAuNSwyNTkuMywyOS45TDI1OS4zLDI5Ljl6Ii8+JiN4YTsJCTxwb2x5Z29uIGNsYXNzPSJzdDIiIHBvaW50cz0iMjU0LjQsMzEuNyAyNjAuMywyMS4zIDI2Ni4zLDMxLjcgJiM5OyYjOTsiLz4mI3hhOwkJPGc+JiN4YTsJCQk8cGF0aCBjbGFzcz0ic3QyIiBkPSJNODguMSwyMDEuNGgtMS4ybC0zLjMtNC40bC0xLDAuOXYzLjZoLTF2LTkuMWgxLjF2NC41bDQuMS00LjVoMS4zbC0zLjcsNEw4OC4xLDIwMS40eiIvPiYjeGE7CQkJPHBhdGggY2xhc3M9InN0MiIgZD0iTTg5LjEsMTkyLjdjMC0wLjIsMC4xLTAuNCwwLjItMC41YzAuMS0wLjEsMC4zLTAuMiwwLjQtMC4yYzAuMiwwLDAuMywwLjEsMC40LDAuMmMwLjEsMC4xLDAuMiwwLjMsMC4yLDAuNSYjMTA7JiM5OyYjOTsmIzk7JiM5O2MwLDAuMiwwLDAuNC0wLjIsMC41Yy0wLjIsMC4yLTAuNiwwLjItMC45LDBDODkuMSwxOTMsODkuMSwxOTIuOSw4OS4xLDE5Mi43eiBNOTAuMiwyMDEuNGgtMXYtNi44aDFWMjAxLjR6Ii8+JiN4YTsJCQk8cGF0aCBjbGFzcz0ic3QyIiBkPSJNOTUuNiwxOTQuNGMwLjgsMCwxLjYsMC4zLDIuMSwwLjljMSwxLjYsMSwzLjYsMCw1LjJjLTAuNSwwLjYtMS4zLDEtMi4xLDAuOWMtMC40LDAtMC44LTAuMS0xLjItMC4yJiMxMDsmIzk7JiM5OyYjOTsmIzk7Yy0wLjQtMC4yLTAuNy0wLjQtMC45LTAuOGgtMC4xbC0wLjIsMC45aC0wLjd2LTkuN2gxdjIuNGMwLDAuNSwwLDEsMCwxLjRsMCwwQzkzLjksMTk0LjcsOTQuNywxOTQuMyw5NS42LDE5NC40eiBNOTUuNCwxOTUuMyYjMTA7JiM5OyYjOTsmIzk7JiM5O2MtMC42LTAuMS0xLjEsMC4yLTEuNSwwLjZjLTAuNiwxLjMtMC42LDIuOCwwLDQuMWMwLjQsMC40LDEsMC43LDEuNSwwLjZjMC42LDAsMS4xLTAuMiwxLjQtMC43YzAuMy0wLjYsMC41LTEuMywwLjUtMiYjMTA7JiM5OyYjOTsmIzk7JiM5O2MwLjEtMC43LTAuMS0xLjQtMC41LTJDOTYuNSwxOTUuNSw5NiwxOTUuMiw5NS40LDE5NS4zeiIvPiYjeGE7CQkJPHBhdGggY2xhc3M9InN0MiIgZD0iTTEwNC40LDIwMS40bC0wLjItMWwwLDBjLTAuMywwLjQtMC42LDAuNy0xLDAuOWMtMC40LDAuMi0wLjgsMC4yLTEuMywwLjJjLTAuNiwwLTEuMi0wLjItMS42LTAuNSYjMTA7JiM5OyYjOTsmIzk7JiM5O2MtMC40LTAuNC0wLjYtMC45LTAuNi0xLjVjMC0xLjQsMS4xLTIuMSwzLjMtMi4yaDEuMnYtMC40YzAtMC40LTAuMS0wLjgtMC4zLTEuMmMtMC4zLTAuMy0wLjctMC40LTEuMS0wLjQmIzEwOyYjOTsmIzk7JiM5OyYjOTtjLTAuNywwLTEuMywwLjItMS45LDAuNWwtMC4zLTAuOGMwLjQtMC4yLDAuNy0wLjMsMS4xLTAuNGMwLjQtMC4xLDAuOC0wLjIsMS4yLTAuMmMwLjYtMC4xLDEuMywwLjEsMS44LDAuNSYjMTA7JiM5OyYjOTsmIzk7JiM5O2MwLjQsMC41LDAuNiwxLjEsMC42LDEuN3Y0LjdMMTA0LjQsMjAxLjR6IE0xMDIuMSwyMDAuNmMwLjYsMCwxLjEtMC4yLDEuNS0wLjVjMC40LTAuNCwwLjYtMC45LDAuNi0xLjVWMTk4aC0xJiMxMDsmIzk7JiM5OyYjOTsmIzk7Yy0wLjYsMC0xLjIsMC4xLTEuOCwwLjRjLTAuNCwwLjItMC42LDAuNi0wLjYsMS4xYzAsMC4zLDAuMSwwLjYsMC4zLDAuOUMxMDEuNCwyMDAuNSwxMDEuOCwyMDAuNiwxMDIuMSwyMDAuNnoiLz4mI3hhOwkJCTxwYXRoIGNsYXNzPSJzdDIiIGQ9Ik0xMTIsMjAxLjR2LTQuNGMwLTAuNC0wLjEtMC45LTAuNC0xLjJjLTAuMy0wLjMtMC44LTAuNC0xLjItMC40Yy0wLjYsMC0xLjIsMC4yLTEuNiwwLjYmIzEwOyYjOTsmIzk7JiM5OyYjOTtjLTAuNCwwLjYtMC42LDEuMi0wLjUsMS45djMuNmgtMXYtNi44aDAuOGwwLjIsMC45bDAsMGMwLjItMC4zLDAuNS0wLjYsMC45LTAuOGMwLjQtMC4yLDAuOC0wLjMsMS4zLTAuM2MwLjcsMCwxLjMsMC4yLDEuOSwwLjYmIzEwOyYjOTsmIzk7JiM5OyYjOTtjMC41LDAuNSwwLjcsMS4yLDAuNiwxLjl2NC41TDExMiwyMDEuNHoiLz4mI3hhOwkJCTxwYXRoIGNsYXNzPSJzdDIiIGQ9Ik0xMTkuNCwyMDEuNGwtMC4yLTFsMCwwYy0wLjMsMC40LTAuNiwwLjctMSwwLjljLTAuNCwwLjItMC44LDAuMi0xLjMsMC4yYy0wLjYsMC0xLjItMC4yLTEuNi0wLjUmIzEwOyYjOTsmIzk7JiM5OyYjOTtjLTAuNC0wLjQtMC42LTAuOS0wLjYtMS41YzAtMS40LDEuMS0yLjEsMy4zLTIuMmgxLjJ2LTAuNGMwLTAuNC0wLjEtMC44LTAuMy0xLjJjLTAuMy0wLjMtMC43LTAuNC0xLjEtMC40JiMxMDsmIzk7JiM5OyYjOTsmIzk7Yy0wLjcsMC0xLjMsMC4yLTEuOSwwLjVsLTAuMy0wLjhjMC40LTAuMiwwLjctMC4zLDEuMS0wLjRjMC40LTAuMSwwLjgtMC4yLDEuMi0wLjJjMC42LTAuMSwxLjMsMC4xLDEuOCwwLjUmIzEwOyYjOTsmIzk7JiM5OyYjOTtjMC40LDAuNSwwLjYsMS4xLDAuNiwxLjd2NC43TDExOS40LDIwMS40eiBNMTE3LjEsMjAwLjZjMC42LDAsMS4xLTAuMiwxLjUtMC41YzAuNC0wLjQsMC42LTAuOSwwLjYtMS41VjE5OGgtMSYjMTA7JiM5OyYjOTsmIzk7JiM5O2MtMC42LDAtMS4yLDAuMS0xLjgsMC40Yy0wLjQsMC4yLTAuNiwwLjYtMC42LDEuMWMwLDAuMywwLjEsMC42LDAuMywwLjlDMTE2LjQsMjAwLjUsMTE2LjcsMjAwLjYsMTE3LjEsMjAwLjZMMTE3LjEsMjAwLjZ6Ii8+JiN4YTsJCTwvZz4mI3hhOwkJPGc+JiN4YTsJCQk8cGF0aCBjbGFzcz0ic3QyIiBkPSJNODEuNSwzNjAuNUg4NGMwLjktMC4xLDEuOCwwLjEsMi42LDAuNWMwLjYsMC40LDAuOSwxLDAuOCwxLjdjMCwwLjUtMC4xLDEtMC40LDEuMyYjMTA7JiM5OyYjOTsmIzk7JiM5O2MtMC4zLDAuNC0wLjgsMC42LTEuMywwLjd2MC4xYzEuNCwwLjIsMi4xLDEsMi4xLDIuMmMwLDAuNy0wLjMsMS40LTAuOCwxLjljLTAuNywwLjUtMS41LDAuNy0yLjMsMC43aC0zLjJWMzYwLjV6IE04Mi41LDM2NC40JiMxMDsmIzk7JiM5OyYjOTsmIzk7aDEuOGMwLjYsMCwxLjEtMC4xLDEuNi0wLjRjMC40LTAuMywwLjUtMC43LDAuNS0xLjJjMC0wLjQtMC4yLTAuOS0wLjYtMS4xYy0wLjUtMC4zLTEuMS0wLjQtMS44LTAuM2gtMS41TDgyLjUsMzY0LjR6JiMxMDsmIzk7JiM5OyYjOTsmIzk7IE04Mi41LDM2NS4zdjMuNGgxLjljMC42LDAsMS4yLTAuMSwxLjctMC40YzAuNC0wLjMsMC42LTAuOCwwLjYtMS4zYzAtMC41LTAuMi0xLTAuNi0xLjJjLTAuNS0wLjMtMS4xLTAuNC0xLjctMC40TDgyLjUsMzY1LjN6Ii8+JiN4YTsJCQk8cGF0aCBjbGFzcz0ic3QyIiBkPSJNOTIuNSwzNjkuN2MtMC45LDAtMS44LTAuMy0yLjQtMC45Yy0wLjYtMC43LTAuOS0xLjYtMC45LTIuNmMtMC4xLTAuOSwwLjItMS45LDAuOC0yLjZjMC41LTAuNywxLjMtMSwyLjItMSYjMTA7JiM5OyYjOTsmIzk7JiM5O2MwLjgsMCwxLjUsMC4zLDIsMC45YzAuNSwwLjYsMC44LDEuNCwwLjgsMi4ydjAuN2gtNC43YzAsMC43LDAuMiwxLjMsMC42LDEuOGMwLjQsMC40LDEsMC43LDEuNiwwLjZjMC44LDAsMS41LTAuMiwyLjItMC41djAuOSYjMTA7JiM5OyYjOTsmIzk7JiM5O2MtMC4zLDAuMS0wLjcsMC4zLTEsMC4zQzkzLjMsMzY5LjcsOTIuOSwzNjkuOCw5Mi41LDM2OS43eiBNOTIuMiwzNjMuNWMtMC41LDAtMSwwLjItMS4zLDAuNWMtMC40LDAuNC0wLjYsMC45LTAuNiwxLjVoMy42JiMxMDsmIzk7JiM5OyYjOTsmIzk7YzAtMC41LTAuMS0xLjEtMC40LTEuNUM5My4xLDM2My43LDkyLjcsMzYzLjUsOTIuMiwzNjMuNUw5Mi4yLDM2My41eiIvPiYjeGE7CQkJPHBhdGggY2xhc3M9InN0MiIgZD0iTTEwMSwzNjkuNmwtMC4yLTFsMCwwYy0wLjMsMC40LTAuNiwwLjctMSwwLjljLTAuNCwwLjItMC44LDAuMi0xLjMsMC4yYy0wLjYsMC0xLjItMC4yLTEuNi0wLjUmIzEwOyYjOTsmIzk7JiM5OyYjOTtjLTAuNC0wLjQtMC42LTAuOS0wLjYtMS41YzAtMS40LDEuMS0yLjEsMy4zLTIuMmgxLjJ2LTAuNGMwLTAuNC0wLjEtMC45LTAuMy0xLjJjLTAuMy0wLjMtMC43LTAuNC0xLjEtMC40JiMxMDsmIzk7JiM5OyYjOTsmIzk7Yy0wLjcsMC0xLjMsMC4yLTEuOSwwLjVsLTAuMy0wLjhjMC40LTAuMiwwLjctMC4zLDEuMS0wLjRjMC40LTAuMSwwLjgtMC4yLDEuMi0wLjJjMC42LTAuMSwxLjMsMC4xLDEuOCwwLjUmIzEwOyYjOTsmIzk7JiM5OyYjOTtjMC40LDAuNSwwLjYsMS4xLDAuNiwxLjd2NC43TDEwMSwzNjkuNnogTTk4LjcsMzY4LjljMC42LDAsMS4xLTAuMiwxLjUtMC41YzAuNC0wLjQsMC42LTAuOSwwLjYtMS41di0wLjZoLTEmIzEwOyYjOTsmIzk7JiM5OyYjOTtjLTAuNiwwLTEuMiwwLjEtMS44LDAuNGMtMC40LDAuMi0wLjYsMC42LTAuNiwxLjFjMCwwLjMsMC4xLDAuNiwwLjMsMC45Qzk4LDM2OC44LDk4LjMsMzY4LjksOTguNywzNjguOUw5OC43LDM2OC45eiIvPiYjeGE7CQkJPHBhdGggY2xhc3M9InN0MiIgZD0iTTEwNi4xLDM2OC45YzAuMiwwLDAuNCwwLDAuNSwwbDAuNC0wLjJ2MC44Yy0wLjIsMC4xLTAuMywwLjEtMC41LDAuMWMtMC4yLDAtMC40LDAtMC42LDAmIzEwOyYjOTsmIzk7JiM5OyYjOTtjLTEuMywwLTItMC43LTItMi4xdi00LjFoLTF2LTAuNWwxLTAuNGwwLjQtMS41aDAuNnYxLjZoMnYwLjhoLTJ2NGMwLDAuNCwwLjEsMC43LDAuMywxQzEwNS41LDM2OC44LDEwNS44LDM2OSwxMDYuMSwzNjguOXoiLz4mI3hhOwkJCTxwYXRoIGNsYXNzPSJzdDIiIGQ9Ik0xMTIuOCwzNjcuN2MwLDAuNi0wLjIsMS4xLTAuNywxLjVjLTAuNiwwLjQtMS4zLDAuNi0yLDAuNWMtMC43LDAtMS41LTAuMS0yLjEtMC40di0xJiMxMDsmIzk7JiM5OyYjOTsmIzk7YzAuMywwLjIsMC43LDAuMywxLjEsMC40YzAuNCwwLjEsMC43LDAuMSwxLjEsMC4xYzAuNCwwLDAuOS0wLjEsMS4yLTAuM2MwLjQtMC4zLDAuNi0wLjgsMC4zLTEuMmMtMC4xLTAuMS0wLjEtMC4yLTAuMi0wLjMmIzEwOyYjOTsmIzk7JiM5OyYjOTtjLTAuNC0wLjMtMC45LTAuNS0xLjMtMC43Yy0wLjUtMC4yLTAuOS0wLjQtMS40LTAuNmMtMC4yLTAuMi0wLjQtMC40LTAuNi0wLjZjLTAuMS0wLjItMC4yLTAuNS0wLjItMC44YzAtMC41LDAuMi0xLDAuNy0xLjMmIzEwOyYjOTsmIzk7JiM5OyYjOTtjMC42LTAuMywxLjItMC41LDEuOS0wLjVjMC43LDAsMS41LDAuMiwyLjIsMC41bC0wLjQsMC44Yy0wLjYtMC4zLTEuMi0wLjQtMS45LTAuNGMtMC40LDAtMC44LDAuMS0xLjEsMC4yJiMxMDsmIzk7JiM5OyYjOTsmIzk7Yy0wLjIsMC4xLTAuNCwwLjQtMC40LDAuNmMwLDAuMiwwLDAuMywwLjEsMC41YzAuMSwwLjIsMC4zLDAuMywwLjQsMC40YzAuNCwwLjIsMC44LDAuNCwxLjIsMC41YzAuNiwwLjIsMS4yLDAuNSwxLjcsMC45JiMxMDsmIzk7JiM5OyYjOTsmIzk7QzExMi43LDM2Ni45LDExMi45LDM2Ny4zLDExMi44LDM2Ny43eiIvPiYjeGE7CQk8L2c+JiN4YTsJCTxyZWN0IHg9IjAiIHk9IjAiIGNsYXNzPSJzdDE4IiB3aWR0aD0iNTIwIiBoZWlnaHQ9IjUzMCIvPiYjeGE7CQk8Y2lyY2xlIGNsYXNzPSJzdDE5IiBjeD0iNDkuMSIgY3k9IjIwMS4yIiByPSIyMy42Ii8+JiN4YTsJCTxwYXRoIGNsYXNzPSJzdDEzIiBkPSJNNTcuNiwyMTMuM0g0MWw5LjctMTEuNkM1NC45LDIwNC40LDU3LjYsMjA4LjYsNTcuNiwyMTMuM3ogTTU3LjYsMTg5LjhIMzkuOVYyMTFMNTcuNiwxODkuOHoiLz4mI3hhOwkJPGNpcmNsZSBjbGFzcz0ic3QxOSIgY3g9IjQ5LjEiIGN5PSIyODMuMSIgcj0iMjMuNiIvPiYjeGE7CQk8Y2lyY2xlIGNsYXNzPSJzdDE5IiBjeD0iNDkuMSIgY3k9IjM2NSIgcj0iMjMuNiIvPiYjeGE7CQk8Y2lyY2xlIGNsYXNzPSJzdDE5IiBjeD0iMTY5LjUiIGN5PSI0NDEuMSIgcj0iMjMuNiIvPiYjeGE7CQk8cGF0aCBjbGFzcz0ic3QxMCIgZD0iTTQ3LjIsMjg2LjhoLTkuOWMtMC44LTIuNC0wLjgtNSwwLTcuNGgxNi4zYzIsMCwzLjcsMS43LDMuNywzLjdjMCwyLTEuNiwzLjctMy43LDMuN0g0Ny4yeiBNNDYuNywyODguMWgtOSYjMTA7JiM5OyYjOTsmIzk7YzEsMi4yLDIuNSw0LDQuNSw1LjNsMCwwYzUuNiwzLjcsMTMuMiwyLjIsMTctMy40Yy0xLjItMS4yLTIuOC0xLjktNC41LTEuOUw0Ni43LDI4OC4xeiBNNTQuNywyNzguMmMxLjcsMCwzLjMtMC43LDQuNS0xLjkmIzEwOyYjOTsmIzk7JiM5O2MtMy43LTUuNi0xMS4zLTcuMS0xNy0zLjRsMCwwYy0yLDEuMy0zLjUsMy4yLTQuNSw1LjNINTQuN3oiLz4mI3hhOwkJPHBhdGggY2xhc3M9InN0NCIgZD0iTTYwLjUsMzcwLjZMNjAuNSwzNzAuNmMwLDQtMy4yLDcuMy03LjMsNy4zSDQxLjJ2LTcuM2g4LjVjMy42LDAsNi45LTIuMSw4LjYtNS4zJiMxMDsmIzk7JiM5OyYjOTtDNTkuNywzNjYuNyw2MC41LDM2OC42LDYwLjUsMzcwLjZ6IE01Ni4yLDM2NGMwLjQtMSwwLjctMiwwLjctMy4xbDAsMGMwLTQtMy4yLTcuMy03LjMtNy4zaC04LjV2MTQuNWg4LjUmIzEwOyYjOTsmIzk7JiM5O0M1Mi41LDM2OC4yLDU1LDM2Ni42LDU2LjIsMzY0eiIvPiYjeGE7CQk8cGF0aCBjbGFzcz0ic3Q2IiBkPSJNMTcwLDQzNy4zdjE1LjljLTUsMC0xMC4yLTMuOS0xMC4yLTguOHYtMTRoMy40QzE2Ni45LDQzMC42LDE2OS45LDQzMy42LDE3MCw0MzcuM3ogTTE3Mi4zLDQ0M3YxMC4yaDYuOFY0NDMmIzEwOyYjOTsmIzk7JiM5O0wxNzIuMyw0NDN6Ii8+JiN4YTsJCTxnPiYjeGE7CQkJPHBhdGggY2xhc3M9InN0MiIgZD0iTTg2LjYsMjg3LjdoLTUuMXYtOS4xaDUuMXYwLjloLTR2Mi45aDMuOHYwLjloLTMuOHYzLjRoNEw4Ni42LDI4Ny43eiIvPiYjeGE7CQkJPHBhdGggY2xhc3M9InN0MiIgZD0iTTg5LjUsMjg3LjdoLTFWMjc4aDFWMjg3Ljd6Ii8+JiN4YTsJCQk8cGF0aCBjbGFzcz0ic3QyIiBkPSJNOTUuOSwyODcuN2wtMC4yLTFsMCwwYy0wLjMsMC40LTAuNiwwLjctMSwwLjljLTAuNCwwLjItMC44LDAuMi0xLjMsMC4yYy0wLjYsMC0xLjItMC4xLTEuNi0wLjUmIzEwOyYjOTsmIzk7JiM5OyYjOTtjLTAuNC0wLjQtMC42LTAuOS0wLjYtMS41YzAtMS40LDEuMS0yLjEsMy4zLTIuMmgxLjJ2LTAuNGMwLTAuNC0wLjEtMC45LTAuMy0xLjJjLTAuMy0wLjMtMC43LTAuNC0xLjEtMC40JiMxMDsmIzk7JiM5OyYjOTsmIzk7Yy0wLjcsMC0xLjMsMC4yLTEuOSwwLjVsLTAuMy0wLjhjMC43LTAuNCwxLjUtMC42LDIuMy0wLjZjMC42LTAuMSwxLjMsMC4xLDEuOCwwLjVjMC40LDAuNSwwLjYsMS4xLDAuNiwxLjd2NC43TDk1LjksMjg3Ljd6JiMxMDsmIzk7JiM5OyYjOTsmIzk7IE05My41LDI4N2MwLjYsMCwxLjEtMC4yLDEuNS0wLjVjMC40LTAuNCwwLjYtMC45LDAuNi0xLjV2LTAuNmgtMWMtMC42LDAtMS4yLDAuMS0xLjgsMC40Yy0wLjQsMC4yLTAuNiwwLjYtMC42LDEuMSYjMTA7JiM5OyYjOTsmIzk7JiM5O2MwLDAuMywwLjEsMC42LDAuMywwLjlDOTIuOSwyODYuOSw5My4yLDI4Nyw5My41LDI4N3oiLz4mI3hhOwkJCTxwYXRoIGNsYXNzPSJzdDIiIGQ9Ik0xMDMuMiwyODUuOWMwLDAuNi0wLjIsMS4xLTAuNywxLjVjLTAuNiwwLjQtMS4zLDAuNi0yLDAuNWMtMC43LDAtMS41LTAuMS0yLjEtMC40di0xJiMxMDsmIzk7JiM5OyYjOTsmIzk7YzAuMywwLjIsMC43LDAuMywxLjEsMC40YzAuNCwwLjEsMC43LDAuMSwxLjEsMC4xYzAuNCwwLDAuOS0wLjEsMS4yLTAuM2MwLjQtMC4zLDAuNi0wLjgsMC4zLTEuMmMtMC4xLTAuMS0wLjEtMC4yLTAuMi0wLjMmIzEwOyYjOTsmIzk7JiM5OyYjOTtjLTAuNC0wLjMtMC45LTAuNS0xLjMtMC43Yy0wLjUtMC4yLTAuOS0wLjQtMS40LTAuNmMtMC4yLTAuMi0wLjQtMC40LTAuNi0wLjZjLTAuMS0wLjItMC4yLTAuNS0wLjItMC44YzAtMC41LDAuMi0xLDAuNy0xLjMmIzEwOyYjOTsmIzk7JiM5OyYjOTtjMC42LTAuNCwxLjItMC41LDEuOS0wLjVjMC43LDAsMS41LDAuMiwyLjIsMC41bC0wLjQsMC44Yy0wLjYtMC4zLTEuMi0wLjQtMS45LTAuNGMtMC40LDAtMC44LDAuMS0xLjEsMC4yJiMxMDsmIzk7JiM5OyYjOTsmIzk7Yy0wLjIsMC4xLTAuNCwwLjQtMC40LDAuNmMwLDAuMiwwLDAuMywwLjEsMC41YzAuMSwwLjIsMC4zLDAuMywwLjQsMC40YzAuNCwwLjIsMC44LDAuNCwxLjIsMC41YzAuNiwwLjIsMS4yLDAuNSwxLjYsMC45JiMxMDsmIzk7JiM5OyYjOTsmIzk7QzEwMy4xLDI4NSwxMDMuMiwyODUuNCwxMDMuMiwyODUuOXoiLz4mI3hhOwkJCTxwYXRoIGNsYXNzPSJzdDIiIGQ9Ik0xMDcuMSwyODdjMC4yLDAsMC40LDAsMC41LDBsMC40LTAuMXYwLjhjLTAuMiwwLjEtMC4zLDAuMS0wLjUsMC4xYy0wLjIsMC0wLjQsMC0wLjYsMGMtMS4zLDAtMi0wLjctMi0yLjEmIzEwOyYjOTsmIzk7JiM5OyYjOTt2LTQuMWgtMXYtMC41bDEtMC40bDAuNC0xLjVoMC42djEuNmgydjAuOGgtMnY0YzAsMC4zLDAuMSwwLjcsMC4zLDFDMTA2LjUsMjg2LjksMTA2LjgsMjg3LDEwNy4xLDI4N3oiLz4mI3hhOwkJCTxwYXRoIGNsYXNzPSJzdDIiIGQ9Ik0xMDkuMywyNzljMC0wLjIsMC0wLjQsMC4yLTAuNWMwLjItMC4yLDAuNi0wLjIsMC45LDBjMC4xLDAuMSwwLjIsMC4zLDAuMiwwLjVjMCwwLjIsMCwwLjQtMC4yLDAuNSYjMTA7JiM5OyYjOTsmIzk7JiM5O2MtMC4xLDAuMS0wLjMsMC4yLTAuNCwwLjJjLTAuMiwwLTAuMy0wLjEtMC40LTAuMkMxMDkuNCwyNzkuNCwxMDkuMywyNzkuMiwxMDkuMywyNzl6IE0xMTAuNCwyODcuN2gtMXYtNi44aDFWMjg3Ljd6Ii8+JiN4YTsJCQk8cGF0aCBjbGFzcz0ic3QyIiBkPSJNMTE1LjQsMjg3LjljLTAuOSwwLTEuNy0wLjMtMi4zLTAuOWMtMC42LTAuNy0wLjktMS43LTAuOC0yLjZjLTAuMS0xLDAuMi0xLjksMC44LTIuNiYjMTA7JiM5OyYjOTsmIzk7JiM5O2MwLjYtMC42LDEuNS0xLDIuNC0wLjljMC4zLDAsMC43LDAsMSwwLjFjMC4zLDAuMSwwLjUsMC4xLDAuOCwwLjJsLTAuMywwLjljLTAuMi0wLjEtMC41LTAuMi0wLjgtMC4yYy0wLjItMC4xLTAuNS0wLjEtMC43LTAuMSYjMTA7JiM5OyYjOTsmIzk7JiM5O2MtMS40LDAtMi4xLDAuOS0yLjEsMi43YzAsMC43LDAuMSwxLjQsMC41LDEuOWMwLjQsMC41LDAuOSwwLjcsMS41LDAuN2MwLjYsMCwxLjItMC4xLDEuOC0wLjR2MC45JiMxMDsmIzk7JiM5OyYjOTsmIzk7QzExNi42LDI4Ny44LDExNiwyODcuOSwxMTUuNCwyODcuOXoiLz4mI3hhOwkJCTxwYXRoIGNsYXNzPSJzdDIiIGQ9Ik0xMjMuMSwyODUuOWMwLDAuNi0wLjIsMS4xLTAuNywxLjVjLTAuNiwwLjQtMS4zLDAuNi0yLDAuNWMtMC43LDAtMS41LTAuMS0yLjEtMC40di0xJiMxMDsmIzk7JiM5OyYjOTsmIzk7YzAuMywwLjIsMC43LDAuMywxLjEsMC40YzAuNCwwLjEsMC43LDAuMSwxLjEsMC4xYzAuNCwwLDAuOS0wLjEsMS4yLTAuM2MwLjQtMC4zLDAuNi0wLjgsMC4zLTEuMmMtMC4xLTAuMS0wLjEtMC4yLTAuMi0wLjMmIzEwOyYjOTsmIzk7JiM5OyYjOTtjLTAuNC0wLjMtMC45LTAuNS0xLjMtMC43Yy0wLjUtMC4yLTAuOS0wLjQtMS40LTAuNmMtMC4yLTAuMi0wLjQtMC40LTAuNi0wLjZjLTAuMS0wLjItMC4yLTAuNS0wLjItMC44YzAtMC41LDAuMi0xLDAuNy0xLjMmIzEwOyYjOTsmIzk7JiM5OyYjOTtjMC42LTAuNCwxLjItMC41LDEuOS0wLjVjMC43LDAsMS41LDAuMiwyLjIsMC41bC0wLjQsMC44Yy0wLjYtMC4zLTEuMi0wLjQtMS45LTAuNGMtMC40LDAtMC44LDAuMS0xLjEsMC4yJiMxMDsmIzk7JiM5OyYjOTsmIzk7Yy0wLjIsMC4xLTAuNCwwLjQtMC40LDAuNmMwLDAuMiwwLDAuMywwLjEsMC41YzAuMSwwLjIsMC4zLDAuMywwLjQsMC40YzAuNCwwLjIsMC44LDAuNCwxLjIsMC41YzAuNiwwLjIsMS4yLDAuNSwxLjcsMC45JiMxMDsmIzk7JiM5OyYjOTsmIzk7QzEyMywyODUsMTIzLjIsMjg1LjQsMTIzLjEsMjg1Ljl6Ii8+JiN4YTsJCQk8cGF0aCBjbGFzcz0ic3QyIiBkPSJNMTI3LjcsMjg3LjljLTAuOSwwLTEuOC0wLjMtMi40LTAuOWMtMC42LTAuNy0wLjktMS42LTAuOS0yLjZjMC0wLjksMC4yLTEuOSwwLjgtMi42YzAuNS0wLjcsMS4zLTEsMi4yLTEmIzEwOyYjOTsmIzk7JiM5OyYjOTtjMC44LDAsMS41LDAuMywyLDAuOWMwLjUsMC42LDAuOCwxLjQsMC44LDIuMnYwLjdoLTQuN2MwLDAuNywwLjIsMS4zLDAuNiwxLjhjMC40LDAuNCwxLDAuNywxLjYsMC42YzAuOCwwLDEuNS0wLjIsMi4yLTAuNXYwLjkmIzEwOyYjOTsmIzk7JiM5OyYjOTtjLTAuMywwLjEtMC43LDAuMy0xLDAuM0MxMjguNSwyODcuOCwxMjguMSwyODcuOSwxMjcuNywyODcuOXogTTEyNy40LDI4MS42Yy0wLjUsMC0xLDAuMi0xLjMsMC41Yy0wLjQsMC40LTAuNiwwLjktMC42LDEuNWgzLjYmIzEwOyYjOTsmIzk7JiM5OyYjOTtjMC0wLjUtMC4xLTEuMS0wLjQtMS41QzEyOC40LDI4MS44LDEyNy45LDI4MS42LDEyNy40LDI4MS42eiIvPiYjeGE7CQkJPHBhdGggY2xhc3M9InN0MiIgZD0iTTEzNi4yLDI4Ny43bC0wLjItMWwwLDBjLTAuMywwLjQtMC42LDAuNy0xLDAuOWMtMC40LDAuMi0wLjgsMC4yLTEuMywwLjJjLTAuNiwwLTEuMi0wLjEtMS42LTAuNSYjMTA7JiM5OyYjOTsmIzk7JiM5O2MtMC40LTAuNC0wLjYtMC45LTAuNi0xLjVjMC0xLjQsMS4xLTIuMSwzLjMtMi4yaDEuMnYtMC40YzAtMC40LTAuMS0wLjgtMC40LTEuMmMtMC4zLTAuMy0wLjctMC40LTEuMS0wLjQmIzEwOyYjOTsmIzk7JiM5OyYjOTtjLTAuNywwLTEuMywwLjItMS45LDAuNWwtMC4zLTAuOGMwLjctMC40LDEuNS0wLjYsMi4zLTAuNmMwLjYtMC4xLDEuMywwLjEsMS44LDAuNWMwLjQsMC41LDAuNiwxLjEsMC42LDEuN3Y0LjdMMTM2LjIsMjg3Ljd6JiMxMDsmIzk7JiM5OyYjOTsmIzk7IE0xMzMuOSwyODdjMC42LDAsMS4xLTAuMiwxLjUtMC41YzAuNC0wLjQsMC42LTAuOSwwLjYtMS41di0wLjZoLTFjLTAuNiwwLTEuMiwwLjEtMS44LDAuNGMtMC40LDAuMi0wLjYsMC42LTAuNiwxLjEmIzEwOyYjOTsmIzk7JiM5OyYjOTtjMCwwLjMsMC4xLDAuNiwwLjMsMC45QzEzMy4yLDI4Ni45LDEzMy41LDI4NywxMzMuOSwyODdMMTMzLjksMjg3eiIvPiYjeGE7CQkJPHBhdGggY2xhc3M9InN0MiIgZD0iTTE0Mi4yLDI4MC44YzAuMywwLDAuNSwwLDAuOCwwLjFsLTAuMSwxYy0wLjItMC4xLTAuNS0wLjEtMC44LTAuMWMtMC41LDAtMS4xLDAuMi0xLjQsMC43JiMxMDsmIzk7JiM5OyYjOTsmIzk7Yy0wLjQsMC41LTAuNiwxLjEtMC42LDEuN3YzLjdoLTF2LTYuOGgwLjhsMC4xLDEuM2wwLDBjMC4yLTAuNCwwLjUtMC43LDAuOS0xQzE0MS40LDI4MC45LDE0MS44LDI4MC44LDE0Mi4yLDI4MC44eiIvPiYjeGE7CQkJPHBhdGggY2xhc3M9InN0MiIgZD0iTTE0Ny4xLDI4Ny45Yy0wLjksMC0xLjctMC4zLTIuMy0wLjljLTAuNi0wLjctMC45LTEuNy0wLjgtMi42Yy0wLjEtMSwwLjItMS45LDAuOC0yLjYmIzEwOyYjOTsmIzk7JiM5OyYjOTtjMC42LTAuNiwxLjUtMSwyLjQtMC45YzAuMywwLDAuNywwLDEsMC4xYzAuMywwLjEsMC41LDAuMSwwLjgsMC4ybC0wLjMsMC45Yy0wLjItMC4xLTAuNS0wLjItMC44LTAuMmMtMC4yLTAuMS0wLjUtMC4xLTAuNy0wLjEmIzEwOyYjOTsmIzk7JiM5OyYjOTtjLTEuNCwwLTIuMSwwLjktMi4xLDIuN2MwLDAuNywwLjEsMS40LDAuNSwxLjljMC4zLDAuNSwwLjksMC43LDEuNSwwLjdjMC42LDAsMS4yLTAuMSwxLjgtMC40djAuOSYjMTA7JiM5OyYjOTsmIzk7JiM5O0MxNDguMiwyODcuOCwxNDcuNiwyODcuOSwxNDcuMSwyODcuOXoiLz4mI3hhOwkJCTxwYXRoIGNsYXNzPSJzdDIiIGQ9Ik0xNTUuMSwyODcuN3YtNC40YzAtMC40LTAuMS0wLjktMC40LTEuMmMtMC4zLTAuMy0wLjgtMC40LTEuMi0wLjRjLTAuNiwwLTEuMiwwLjItMS42LDAuNiYjMTA7JiM5OyYjOTsmIzk7JiM5O2MtMC40LDAuNi0wLjYsMS4yLTAuNSwxLjl2My42aC0xVjI3OGgxdjNjMCwwLjMsMCwwLjYsMCwwLjloMC4xYzAuMi0wLjMsMC41LTAuNiwwLjktMC44YzAuNC0wLjIsMC44LTAuMywxLjMtMC4zJiMxMDsmIzk7JiM5OyYjOTsmIzk7YzAuNy0wLjEsMS40LDAuMiwxLjksMC42YzAuNSwwLjUsMC43LDEuMiwwLjYsMS45djQuNUwxNTUuMSwyODcuN3oiLz4mI3hhOwkJPC9nPiYjeGE7CQk8Zz4mI3hhOwkJCTxwYXRoIGNsYXNzPSJzdDIiIGQ9Ik0yMTAuNSw0NDMuOXYtOS4xaDEuMXY4LjJoNHYxTDIxMC41LDQ0My45eiIvPiYjeGE7CQkJPHBhdGggY2xhc3M9InN0MiIgZD0iTTIyMi45LDQ0MC41YzAsMC45LTAuMywxLjktMC45LDIuNmMtMC42LDAuNi0xLjUsMS0yLjMsMC45Yy0wLjYsMC0xLjEtMC4xLTEuNi0wLjQmIzEwOyYjOTsmIzk7JiM5OyYjOTtjLTAuNS0wLjMtMC45LTAuNy0xLjEtMS4yYy0wLjMtMC42LTAuNC0xLjItMC40LTEuOWMtMC4xLTAuOSwwLjItMS45LDAuOC0yLjZjMC42LTAuNiwxLjQtMSwyLjMtMC45YzAuOSwwLDEuNywwLjMsMi4zLDEmIzEwOyYjOTsmIzk7JiM5OyYjOTtDMjIyLjYsNDM4LjcsMjIyLjksNDM5LjYsMjIyLjksNDQwLjV6IE0yMTcuNyw0NDAuNWMwLDAuNywwLjEsMS40LDAuNSwyYzAuOCwwLjksMi4xLDAuOSwyLjksMC4yYzAuMSwwLDAuMS0wLjEsMC4yLTAuMiYjMTA7JiM5OyYjOTsmIzk7JiM5O2MwLjQtMC42LDAuNi0xLjMsMC41LTJjMC4xLTAuNy0wLjEtMS40LTAuNS0yYy0wLjQtMC41LTEtMC43LTEuNi0wLjdjLTAuNiwwLTEuMiwwLjItMS41LDAuNyYjMTA7JiM5OyYjOTsmIzk7JiM5O0MyMTcuOCw0MzkuMSwyMTcuNiw0MzkuOCwyMTcuNyw0NDAuNUwyMTcuNyw0NDAuNXoiLz4mI3hhOwkJCTxwYXRoIGNsYXNzPSJzdDIiIGQ9Ik0yMzAuMyw0MzcuMXYwLjdsLTEuMywwLjJjMC4zLDAuNCwwLjUsMC45LDAuNCwxLjRjMCwwLjYtMC4yLDEuMi0wLjcsMS42Yy0wLjUsMC40LTEuMiwwLjYtMS45LDAuNiYjMTA7JiM5OyYjOTsmIzk7JiM5O2MtMC4yLDAtMC40LDAtMC42LDBjLTAuNCwwLjEtMC42LDAuNS0wLjcsMC45YzAsMC4yLDAuMSwwLjMsMC4yLDAuNGMwLjIsMC4xLDAuNSwwLjIsMC44LDAuMWgxLjJjMC42LDAsMS4yLDAuMSwxLjcsMC41JiMxMDsmIzk7JiM5OyYjOTsmIzk7YzAuNCwwLjMsMC42LDAuOCwwLjYsMS40YzAsMC43LTAuMywxLjQtMC45LDEuN2MtMC44LDAuNC0xLjcsMC43LTIuNywwLjZjLTAuNywwLTEuNC0wLjEtMi4xLTAuNWMtMC41LTAuMy0wLjctMC44LTAuNy0xLjQmIzEwOyYjOTsmIzk7JiM5OyYjOTtjMC0wLjQsMC4xLTAuOCwwLjQtMS4xYzAuMy0wLjMsMC43LTAuNSwxLjEtMC42Yy0wLjItMC4xLTAuMy0wLjItMC40LTAuNGMtMC4xLTAuMi0wLjItMC40LTAuMi0wLjZjMC0wLjIsMC4xLTAuNSwwLjItMC43JiMxMDsmIzk7JiM5OyYjOTsmIzk7YzAuMi0wLjIsMC40LTAuNCwwLjYtMC41Yy0wLjQtMC4xLTAuNy0wLjQtMC45LTAuN2MtMC4yLTAuNC0wLjMtMC44LTAuMy0xLjJjMC0wLjYsMC4yLTEuMywwLjctMS43YzAuNS0wLjQsMS4yLTAuNywxLjktMC42JiMxMDsmIzk7JiM5OyYjOTsmIzk7YzAuMywwLDAuNywwLDEsMC4xTDIzMC4zLDQzNy4xeiBNMjI0LjksNDQ1LjFjMCwwLjMsMC4yLDAuNywwLjUsMC44YzAuNCwwLjIsMC45LDAuMywxLjMsMC4zYzAuNywwLDEuMy0wLjEsMS45LTAuNCYjMTA7JiM5OyYjOTsmIzk7JiM5O2MwLjQtMC4yLDAuNi0wLjYsMC42LTEuMWMwLTAuMy0wLjEtMC42LTAuMy0wLjhjLTAuNC0wLjItMC44LTAuMy0xLjMtMC4yaC0xLjJjLTAuNCwwLTAuOCwwLjEtMS4xLDAuMyYjMTA7JiM5OyYjOTsmIzk7JiM5O0MyMjUsNDQ0LjMsMjI0LjksNDQ0LjcsMjI0LjksNDQ1LjF6IE0yMjUuNCw0MzkuM2MwLDAuNCwwLjEsMC44LDAuNCwxLjFjMC4zLDAuMywwLjcsMC40LDEuMSwwLjRjMC43LDAuMSwxLjQtMC40LDEuNS0xLjEmIzEwOyYjOTsmIzk7JiM5OyYjOTtjMC0wLjEsMC0wLjMsMC0wLjRjMC4xLTAuNy0wLjQtMS40LTEuMi0xLjVjLTAuMSwwLTAuMywwLTAuNCwwYy0wLjQsMC0wLjgsMC4xLTEuMSwwLjRDMjI1LjUsNDM4LjQsMjI1LjQsNDM4LjksMjI1LjQsNDM5LjMmIzEwOyYjOTsmIzk7JiM5OyYjOTtMMjI1LjQsNDM5LjN6Ii8+JiN4YTsJCQk8cGF0aCBjbGFzcz0ic3QyIiBkPSJNMjM2LjIsNDQyLjFjMCwwLjYtMC4yLDEuMS0wLjcsMS41Yy0wLjYsMC40LTEuMywwLjYtMiwwLjVjLTAuNywwLTEuNS0wLjEtMi4xLTAuNHYtMSYjMTA7JiM5OyYjOTsmIzk7JiM5O2MwLjMsMC4yLDAuNywwLjMsMS4xLDAuNGMwLjQsMC4xLDAuNywwLjEsMS4xLDAuMWMwLjQsMCwwLjktMC4xLDEuMi0wLjNjMC40LTAuMywwLjYtMC44LDAuMy0xLjJjLTAuMS0wLjEtMC4xLTAuMi0wLjItMC4zJiMxMDsmIzk7JiM5OyYjOTsmIzk7Yy0wLjQtMC4zLTAuOS0wLjUtMS40LTAuN2MtMC41LTAuMi0wLjktMC40LTEuNC0wLjZjLTAuMi0wLjItMC40LTAuNC0wLjYtMC42Yy0wLjEtMC4yLTAuMi0wLjUtMC4yLTAuOGMwLTAuNSwwLjItMSwwLjctMS4zJiMxMDsmIzk7JiM5OyYjOTsmIzk7YzAuNi0wLjQsMS4yLTAuNSwxLjktMC41YzAuNywwLDEuNSwwLjIsMi4yLDAuNWwtMC40LDAuOGMtMC42LTAuMy0xLjItMC40LTEuOS0wLjRjLTAuNCwwLTAuOCwwLjEtMS4xLDAuMiYjMTA7JiM5OyYjOTsmIzk7JiM5O2MtMC4yLDAuMS0wLjQsMC40LTAuNCwwLjZjMCwwLjIsMCwwLjMsMC4xLDAuNWMwLjEsMC4yLDAuMywwLjMsMC40LDAuNGMwLjQsMC4yLDAuOCwwLjQsMS4yLDAuNWMwLjYsMC4yLDEuMiwwLjUsMS43LDAuOSYjMTA7JiM5OyYjOTsmIzk7JiM5O0MyMzYsNDQxLjIsMjM2LjIsNDQxLjYsMjM2LjIsNDQyLjF6Ii8+JiN4YTsJCQk8cGF0aCBjbGFzcz0ic3QyIiBkPSJNMjQwLDQ0My4yYzAuMiwwLDAuNCwwLDAuNSwwbDAuNC0wLjF2MC44Yy0wLjIsMC4xLTAuMywwLjEtMC41LDAuMWMtMC4yLDAtMC40LDAtMC42LDBjLTEuMywwLTItMC43LTItMi4xJiMxMDsmIzk7JiM5OyYjOTsmIzk7di00LjFoLTF2LTAuNWwxLTAuNGwwLjQtMS41aDAuNnYxLjZoMnYwLjhoLTJ2NGMwLDAuNCwwLjEsMC43LDAuMywxQzIzOS40LDQ0My4xLDIzOS43LDQ0My4yLDI0MCw0NDMuMnoiLz4mI3hhOwkJCTxwYXRoIGNsYXNzPSJzdDIiIGQ9Ik0yNDYuNiw0NDMuOWwtMC4yLTFsMCwwYy0wLjMsMC40LTAuNiwwLjctMSwwLjljLTAuNCwwLjItMC44LDAuMi0xLjMsMC4yYy0wLjYsMC0xLjItMC4xLTEuNi0wLjUmIzEwOyYjOTsmIzk7JiM5OyYjOTtjLTAuNC0wLjQtMC42LTAuOS0wLjYtMS41YzAtMS40LDEuMS0yLjEsMy4zLTIuMmgxLjJ2LTAuNGMwLTAuNC0wLjEtMC44LTAuMy0xLjJjLTAuMy0wLjMtMC43LTAuNC0xLjEtMC40JiMxMDsmIzk7JiM5OyYjOTsmIzk7Yy0wLjcsMC0xLjMsMC4yLTEuOSwwLjVsLTAuMy0wLjhjMC43LTAuNCwxLjUtMC42LDIuMy0wLjZjMC42LTAuMSwxLjMsMC4xLDEuOCwwLjVjMC40LDAuNSwwLjYsMS4xLDAuNiwxLjd2NC43TDI0Ni42LDQ0My45eiYjMTA7JiM5OyYjOTsmIzk7JiM5OyBNMjQ0LjIsNDQzLjJjMC42LDAsMS4xLTAuMiwxLjUtMC41YzAuNC0wLjQsMC42LTAuOSwwLjYtMS41di0wLjZoLTFjLTAuNiwwLTEuMiwwLjEtMS44LDAuNGMtMC40LDAuMi0wLjYsMC42LTAuNiwxLjEmIzEwOyYjOTsmIzk7JiM5OyYjOTtjMCwwLjMsMC4xLDAuNiwwLjMsMC45QzI0My42LDQ0My4xLDI0My45LDQ0My4yLDI0NC4yLDQ0My4yTDI0NC4yLDQ0My4yeiIvPiYjeGE7CQkJPHBhdGggY2xhc3M9InN0MiIgZD0iTTI1My45LDQ0Mi4xYzAsMC42LTAuMiwxLjEtMC43LDEuNWMtMC42LDAuNC0xLjMsMC42LTIsMC41Yy0wLjcsMC0xLjUtMC4xLTIuMS0wLjR2LTEmIzEwOyYjOTsmIzk7JiM5OyYjOTtjMC4zLDAuMiwwLjcsMC4zLDEuMSwwLjRjMC40LDAuMSwwLjcsMC4xLDEuMSwwLjFjMC40LDAsMC45LTAuMSwxLjItMC4zYzAuNC0wLjMsMC42LTAuOCwwLjMtMS4yYy0wLjEtMC4xLTAuMS0wLjItMC4yLTAuMyYjMTA7JiM5OyYjOTsmIzk7JiM5O2MtMC40LTAuMy0wLjktMC41LTEuNC0wLjdjLTAuNS0wLjItMC45LTAuNC0xLjQtMC42Yy0wLjItMC4yLTAuNC0wLjQtMC42LTAuNmMtMC4xLTAuMi0wLjItMC41LTAuMi0wLjhjMC0wLjUsMC4yLTEsMC43LTEuMyYjMTA7JiM5OyYjOTsmIzk7JiM5O2MwLjYtMC40LDEuMi0wLjUsMS45LTAuNWMwLjcsMCwxLjUsMC4yLDIuMiwwLjVsLTAuNCwwLjhjLTAuNi0wLjMtMS4yLTAuNC0xLjktMC40Yy0wLjQsMC0wLjgsMC4xLTEuMSwwLjImIzEwOyYjOTsmIzk7JiM5OyYjOTtjLTAuMiwwLjEtMC40LDAuNC0wLjQsMC42YzAsMC4yLDAsMC4zLDAuMSwwLjVjMC4xLDAuMiwwLjMsMC4zLDAuNCwwLjRjMC40LDAuMiwwLjgsMC40LDEuMiwwLjVjMC42LDAuMiwxLjIsMC41LDEuNywwLjkmIzEwOyYjOTsmIzk7JiM5OyYjOTtDMjUzLjgsNDQxLjIsMjUzLjksNDQxLjYsMjUzLjksNDQyLjF6Ii8+JiN4YTsJCQk8cGF0aCBjbGFzcz0ic3QyIiBkPSJNMjYwLjMsNDQzLjl2LTQuNGMwLTAuNC0wLjEtMC45LTAuNC0xLjJjLTAuMy0wLjMtMC44LTAuNC0xLjItMC40Yy0wLjYsMC0xLjIsMC4yLTEuNiwwLjYmIzEwOyYjOTsmIzk7JiM5OyYjOTtjLTAuNCwwLjYtMC42LDEuMi0wLjUsMS45djMuNmgtMXYtOS43aDF2Mi45YzAsMC4zLDAsMC42LDAsMC45aDAuMWMwLjItMC4zLDAuNS0wLjYsMC45LTAuOGMwLjQtMC4yLDAuOC0wLjMsMS4zLTAuMyYjMTA7JiM5OyYjOTsmIzk7JiM5O2MwLjctMC4xLDEuNCwwLjIsMS45LDAuNmMwLjUsMC41LDAuNywxLjIsMC42LDEuOXY0LjVMMjYwLjMsNDQzLjl6Ii8+JiN4YTsJCTwvZz4mI3hhOwk8L2c+JiN4YTs8L2c+JiN4YTs8L3N2Zz4=;" vertex="1" parent="1">
          <mxGeometry x="688.5" y="300.00000000000006" width="83" height="85.8" as="geometry" />
        </mxCell>
        <mxCell id="e8k9zVqKPG3VjERlfDlT-53" value="Promethus" style="shape=image;imageAspect=0;aspect=fixed;verticalLabelPosition=bottom;verticalAlign=top;image=data:image/png,iVBORw0KGgoAAAANSUhEUgAABUcAAAMrCAYAAABqOSPhAAAgAElEQVR4nOy9fXwU1dn/f1GtbcXYam16t1KrUVCpotJS+Up9KIo0IlVLyU2tVm4oVZ4U7Q20/FRQy41YREUiO9EQSQDbACoUg4hAwEAkQIAAAZPwYEISkpAlGxKyySZ7/f7YzOTM7Mzu7GY3M9l83q/X9VJ2zjlzzeyefXjnPBABAEAX8uLKk4xAIBAIBCLyYfVnPAAAAAAAAACAIFj9wxGBQCAQiFgNqz/jAQAAAAAAAAAEweofjggEAoFAxGpY/RkPAAAAAAAAACAI4o84AAAAAHQOyFEAAAAAAAAA6EZAjgIAAACRA3IUAAAAAAAAALoRkKMAAABA5IAcBQAAAAAAAIBuBOQoAAAAEDkgRwEAAAAAAACgGwE5CgAAAEQOyFEAAAAAAAAA6EZAjgIAAACRA3IUAAAAAAAAALoRkKMAAABA5IAcBQAAAACwkOTk5EskSRotSdL7DocjX5KkCkmSGIGwUZQ7HI58h8ORlpKSMio9Pb231f2mpwM5CgAAAEQOyFEAAAAAAAtITU2Nczgcr0iS1GAD+YVAmA6Hw3FOkqTZkKTWATkKAAAARA7IUQAAAACALsbhcNwrSVK11ZILgehMOByOqiVLltxjdX/qiUCOAgAAAJEDchQAAAAAoAuRJGmyVjKtXr2a8/LyuKysjF0ul9XfDwFQ4XK5uKysjPPy8njVqlV6ovQvVverngbkKAAAABA5IEcBAAAAALoISZImilJp+fLlfOzYMau/DwIQEiUlJZyRkaEVpBOt7l89CchRAAAAIHJAjgIAAAAAdAEOh+MuSZJaZZmUlZXFzc3NVn8XBCAsmpqaeP369aIcbcUU+64DchQAAACIHJCjAAAAAABRZuHChd+RhDVG169fz16v1+rvgQB0Cq/Xy+vWrVOtQSpJ0sVW97eeAOQoAAAAEDkgRwEAAAAAoozD4XhJFkgrVqxgt9tt9XdAACKC2+1WTbF3OBwvWt3fegKQowAAAEDkgBwFAAAAAIgic+bM+YYkSfWyPMIaoyDWKCkpEafX186ZM+cbVve7WAdyFAAAAIgckKMAAAAAAFHE4XD8RtyVHoBYJDMzUxw9OszqfhfrQI4CAAAAkQNyFAAAAAAgikiStFSWRvn5+WF/aWtpaeFjx47x1q1befXq1Xq7hSMQlofD4WBJkr5KSUkZlZ6e3tvq/herQI4CAAAAkQNyFAC6vD2+ZXUiAAAAYhBJkg7I4qi6ujrkL2stLS2cl5fHqamplosvBCKUcDgc5yRJmg1JGnkgRwHoXtTX13NtbS07nU6rUwEA6AA5aju+RURPEtEEg3iCiO4nop9YlWCM8Tci4vYYbHEuAAAAYhGHw1Epy6LGxsaQvqidOnWKly1bZrnkQiA6Ew6Ho2rJkiX3WN0XYwnIUWDEnj17eO7cuZyUlMSJiYk8ZswYnj9/Pufm5rLH47E6vZBxOp08evRoJiKeM2cOt7a2Wp1SyFRUVMg/OPnOO+9UXUNhYSEnJCQwEfGHH35oYZYA9GwgR21HbyI6TB3CLlDkEdFt1qTZLfgBEd1KgUVyMnXcz190RVIAAAB6GKIkCoVDhw75SabVq1dzXl4el5WVscvlitLXQwDCw+VycVlZGefl5fGqVav0ROlfrO6PsQLkKNDidDo5MTEx4A/I+Ph43rdvn9WphsSKFStU17B//36rUwqZI0eOKPknJSVxW1ubcmz8+PGq5wef7QBYA+So7fg2ER0gc3JUjt9Zkqn9eY989+evAcosIshRAAAA0SQcOXr48GGVVFq+fDl2uQfdjpKSEr21cSda3SdjAchRINLU1MSDBg0y9eMxPj6+W03tjgU5WlRUpOQ/cuRIQznap08fyFEALAJy1HaIcrSKiH5ERBeQb7r9heRbG/MPpP6MqydMs9fSi4jSyHd/JgcoBzkKAAAguoQqR8vLyzklJUWpk5WVxc3NzVH+SghAdGhqauL169eLcrQVU+w7D+QoEElNTVV+HMbFxfH69eu5qamJmZkbGxt5w4YNytTt8ePHq+Sc3amoqOD+/fszEfHYsWOV6+pOBJKjOTk5yrHk5GQLswSgZwM5aju0cvQyg3J92o/L76WBBGBP5NvUsTwB5CgAAADrCEWOejwe1Rqj69evZ6/X2wVfCQGIHl6vl9etW6dag1SSpIut7pvdGchRIOP1evmhhx5SBNuWLVt0yzU2NnJWVhbX1tZ2cYaRoaGhweoUwiaQHGVmbm5u7pbSF4BYAnLUdpiVo0S+jZvk99l/E9E3op5d9+FSIjpGvnvz5wDlIEcBAABEl1Dk6O7du5WyK1asYLfb3QVfBwGIPm63WzXF3uFwvGh13+zOQI4CmYaGBmVkJRHx6dOnrU4JMKs2XSouLg4oRwEA1gM5ajtCkaM3UIfYW0cdcnQSEb1FRNPbH7uCiF4VyuYS0TWatnoR0a+J6B3qGJFaT0SpRDSSiC4yyGES+QTj9PY2bieiDOFci4jox0L5oUSUTkR7249nEdHvKbDYvZSIHiWij4V284joGU3bctmfEdFYoezbRHRn+/Xd334/ZEQ52r/92Ezy3SP5HrxFRNcHyI+IaAARvSxcl3zv7iPffdHycHu7C8m3CZced7eXeaO9vN45F2jOmdJ+TohyAACwC2blaFtbGy9dulQpizVGQaxRUlIiTq+vnTNnDr6whAnkKJAR5WhcXBxXVlaG1U5ZWRm/+eabPHjwYEXkJSYm8sqVK/n8+fO65SdOnMgTJ07kgoICZmbesGEDDxkyRMnlzTff5MWLF/PTTz/N06ZN4/z8/IA5FBQU+LXp8Xh41qxZPG3aNE5LS9Ot5/F4+PPPP+eJEydyfHy8cv4JEybwtm3bDGdgHDhwgF944QUeOHCgUmfcuHG8adOmkGdtyCPkxVG8AwYM4KVLl3JeXp6hHK2oqOBJkybxxIkT+csvv/Rr1+1284oVK3jEiBFKG8OHD+c333yTy8vLDfPRXhu1bwaVmZmp+3zKdWbPnu33GkhLS+OamhpV2eTk5E49rzKhvu6ys7P56aef5ueee47Pnj3LHo+HJUlSnvf4+HjeuHGjkt/EiRM5JycnYH4HDx7kadOm8cSJE4NeC4hdIEdtRyhy9JeklqMXtD8ub0RU1l7mmFBOjsFCO1eQTzYGWru7ioiu1cnhPaHM+wZ1y8i3c/zLAdr/N/nWVNVyW5C8mIiGC+XHmigvbtAkytEDpF6qQBu/1snvQiJ6Pcj51pNagPYS7lug5/j3QhvapQEmBTlnLqklMAAAAKswK0dLS0tVu9IDEItkZmaKo0eHWd0/uyuQo0Cmra1NJeRGjBjBZ86cCamNjIyMgD+g4uPjubi4WFVHnCqekpLCixcv9qt355138meffab6t8fj0c3B6/Xy0KFDlbK7d+9mZrX8HTlypGpEJjNzTU0NDxgwIGD+I0aM4Lq6OqWOx+Ph5557Lmgds1P5GxsbOTExMdiPUI6Pj/eTo+JO9gsXLlS1W1lZqawVaxQZGRmqOmauLT4+ngsLC1V1Zs2aFTT/jRs3KnU+//zzTj2vzOG97latWqUc//zzz1WvffE+fvLJJ8q/+/Xrxy0tLaby27lzZ5BnG8QqkKO2IxQ5Ko4GfZs6RiiKws8o5A2cegvnk2MeEf2WfEJOfFzeIEpE71zziehPpC9lmYgyybepVLrm8ZGatm/UHP+UiBKJaAgRzdYc699eZ1j79eQKx+rJN0I1q/3xx4Lkn0c+yaq9/mNEdIlQtxcRJWvKPEu+0bMPU8eap0w+GSqOIJXPG44c1Qrj+eQTxH8UzllFPiENAADAaszK0ezsbKVcZ0YutLS08LFjx3jr1q28evVqvd3CEQjLw+FwsCRJX6WkpIxKT083mkYDDIAcBSLvvPOO34+u+fPnc1FRUdARkJmZmap6U6dO5e3bt/OmTZv48ccfVx5PSEjg+vp6pZ4oR43ihRde4KamJpW8PHz4sG4eYnuibBPrJyUlqcRiQ0ODnxidPn06r1mzht944w1lNCFRxy73Xq+XJ02a5CfTvvzyS/7oo49USxSMHz8+6P3zer08atQovxw2b97M7777rp/c1MpR8boXL15s2G58fDwvX76cN27cyDNmzFDlLtaZOnWq6nyjR4/mDz74gJctW6a6NnkUrl6dJ554glevXs0ffPCBX/6bN2/2e17CeV7Dfd2JctQoNmzY4Jff9u3bdfMT5XQgyQtiH8hR26GVo5calLuf1O8BfxCOaYXfMfJNNSciiiOiq6hD1D2pKXel5jzaUaWLNMfFc1URUV/h2MVElKPJ5b819acJxz6gjungvUg9jX48+U9P/5Vw/N/UMXKWiOg64ZjZNUeZ/Kev/4DUkvMu4dggCnzvLiT1EgM/1zlvOHJ0ovB4kk69X5D6eQBAYeHChd+RJOlRSZLedTgcuxwOR6XVv48RiGDR/jr90uFwpKSkpIxZuHDhd6zuSyEhXkwgVq1apZSrrq4O+UtdS0sL5+XlcWpqquVPGgIRSjgcjnOSJM2GJDUP5CgQcbvdynR2bcTHx/PSpUt1P1ecTqdqGrre9OPk5GSlrXfffVd5XE+OLl68mOvr67m1tZUrKir47NmzzMzscDiUMnPnztW9hvnz5ytlxNkTouTSikWxXb1Rhm63m1euXMnr1q1THhOnuCckJPCpU6dUdTweDz/22GNKmT179gS69bxjxw7VPfjiiy/82hNHZZqVo+JzoxWEzMzV1dW8detWbm5uVh7Lz89X5SKO9JTZvHkzp6SkKCNwxftBRH6vAY/Hw88//7zqnsnnDPd57czrTitH4+LieOPGjezxeNjtdvPXX3+tjBJNS0tTyo0ZM0Z3rdeXXnpJKSO+TkDPA3LUdmjl6I1EFE9EPySffBtE/kLvKyL6ptCGVlgajSAUNy1iIrrFoNyVQpl6Uq9XKp7rTp26DwjHc8h/6vx3hRy+IiL5B+/NQr3tpBafIvJUfa1k7CvUN7tb/W8MyozVaasXEaVR4GsnIvqpQR7hylHtefvrVwXAnyVLltwjSdJJq38DIxARiJOSJP3K6j5lGjH5QKSnpyvlGhsbQ/pCd+rUKdUu9whEdwyHw1G1ZMmSe6zus90ByFGgxe128yuvvKIrSOVYuHChalq6KI/mzZun225LSwsPGjTIT+xp5ago9rScOnVKKdenTx92uVyq4y6XSxnVGB8fz06nUzlmJEe1G1Hl5uYGvUder5fHjh2r1DEaTXjy5ElT16Vt77333tMtd+LEiZDlqDii0ewIVnFErHaKfmfyb2lpUcl3WSKG+7x25nWnlaN667TK1NTUqEYPa9dydzqdyshYPQENehaQo7ZDlKNmoor8N1cShd+YAOcSN3TaTvprfhL5Tx8Xd3UPttu7OILzWZ3jRssIPCrUe5mIvkc+SXy5EJcQ0YtCOVEUhiNHBxqUuUmnrd6knsJ+Y3vuYn7fJ7Uc1Vv6IJyRo+NI/fzfTWo5DoCKtLS0bzscjmSrf/MiEFGItxYtWvQtq/tYUMSkA2G2nJZDhw753ZzVq1dzXl4el5WV+f1YAcBqXC4Xl5WVcV5enmrEtBB/sbrf2h3IUWCEy+XiTz75xG+qtxzTp09XRNv48eNVwquuro7PnDnDtbW1XFtby9XV1ex0OhUxlpCQwOfOnWNmtdRLSEgw3OSH2V/cbdiwQXU8KytLOfbiiy+qjhnJUVEe9uvXz9R0aFGoyutuOp1O5Xpra2v5zJkzKjk6ZcoUQzGpbc9oMyzxXpmVoy6XSzWlffbs2VxaWmrq2uLi4gKWDTV/ZuYVK1b45Rnu89qZ150oRwM9NzKzZ89WymtHt4ptvf3220HvF4htIEdtRyhydCb5pq5rEYWf0WhQIrX0+1uQvERRJwrXYHI0mKQ0I0fNhnj+cOSoXv5GbYly1GyIm2Z1Ro6KwlmMeeR7vrXLD4AeTHp6em9JkvaKvzmXLVvG+/bt49LSUjgT0C1wuVxcWlrK+/bt0xscuSc5OfmS4L3BQqIpRw8fPqyqt3z5cuxyD7odJSUlemvjTrS679oZyFFgBpfL5be2I5FvfUiv16uSVGZCHP0nSj2jKcsiu3btUglCeQSr1+tVbaqjXbvSSI6K59cKVSO0o03NhN4mUOL9ldsLtF5lOHKUmXn69Ol++QwbNowzMzNVo2u19ynQBkTh5K/NU5SSoT6vnX3diUJTnG5vJu8+ffoo7bS1tSny1axMBrEN5Kjt0MrR/ybfJkP3t8evyCfrAo2UMSP8iNQCMtC6nETGoi5acvQ1Ur8nZpFv7VNtyJssVVHnR46GIkev1uR3gHzLBoi57aWOjaD2kk9eRmLkKJFv2QEjOZtHPoEKejjM3MvhcHwm/tZct24dNzU1Wf3RA0DYNDY28rp161QOxeFwfGp1fwtItORoeXk5p6SkKHWysrJUa48B0J1oamri9evXi/2gFVPsjYEcBaFQWVmpkoLLli3z27AmLi6OExMTedCgQUoMHz6chw8fzomJiTxw4EAePHiw7shRrfDTQ5wmTURcVFTEzMzFxcUBRaSRHP3oo49CkmTM6untRMQDBgzgIUOGqK554MCBnJiYqFzz3/72N8PRieLoVe1mUSLhylGPx8P//Oc/DaVhcnKy0pZ4H83I6lDy17sG+XkK9Xnt7OtOlKOBljyQ0S4d8K9//YuZ1euzTpkyJWg7IPaBHLUdoiwsI/2RocEwK0d/KZQLJBCJfBsV6YnUaMlRUQzeGiQ3PaItR8W811HHRlJmkc9bRsabbgWSozI/J6I5Qjk5qojov0LMCcQYDodjvOhazCzFBEB3ITc3VzvI7Amr+5wh0ZCjHo9HNYx2/fr1QaeWAWB3vF6v6q8fDoejSpKkcL4MxzyQoyBU9KSSvEt5fHx8yNOJQpWjzOq1Jl9//XVmVm/Yo52WzWxuWr3RupVm2wqXsrKyqMpRmerqas7MzFSNxJRDng4ujoo1u+t6dXW1MnU/0AhZZt8If/mcWvka6vPamdddqHKUWb1p1pAhQ7i1tZVnzpypPLZ///6QcgCxCeSo7TCShaFgVo6K0k+c8q3HHIM2u2Ja/fgAeRnRldPqAwlOM+f9mUEZM3JU5iLybShVJdQZHGJOIIaYM2fOhZIklcm/Lz/66CN4ExBTeL1e/vDDD0WHUipJkj3XX46GHN29e7dSdsWKFex2uyN1bwGwFLfbrZpi73A4XrS6D9sRyFEQKmvXrlVJJe305lAFUThytLq6WrUD+6lTpxRZ2adPH90NcczIUbMyUBSIehsIhYqYW6ANfTorR0XKy8v56aefVl17a2ur3/qh1dXVpvI32ghLi7h+qDbPUJ7Xzr7uwpGjHo9HtaFURkaGIoXNvnZA7AM5aju6Uo7+l1Cunoh+YlBOu6v9gBDOFa4cFddDPUYdu9ibRTxvoCUDwpWj2l3jR4WYn9EGVyKhyFGZB4Q6fwoxJxBDOByO38u/K1NTU5WZKADEEi6Xi9977z3RKT5sdd/TJdJytK2tjZcuXaqUxRqjINYoKSkR+0PtnDlzQp2iE/NAjgIZj8fDaWlphjuvM/uE1OOPP67IIXk6UUZGhvJYqFOLw5GjzOp1NBMTE/1GHGoxkqOikCMi/uqrr4KeWzvFevXq1eYv2CA3cbmCvXv36pYrKCiImBxlVk9ll6VsW1sb33PPPUpb8vTxQGilod7IXWbffRM3+Fq2bJlfmVCe18687sKRo2I97Zqz69atC+n8IHaBHLUdXSlHiYheFcr+m/x3rO9FRK8LZbRTyKMlR79BRFuFuq+Q/tT1BCJ6iXxLBBid91Xhce3o2HDlKBHRHcLj8o71Wi4kot8R0SxSrxMrjox9j/yv7WZSjwIVz3tJe64X6ZxvrInrAT0ASZIy5N+VW7ZssfqjBoCo8fnnn4sDzNKs7nu6RFqOlpaWqnalByAWyczMFDv3MKv7sd2AHAUyqampiuh54YUXuK6uTnXc4/HwggULlDLiqMKamhqVYPzwww91z5GTk8PTp0/n06dPK4+FK0fltR7l88qyyugPfYGmwotTo0eMGMHnz5/3q/+vf/2LFyxYoEwZF6dYyzvWa/F4PLxmzRqeO3du0JkZ8+bNU+Wg3QiptLRUJeRCkaOFhYV8/Phxv3OKO9mL7YmjO+Pj43Xrfvnllzxjxgyura31q9OnTx8uKyvzqyNu6mU0wjSU57Uzr7tw5ah4z+RISEjACBKgADlqO7pajv5IKMvk28znAfJt6HMHEX2mOT5AUz9acpSI6DbNuT8lokTySch7SD36sorUU9tvEI7Vk29jK1lIjgkh/0DX0IuIVmtynEFEA8k38nUcGQvOGzT13iffTvODiOhlzTGxrnjOKiIaQUTfJ6LLiegPmvvxI4PrAT0Ah8NxWP5NeejQIas/agCIGgUFBaJTPGB139Ml0nI0OztbKZefnx/J+wmAbdizZ48oR1Os7sd2A3IUyOjt/D116lROSUnhuXPnqiQU6Yz6E+UqtY/k2759Ox85coQ//vhj1WhEo93iQ5Gj2tGKRIHX6wwkR8U1P6ld7mVlZXFxcTFv3bpVlfv777/PzP6jIImI58+fz3v37uWDBw9yamqq6p4FE3DifSAiHjRoEH/88ce8efNmXrhwod9zY1aOihsGTZ8+nYuKiriuro6PHj3Ko0ePVo6J6622tLSo7m1cXBwvXbqUi4qKeN++fcpan0S+dUO9Xq/f8xEXF8epqal8+PBhLigo4BkzZgR8/YT7vIb7ugtXjjIzv/nmm6pzhlofxDaQo7ZDXMuyK+QokW+Uot/7tk7cH8a5gsnRYNc7wmRuk6hjJ3gin3TNMyhbRURxJvMPdg0Xk283+mD5lZFvh3sRPQmqzVN73m8SUY6J8400uBbQQ3A4HGfk35RmlhwCoLtSVVUlOsXTVvc9XSItR1etWsXo4CDWOX36tNgn9lndj+0G5CiQcbvdPG3aNDM/mHjevHl+i9B7vV6eO3euqfridKRw5SizWnAREW/evNmwbLBNlHJycoLmnZCQoBp92NjYqJr6bRR9+vThEydOBL0erejTxqRJk1T3Stz4yEiObtq0KWh+/fr18xstW1FR4TdCUi/y8vKUOk6nU7WDfCivn3Cf13Bfd52Ro5WVlYr4jo+P58rKypDqg9gGctR2XEhE66lDqIW60Q+RWvj93GSdy4hoJqmFnBz/R0RXhXkuUSzqrYH5DSLKaD+eS/pri15DRPN18qoiohfIeK3UPqSems/kG316Wwj5E/mkplxGb/3SXuSbOq8nLVeTb7Sr3pIAvYhogk6dT4no1vY6suB9UKgnT9XP1ambqbk+0EMJZV8XALo74uvd6r6nS6TlaHp6ulKusbExkvcSANtw7tw5sU+UWd2P7QbkKNBy4MABv1F+cowbN453794dsP6XX37Jjz32mF/dgQMHclpamt/mRaLUCzRCUA+n06kIvISEBN3p8DKiHDU6T1lZmWrNSzH35cuXc3Nzs18dr9fLa9as8RvtSEQ8atQozsrKCumaNm7c6Cclhw0bxtu2bWPmjiUAZsyYoaon3sd3331Xdez48eO61xUXF8eLFi0ynPLf2NjIb731lt+o4bi4OJ4/f77uH1Y9Hg9/8MEHPHjw4LBeP8yhPa8yob7uRDmqvV/BKCwsVOpOnTo1pLog9oEcBTpcSr5p2t8j/zVIreQC8kncy8k34tQsPyDfOp3fjUZSGi4mX37fJfUao4G4oL3ODyn0HC9tr/d9Cu2egBgHchT0JHqcHEUHBz2B1tZW+3duC4EcBUa0tray0+nk06dP85kzZ7ipqSmk+s3NzVxbW8tnz54Nua7VNDc3s9Pp5Nra2pDWkmxsbOTa2lquq6sLusZoMFwuV8jnD4b8nJw+fVpZK9QMra2tXFdXp1ybWeT7UVtb22Wvga543YkjeA8cOBCVc4DuC+QoAADEHnAnoCdhe38COQpAeNi+c1sI5CgAAJjnxIkTihjVLm0AADPkKAAAxCJwJ6AnYXt/AjkKQHjYvnNbCOQoAACYZ/bs2Yoc3bBhg9XpABsCOQoAALEH3AnoSdjen0COAhAetu/cFgI5CgAA5igrK1PEqNm1UEHPA3IUAABiD7gT0JOwvT+BHAUgPGzfuS0EchQAAMxx/PhxfuKJJ3jChAm8ceNGq9MBNgVyFAAAYg+4E9CTsL0/gRwFIDxs37ktBHIUAAAAiByQowAAEHvAncQGeXWHeX3NjvbIsTod22J7fwI5CkB42L5zWwjkKAAAABA5IEcBACD2gDuJDf5ycC733fYI9932CF+d/Vur07EttvcnkKMAhIftO7eFQI4CAAAAkQNyFAAAYg+4k9jACjm6vHwD/yR7pBLdAdv7E8hRAMLD9p3bQiBHAQAAgMgBOQoAALEH3ElsYI0c/VQ5Z99tj3TJOTuL7f0J5CgA4WH7zm0hkKMAAABA5IAcBQCA2APuJDaAHDWH7f0J5KgxHo+H3W637rGysjIuLi7m+vr6Ls4qfIxyrqursygj5vr6ej569Gi3uo8ytu/cFgI5CgAAAEQOyFEQJhcR0eXtAQCwGbHkTnoykKPmsL0/gRz1Z8uWLfzQQw8xETERcVxcHM+ZM4fLy8uVMklJSUxEnJuba2GmoaHNua2tTbnO9957z5Kcpk6d2u3uo4ztO7eFQI4CAAAAkQNyFITJH6n99wwR3WJxLsG4jIgyyZfrbCK6wNp0AIg+0XInrd5WLmuq4qMNJ3Wjyl3L7rZmw/qV7jNcFSRqmp3c3NYSNJc2bxtXu52GuZxpPsterzdoO+dbmwxzqXY7A16PTIPnPJ92nzHMpbDhhG7+Z1vqA96LJw7M1pWjRxpOKG1XNzuD5qd+jnzlz7a4dM+Zeuo/KjlqlJt8b6vctar7FQwx9yM69yUcbO9PIEfVpKamKlJUL4qKipi5Q+rt3r27y3PMyclhIuI9e/aEVE+bc0NDAyckJBwKubcAACAASURBVDAR8YQJE0y9KUWaSZMmWXYfO4vtO7eFQI4CAAAAkQNyFITJ76njd8wvLM6lPxHdTETfNDj+KKl/d9ld5gLQaaLhTn6b97RKmgWKK7eO4JY2j18bl2/5jek2frLtd+xqadDNZXzBK3x19m+Dt5E9kl8/sVy3jbMt9dx7y/2mcrlky/1c33LOr41K9xn+7pbhQet/b8twVb1nDy0wlb8Yohy9Nvth5fF3TmYGfe7Ec7361VJmZn7q4P+FdH5tyM/vzV+MUR77Wc4fg+YSl/2gUv7yrYlBy5vB9v4EcrSDiooK5QN5xowZXFFRwefOneOdO3dy//79OSEhgc+d83U2K+XoqlWrwjq3Nmev18sLFizguLg43rJlSzRSDTmn7oTtO7eFQI4CAAAAkQNyFISJXeTode051JNvhKgekKOgxxFpd9I/5w8hy7OfbnvYr51Q5GjfbY/wT7N/y+db1csRDtw5NuRcEnc/q2qjqdUdspy8NvthrmvuWLLvfKubE7IfMlVXlKN373oyLBkJOWqM7f0J5GgH2dnZTETcr18/9njUf0FpbW3lhoaOv4hYKfXmzZvHRMT79+8PqZ4dRaQdczKL7Tu3hUCOAgAAAJEDchSEiV3k6G3tOVSRsRz9EREdbi+XRkTf7prUALCOSLqT/5zeHrZAe6rwNVVbocrRvtse4bt3PaXU316zN+xcaprPKu0Mzh0XVhs/+2KM0sZ/ZY80XU+Wo/tdX4WdP+SoMbb3J5CjHcgjMvXkqBZZ6u3bt4/37NnDEydO5MTERJ4wYQLv2LHDr7zb7eZVq1bx448/zlOnTuUxY8ZwWloaO53q9R5ycnL42Wef5SNHjnBZWRlPmTKFExMTedq0aVxaWso7duzgYcOGMRHxG2+8wZ999hlv2bKF29ragl6fnohctmwZP/vss1xUVMRut5tfeuklnjVrFpeUlPjV93q9/Pbbb/Mrr7yiiGL5uh599FGeNm0ajx8/nteuXaubT25urnKfkpKSeP369fzYY49BjsYgkKMAAABA5IAcBWFiFzkq5xFIjsr0jn46ANiDSLqTYV9OVEmxvLOH+LT7jG581fC1ajTlLTmPqto619IQNKrdtdxna4dAuzb7YWWZvu9r5OoO5wHdPCqaqnnB8QxV2Z9+8Tslj2vEEZ/bf89fn6/UbedkYznf9MV/K2Wvy36YW70+HyEKyoE5f+QTjeWG9+W0+wwzM//pwBxVTp+f2cUlDWWG8cf9z0dNjjpbXLp5vlu2VpVjlbtWt1xb+3MCOWoCyNEOioqKlKkcU6ZM4dLSUsOysmg0ig0bNihlz549ywMGDNAtFx8fr6xjytwhaOPi4lTl+vTpw0uWLDE8X21tbdDr05Oj48ePVz02c+ZMJiKeOnWqX/38/Hwll/r6enY6nYbXlZSUpBLMycnJAe8X5GhsATkKAAAARA7IURAmdpGj49pzKCOiiy3MAwBbEUl3cpkgJLVrZ+oxLG+qUv5HWx8M65xNrW6VoDvb4pvOfuXWEcpjN24fHbSdfttGKeX/K9uXS/n5KlXbTZpp+1rcrc2q8l+d8/0OvU4QlDud5mbe3rh9tFLnx1tHBC1vtFt9JOSoEaHuVg85agLI0Q48Ho9ql3oi4mHDhvHHH3/M58+fV5UV5ejChQu5pqaGa2tr+dlnn1VGn7a0tKjK9unTh/Pz87mpqYmPHz/OgwYN8isry1FqF6QZGRn82Wef8Zo1a7i+vp6PHDnCY8aMYSLi1157jYuLi/nQoUNK/UDoyVHtY0eOHFGkbXV1tar+9OnTmYh48eLFzNyxmVJiYiKfPHmSPR4PHzt2TBGm69atU7VJRDxv3jyur6/nhoYGfv/99yFHY5TOyFHxviIQiM5HpN/vEAhE5yNUIEcBEX2HiEYSUTp1/FapJ6K3iOhnBnXMyNFLybfe58dC2TwieoaIfqxTvg8RvdMeN7c/9hsiyhFyeoaIehFRAhENIqLPqGPk6MNEdA8R/ZqIbhfavZCI5hLRG0Q0NsA5b2x/bCip78Wn7ddhtMv9heR//w4Q0ULyrW/6PSK6vD0uMWgDgIjSmc8FLd/bMkyRWbR5aNDy9+yepJS/KntkWOdsbmtRCTpni4uZWTWi9J5dTwZtZ9DOJwS5+BAzMxc3lGqmhwf2HXvPFqrKy9Pzxce+dBaYui5xxOqPtj4QtDzkqDnE17vVfU8Xsx0y0uXsitvt5n/+859+Ixu1mxbJUvGDDz5Q1a+srFTkotPp5BMnTihtHD58WFXW6XQqu8XLclCUowcOHNDNUT63ds3RxsZGPnr0KBcXFytx8uRJv3qB5KjX6+WhQ4f6XVtNTQ3Hx8dzXFwcl5aWKtclX6fI0aNHldGjbW1tymjU8ePHK0PtZbBbfWwCOYpA2Cci/X6HQCA6H6ECOdrjuZ18YjHQTKwHdeoFk6O3UeA2mYiGa+r0FY5NIKLJOnW2E1GciZzFafa9qWPN0XWklpziOd8nnyQ1anMd+USoyKXkE77BrlWOv+rcKwAiTmc+F7REWo66W5s5s+JznnDglYDRVXJ09lcOw5h2eIFqmQBRUHZWjv4gG3IUcjTAhUSinN2pr6/n7OxsfuKJJ1QflvJanEaCsqmpiQcMGKBIQ3mq/ogRI3TXMZXloDwaU5ajM2bMMMzNaBOjwsJCvw/3/v37c2trq2E9vcc++eQTJiK+8847lZxXrFihEpziEgTPPfcc//3vf1dCXkd05MiR3Nraqlzj9u3bTV9Ld8D2ndtCIEcRCPtEpN/vEAhE5yNUIEd7NFeTv1CcRkSPU4dMlB//gaZuIDl6o6bdT4kokYiGENFszbH+Qr2+mmN68TIRfYt8ovJTnfNktUcedcjRb5NvJCcT0b+J6BsmzjmPiEaRejQoE9EfhLq9iChZc58SiegGIvofg3YfJgC6gM58LmiJpBx1fL3G9A7vXSVHQ4lR+2YpbUOO+oAcNYHZDhnpct2JwsJCjo+PZyLid999l5mNpZ5WjsqyUx5FqUWWjlo5Kp9HD6NzV1RU8KRJkxRJ+dxzz/Frr72mnNesHHW5XMqI1v3793NbWxsPGTKEiYhzc3OZmXnTpk3KF4i4uDju06ePsk7qwIEDeeDAgTxhwgRubGzk/v37GwpQyNHYJFJyFAAQHpHuR+iXAHQeyFEQJr2IaAn5vnePI6JvCscuJKIM6pB6f9bUNZKjvUg9jX58+2MivxKO/5s6RnLqicrJ5BspegH5dp3/nqatRdQhJi81uE5Rjq6jwHJ0PfmL4PHC8e3UMXr0MuoYwXqsPU+Rm4R62hGrAHQWbV9QYUc5eqATO7XbQY4mbPudqm3IUR+QoyaAHDXHwoULVRLTrBw9ePCgMopST47KU861clT+tx7hCkWzcpSZed68eUxEPHfuXD506BATqddGLS4uDnhdMl6vlx9//HHdUbaduRY7YPvObSGQowBYC+QoAPYDchR0Eu1UcZlbKXQ5ejOpRaKREHyZOqSmPMJTKyonm8hdlKNGu9WblaM5pBbEMr3JJz+157khSK69iOg9g/MC0FkWEJGXiBqJqJKIjhLRXvL1u+VTpkzhd955x1Zy9CeCoOu77RG+autI/snWBw2jq+To1dm/DRg/zn6QXylJ9WsbctQH5KgJIEc7qKio4D179vg97vV6edSoUUxEnJ6ezszm5ag8/Tw+Pp6rqqpUZVtaWpRNmTZv3szM9pGjsvyMi4vjwYMHMxHxsmXLlOPidVVUVAQ8rzytXjsa1uv18tixYyFHYxDIUQCsBXIUAPsBOQqixNXUIf9SSS33jOToo8LjL5NvdFs8dWxIJG9K9KJQTp5aL4rKY+TbKCoYkZSj2in3Mr2IKE3nPNcJdZ81qLdaOC9GjoJIk01ETeQ/4tpzxx132GrkqKfNo9rdfdLBeQHb6NoNmfyXKDQD5KgPyFETQI768Hg8ytTxqVOncmlpKXs8Hna5XPzaa68pb2LHjx9nZvNy1OPx8D333MNExOPGjePGxkblfP/4xz8UwShvamRGjsqyURaq8jqowQhFjopCWM6xsrJS9/iIESO4trZWOVZQUMAZGRm8c+dOZmbOyMhQ2igsLFSuf/HixUr7kKOxBeQoANYCOQqA/YAcBRHiIiK6kny7wP+aiCaR8bRwM3LUbMj1RVH5AZkbaRlJORpodKfeecSNnqrIt/O9yH1C22+buBYAwsFBRKXU8VprJKJPrJxWf1/eZD85eq6lQVd2GmFGjg7ZOS5oLpHYrd4IyFEfkKMmgBz14fV6FeloFKKwNNplXStHmVmZWi+GvIYpEfG6deuU+to1SPWQhaYYelPWtejlHGi3eHld0fj4eJ4yZYrfcXl0qRzDhw9XRpkSEU+ZMoW9Xi87nU5lDVOjgByNLSBHAbAWyFEA7AfkKOgk/Um9sZBeaMWhkRx9TVNP3hxJG1lElEs+qag3ctTsNHQr5SgR0UShfj0RPUNED5L/fbjWxLUAEAr9ySdGiYgaqOO1Vkxk7Zqjt+X8USl//fbfMzNzi2bk6OIT/wrYxrgDLytlr8t+mD1e30bQl235jfL4f219IOioTz05WuN2quTfW8dXmrkNfoQjRwflPK4rO434xc6xuqJS3NTqsf0vBG0nmnL0zi8nKGUTsh/iNq/x0ojMkKOmLyQS5ezK5s2b+aGHHmIiUjYSGjhwIGdlZanKvfHGG0xEvHfvXtXjshxNSEjg+vp65fHjx4/zE0+od74fNmwY79ixQ1V/x44dTBR4Q6aKigolNyLiUaNG+U3Z10NeR1QUqXqPyTQ0NPCAAQMCyteysjJFsA4dOlS5rrVr17LX61XKnThxgocNG8ZxcXE8YsQIjo+P55ycHF6/fj0Tke5yBnbH9p3bQiBHAbAWyFEA7AfkKAiTXkT0OvmL0H8T0QzyScxQ5aj4+K0h5tMd5WgvItpM/vdQFKa3m7gOAEJhAflGLT/Z/u8W8r3e3HKBaMnRvtse4fgtDxjGj7eOUJUduvtppR1xtGPfbY/wd7cM595b7veLK7YkqsolbHtYaeOVr1JUx67JfihgPmJZWY4yM/9Us/5p783DuPfme4NGwraONsKRo2+d+EBVr8/WB3XvQe8t9/vdy7t3TVTauUp4vO+2R/hHW0cYttN7y/2qspGWo68cW6oq/5OtIwPmIkpyyNEAFxKJcnansbGR3W43NzQ0RLTd5uZmbmho4Kampk631dDQoEzTt5rm5mb2eDzc3NwcsJzb7WaPJ7z1QuyG7Tu3hUCOAmAtkKMA2A/IURAmT1KHxKsiojvIJxJl+lDoclScVj8+xHy6oxwVN6B6jYieI6IX2v87lMytmwpAML5FRIOFf/9c+P8LyLcx03ki+pH8YDTlqNm4Nvthrms5p7TzYcXnYbWzSxCPLW0evip7ZFjtiHL0jRMrw2rjtpzHlDbCkaNt3ja+Whj1aTauy36Ync11SjuF9cfCyj8acpTZX3ybDcjRABcSiXIAdHds37ktBHIUAGuBHAXAfkCOgjAQNwuqJ6Kf6JS5mkKXozcJj5vdVEmmM3K0jKyRo/JyBDlEdKGJfAEIhd7kmzrvJp9s1+N75Ftn9A7xQavl6DXZD/Hmmjy/tmYdXRySXF1wfLlfG9XuWv7h1gdCzkmUo8zMf9g3q8vlKDNzSUMp/yQEwXtN9kP8WXWuXztLSlerptdbKUdPN53hq7aGLq0hRwNcSCTKAdDdsX3nthDIUQCsBXIUAPsBOQrC4ELyCT1Zjv5Ac7wXEf1/FLoc/QYRbRWOvUL6wjGBiF4iol8Kj3VGjmoFr7h5VLTkaC8iek+oX0VELxLRX4jod0Q0nIhuI98mVwCEw2DqmDofEtGUoxd9fo9hDNrxJ15ZlhVwLdC6lnP8zol/B2zrb4ff5HMe45msXq+Xd509xL/Ne4Zv2fFHwwgkR5mZK5tqePyBl/iizffx97f8JmgkfJGk1BXzzTmTH9I9bfW28qqKTfz/do41vAdxm+9jx8lVAe/l+dYmfvv4B3zttlEBnxcxXj76TsDclpev54s236eEWdq8Xv73qU+53/bfq+pr41pMqzd3IZEoB0B3x/ad20IgRwGwFshRAOwH5CgIE1HsvU2+afTfJ5+QEQVnKHKUyCcExbqfElEiEd1IRPeQevOnKiK6tL1eOHJUvIZUIrqbiNLIN2r1kvYy0Rw5OlpzrUaR1379ABjxTSKaTkQlkWgsWnLUzIZMduIWYSf1Ptv85SjoeuKyR0COmrmQSJQDoLtj+85tIZCjAFgL5CgA9gNyFITJ3RRY6B0gtTgUR2MGkqNERCOCtC3HJPKNwCQKT44+EKDtCe1lIiFHZaErytELiWgWqe/X3gD5lBFRnIlrAj2TbeRbt/bHkWgMcpS5wXNeNe38u9kPWp1Sj6fN26bakOm2Lx6NSLu29yeQowCEh+07t4VAjgJgLZCjANgPyFHQCe4nn/ATJd5eInq4/fhE6hhZ2kuoJ8pRcXMYkWuIaD75S8Iq8m1apF3nVBSV/yZzcpSI6M8653iGOtY7FeWotl2z53yV/Nc2nUMdU/p/LZS9gHwb6PyAiO4l367i8jluMXlNIPb5PRH9d7Qaj3U5Grd5GP9gS2LA0K5vub1qt9VpxzQ/zB7BfbY+GDCuyv6t6jl5XWdN2XCwvT+BHAUgPGzfuS0EchQAa4EcBcB+QI6CCHAZ+abUXxKsYBhc0N7+5eTbYCYaXEy+jWkuo67ZGOnb5Jsqz0SUEqTsXynwKFvQs+hHRKeJaBX5lrKICrEuR6/c+mBIG/98f0tkpm8DY36qEZ/B4qrskRE7t+39CeQoAOFh+85tIZCjAFgL5CgA9gNyFIAupzd1jAg9Rup1SEUuJaIs0l+vFPQcbhb+/0Yi+mG0Twg5Kki4rSO5sbXJ6pRjnlDk6FVbR/Jp95mIndv2/gRy1D64XK5O1T927BifPBm6jALhYfvObSGQowBYC+QoAPYDchQAS3iL1EsFPEY+CfZTIrqJiMaResmCydakCSzkN0SUQ0Tbu/rEkfx+9Z3P71amqtNngzvdXiT45Y4/8ZCd4wLGQ7uf5WxnPnu9XqvT7RGIu9AbxcAvHuWVFZ9F/Ny29yeQo/bgnXfeYSLipKQkbm1tDbl+UVERExHfeeedYdUHoWP7zm0hkKMAWAvkKAD2A3IUAEu4lDqm1geLv5H5NVRB9+abwv//k4iGWJEEvl+BnoTt/QnkqPV4vV5OSkpiIuKEhAQ+f/58yG3IcjQpKYnb2tqikCXQYvvObSGQowBYC+QoAPYDchQAy+hFvk2X0slfiB4goheJKMGy7EBX8nMiSiOiv1idCBHkKOhZ2N6fQI7ag40bNzIR8ZtvvhnWkHJZjo4cORJytIuwfee2EMhRAKwFchQA+wE5CoBt+Bb51iP9ltWJgC7lPiLaQ0RjLc5DAd+vQE/C9v7E4XCUygk2NDSYuhCzFwy6DsjRrsf2ndtCIEcBsBbIUQDsB+QoAAB0Kd8lomeEf3/fqkSMwPcr0JOwvT9xOBy75QS//vprUxdi9oKBeY4cOcLPPfccZ2VlqR53u928atUqfvzxx3nq1Kk8ZswYTktLY6fTqSony9Fx48ZxRUUFz5s3j0eOHMlJSUnscDjY7Xaryh84cID/+te/cmJiIo8ZM4YXLVrEVVVVUb/OWML2ndtCIEcBsBbIUQDsB+QoAAB0Gf8kojoimml1IoHA9yvQk7C9P5F8sCRJvHPnTlMXYvaCgXlWrFjBRMSLFy9WHjt79iwPGDBAd8Hw+Ph4LioqUsrKctQo7rzzTvZ4PMzM/Mknnxi26XK5uvzauyu279wWAjkKgLVAjgJgPyBHAQAgqlwj/P9DlmURAvh+BXoStvcnKSkpD8oJrlixwtSFmL1gYJ5Vq1b5ydGpU6cyEXGfPn04Pz+fm5qa+Pjx4zxo0CAmIu7Xrx+3tLQws1qOjhgxgktKSri2tpbXrVunPL5u3TpuaWlR6mdkZHBTUxPX1dXxihUreNGiRZiSHwK279wWAjkKgLVAjgJgPyBHAQAg4lxEvg21aojo1xbnEjL4fgV6Erb3J5mZmRdIknRSTvLo0aNBL8TsBQPzaOXoiRMnFKl5+PBhVVmn08kJCQlMRLx7925m7pCjgwcPVoSpzLx585iIeMyYMVxfX8/9+/fnuLg41chTEDq279wWAjkKgLVAjgJgPyBHAQAg4owhopeI6AqrEwkHfL8CPYlu4U+WLFkyQU5y+fLl3NzcHPBCzF4wMI9Wjsqyc8SIEcp0eJFJkybplk9KSvIb/Xnw4EFls6aWlhYeOnSoIl5nzpzJe/bs0T0HCEy36NwWEUtytLXVa3UKAIQM5CgA9gNyFAAAOs2jRPSh1UlECny/Aj2JbuFPtKNH169fz16v1/BCzF4wMI9Wjsr/1pOdzP5rlAbarV57rKKiwm8t0/j4eN6xY0f0LzSG6Bad2yJiQY7mHnXz9U+V88CpFXzTpHJO/bSe29ogSkH3AHIUAPsBOQoAAJ3iIBGtIKLbrE4kUuD7FehJdBt/smTJkiGSJLXKyWZlZalGkEKORhetHBVHe+rJ0ZkzZ5qWo0eOHFGOtba2Ko8fPnxYmXJP7YK0uro6ilcZW3Sbzm0B3VmOrv2ykftP9ElRbdw0qZzfWuuCJAW2B3IUAPsBOQoAACHxSyK6Q/j3d61KJFo4HI4q+XPhzJkzUfjkAcAe1NTUKN+BHA5HpdV9LyiSJE0Wv7gtX76ci4uLmRlyNNoYTauPj4/nqqoqVVlxU6XNmzeryo8ZM8Zv1O/8+fOVY3qi1eVycWJiIhMR5+bmRukKYw/IUWO6oxxN2VCvjBQNFrdOqeBZ6We7ND8AQgFyFAD7ATkKAACm6EtEeUS0i9Q70McckiQVyJ8LRnu/ABALHDlyRJSj+Vb3PVNIkvSk+OVNkiRes2YN5GiU0cpRj8fD99xzDxMRjxs3jhsbG5XH//GPfyji1Ol0MrNapubn5yvtbtmyRRkZKovUjz76SNnIidknR2XZ+tVXX3XVJXd7IEeN6U5y9OUPnHyjwUjRgVMrOG2Ty/D4rVPKecLbZ9iDdUmBzYAcBcB+QI4CAIAh3xP+/9dENMiqRLoSh8Pxnvy5gCXuQCzzxRdfiN+DJKv7nmkcDse9kiTViF/iHA6H8v8NDQ2GF40fUOGhlaPMHVPrSbM2qPz/69atU8rKclSM/v37K/+flJTEra2tXFxcrDw2atQo/vvf/660OXLkSGzMFAKQo8Z0Bzk6WarlmycFHynKzDx0ZmXAMrdMLuff/qOK3S2dk6QlJSWRuDTTnDlzBlN4YhTIUQDsB+QoAAD4MYiIPiCi7VYnYgUOh+M38udCWlqaMiAKgFiisbGR09LSlO9AKSkpw63ueyGRmpoaJ0nSy5IkNWjl6Ndff2144fgBFR56cpSZ+fjx4/zEE0+opOewYcP8/rIky9G5c+eq1hElIn711VdV0nPjxo08ZMgQVZmZM2eyy+XqkmuNFSBHjbG7HB0w2dz0eVmOXjPBXPnbplRwVl5oX2rS0tJUfTHanDt3TnU+jBaPTSBHAbAfkKMAAODHJ0Q0xuokrIKZezkcjoPyZ8O6dev8lsgDoDvj9Xp57dq14qDLw1b3u7BJTk6+JCUlZZQkSUXyBe3cudPw4vEDKjzWrl2rK0dlmpubuaGhgZuamky119zczOfOnQs4ErShoSGkNoEayFFj7CxH0z4/Z0p0DphcwVeMPcXMzH9eWMM//bM5QdrvyfKQ8klNTYUcBREHcjQ0GhsbuaSkhIuLi/nkyZN8+vRpPnfuXNB6TqeTi4uLubi4mEtKSkz/oGlublbOJ0ZJSQm3tLR09nJiBo/H43ef5OWEuiOQowCAHk48Eb1CRCOsTsROpKSk3Cd+PmAPEBBL7Ny5U/X9Z8mSJfdY3ec6TUpKyoPyBa1YscLw4mP9B1SkcblcfPDgQWVDJCM5CuwH5Kgxdpajo+dWqabDj55brRr5edu0Cm7xGAuOv7x1hm+b0iFKfzWjku+aoZ52HwqQo9Yir+3cVfe/q4AcNUd9fT2//PLLfsvSyBEfH8+ZmZmG9ZcvX66UjYuLMyXuPB6P3+wNMfCjyIfX6+WHHnrI7/4sWLDA6tTCBnIUANCDSSSiKiJ6nogutDgX2+FwOJLFz4jMzEyura2NwicRAF1DTU0NZ2Zmqr77SJL0ltV9LSJkZmZeIEnSSfnCjHZTi9UfUNFi/Pjxqh9WpaWlVqcETAI5aoyd5Wi/JzvEZsJffKM8l31WzzdPLueVWztGip2q8fAba31LTWw9cJ4Pn2xWtXPTpHK+7/nTzMy8YrN6NKqrwfzIL8hRayGNeIkVIEeD43K5VGtzG4W4+aEWeUmcYOVEGhoaOCEhwfB84oaJPRmj+9Sd/4gMOQoA6GGII0T7WpZFNyAtLe3bDodjv0Yk8caNG7mgoICrqqqi8KkEQGSpqqriAwcO8MaNG7VSlCVJ2mN1P4soS5YsmSBf3PLly7m5udnvhsTiD6hosn37dn777bd55cqVXFER2ogzYC2Qo8bYVY42t7TxrVPU0+Cv/Us5l1Z1LD/hamjjn7WvSXrleJ88lafi3/BUOecddStl27xeTnzxtN/U+t+/Yv4LDOSotRDkqCXt2YGFCxcGFaNExP369TOc6i6OHDUrR71eLz///POQoyb4v//7P8jRdiBHAQDdiBeJqJ6IZludSHciPT29tyRJW3SkEgLR3SM7PT29t9V9LKJoR4+uX7/eb30t8SYAEMuIr3Wr+6bdsKsc3VnYpLtO6JCZlUqZOcvP8m3tAvWH/+NbczRrd4NS9jcvnua29ve9/cfcuu31DWHd0WBydNeuXZybm6vEqVO+nHbs2MGfffaZEiLnzp1THWtra1MdE893/PhxTklJ4bFjx/LYsWN54cKF3NraGjTvpqYmnjFjBg8bNoxHjBjBs2bNCrp+bbdqzgAAIABJREFU8alTp3j27Nn8+OOP84gRI/ixxx7j559/ngsLC1XlCgoK+JVXXuE//elPfN999/Fdd93Ff/rTn3j9+vVB82JmPnbsGE+ePJmHDh3KjzzySMBpuKQRL5s2bTK8ryKLFi3ihx9+mO+9916eNGmS4WwKkYULF3JSUhL/+te/5tGjR/PcuXP55MnQ+4gZIt2PYvGzfdKkScrzPnr0aC4vL2ePx8ONjY1cUVHBu3bt4k8++STgjI7GxkY+ffo0nz59OuRRHR6Ph1tbW9npdKpGSEKOqvF6vTx27FjIUchRAIC9+Z7w//9LRHFWJdLdcTgc/ytJUp0NhBYC0alwOBxOSZL+anWfihpLliwZIklSq3zBWVlZqhGk4s0AIJYRX+tW90u7YVc5+teUWl2Z6Wn1yU53i08iFp9q4f4TyxXJmXO4iW+dUsGZ2xv82rzuL/obNZklkBydN2+e6thll12mHBs8eLBhvePHj6uOiRuzaeWoUcybN88w52HDhhnWe/DBB/3Kb9y4Mej5ZMzkduTIEd28Wltb+aqrrjKs9/rrr/vVMZuXzEsvvWRY9sorr1SJaJk1a9YEPMfx48cN73W4RLofxdpnu9frVcnRbdu2WZZLU1MTDxgwIGw52trayqWlpVxQUMAFBQV84sQJbmjwf6+KNs3NzXzs2DEuKCjgwsJCPnXqlKlNrUQqKir40KFDXFBQwMXFxcp1zJw5E3IUchQAYE/+h4jyieh2qxOJJRYtWnSpJEmTJUn60mrBhUCEGg6HI1eSpInJycmXWN2Xoo7k66jKxS9fvpyLi4s7/cUPgO6E+Fq3uk/aDbvK0asn+IvM65/yCdCN+ed5wORyrnZ2jJpsbe0YGX/e3SG9fjmtgq9pF6eOrHpdOdrU7C/J9DCSozt37gwo6qItR4lId6TmjTfeGLTeL37xC1WdtWvXBiz/6quvKmXN5qaHmXr/+c9/Qqoj8tprr4WcW0tLS9DyZnc4D4VI96NY+Gz3er28YMEC06+x+Ph4Lioq8msnkOxftmxZyHmFK0c9Hg+vXLmS4+PjdXOZMmWKqRHNnaWxsVH+HNSNgQMHMhFxUlKS4ejyAwcO+G2OJsfs2bNV/4YchRwFANiG54hoKRHdZnUiAABgGZIkPak1xGvWrImJH1AAmAFy1Bg7ylGv18u3TPaXmPf+zTel/udP+/5965RyPlFpvKFS/0nlqtGhJytbdOXo80vN7TCpJ0crKir8BIF2RGIk5ejSpUs5NzeXb7755oCi7+OPP1Ydu+yyy7iyspIrKys5Li7OsJ5Wjo4fP57/85//cHp6Ol955ZV84MABpay23KFDh3jfvn1+eS1cuFB1jhEjRqiOJyUl8ZkzZ/jEiRMBr0l77O6771birrvuClj26NGjfObMGR4+fLjq8c2bNyt1tDuhf/jhh+x0Orm6upo3bdrkl0+kgBz1J9hGSHqhfZ1pp3hrIxxxF44craioUNUJFOnp6SHnZBbtkgCBIi4ujisrK/3aSE5ODuk5gRztOXK08LE7GIFAWBMG3fJOInpZ+Pc3u+CtAAAA7I/D4bhXkqQazRBa5f+tmNYFQFdw7tw58TVfanVftBt2lKOnajy6EvONzLPMzJzwl3K+bUo5D5hSzks/rWdm5rpzrTxwagX/dm41MzNXOT18w6RyvnVKuSJHz7vbdNsd8LS5qfVaOdrY2BhUjDJHTo7W1dWp6j766KOq4+JGcZdccony+IUXXuiXk1jvtddeUx7XytFAiOWSk5MNj2lHp4rH7r33XtWx+vp61fGSkhLdeoFymz59esByt956q3Ls4osvVh6fNWuWql40RonqATnqT0tLCw8aNCgkEbdu3Tq/dsQp3troCjnqcrm4f//+IV2HKOwjidlNreTIzc1V1c/IyAipfrj32C5AjoaG1XIIgejJodMl9xDRdiK6p2vfCQAAoJuQmpoaJ0nSy5IkNWjl6Ndffx2Fr5YAWM/JkydFObrb6n5oN+woRx3rXboSc2aKb4Tn+p36f8y5eXI5P5niPwr0WLlvdGljk4EcnWxuUyatHNWGuKazSLTkaGtrq+r4888/rxwTH3/ggQe4oqJCFeKU+xtvvFGpFw05qm1HfHzNmjV+uYnHV6xYYapNkW9+85uqctr2X3/9dd12tm/f7ncOSZLY7XYHvA+dBXJUn/r6et6/fz8XFBRwYmKi8py8++67fOjQIc7Pz+eCggLOz89XlgvS4vF4+PDhw0pZUbh2hRzVTjMfPnw45+fnc0uL7z2pqqqKFy1apCqTkJDA58+fDzm3YIjrtiYkJCgbxjEzV1dXs8PhUI7HxcWpvheWlZX59Y3U1FSur/f9caq8vJyfffZZyNF2IEcRCERXBhH9mIiuEbrkAIveCgAAoHuRnJx8SUpKyihJkorkL347d+6MwldLAKzniy++EH/kOKzuf3bDjnL0yvGnVPLyhXQn7zjov/5dXUMb7zrqVjZpEsnae55PVrb4jf7bc7SJp6XU8t0zK5X2b5tSoVqz1IhAcvSZZ54xrBctOcqsFoa33HILMzO73e6QRnddddVVSnvRlqPHjh0LKbd//OMfQdsMlJeZELn88st1y9x+++2GazB2FsjR4EydOlV5Lvbv3x+RdqItRxsaGlSjRuPj47myspLdbjfX1dVxXV0dnzt3jj0ej9+ozjVr1oR9jXp4vV4eP368Sn7OnDmT16xZw3v37lWm0L/zzjscHx/P48aNU70Xad/7tmzZonueN954A3KUIUcBANGn8LE7+POHB/Kwn1zORFRORFdZ/T4AAADdlpSUlAflL37i6BwAYomMjAxx5OgDVvc7u2FHOXr9Ux1rhf75rRqub2zj1z928R/m+abM7y5y803CeqLOc61+bfys/fitUyq4f/u0+hWbz/HI2ac5+0ATV5zx8G1TOgRsXmFw8RVs5Ojf//533XpdJUfl6evNzc0hycGEhASlvWjL0YMHD4aU2xtvvBG0zUB5mQkto0ePNizrcrkC3pNwgBwNjig1Q90h3qidaMvRoqKikF+LncktGJmZmUHPO2HCBM7KyvKrK446nTJliuE5WlpaeMiQIZCjkKMAgChT+NgdPPf/Xcdv3XV9j3mfAQCAqJGZmXmBJEkn5S9/XbFTKgBdSWFhoWq90Tlz5nzD6n5nN+woR8fMr9ad/j5wagXnHvJNN739Wd/Iz2smdEwNvf6pcq51+UTpFKlWkaMyN04s123zljCn1Z8/f95PLuitF3j//fdHRY6Wlpaqjosb0oiPP//889zQ0BAwZKItR7U7wufm5nJtba1hiFPajdoMlBcRBWy/ttZ4My7t9Hsi4h//+McB70k4QI4GB3I0MixYsMDU+adPn86trR1/dBLv2+rVqw3b93q9PHToUMhRyFEAQJTRTKsHAADQWZYsWTJB/vK3fPlywzXzAOhuuN1uXr58uShH/8fq/mZH7ChHvV4v933SQGRO8YnMZo+Xr3+qnD/f55Ol09/1ydA7/tc3PdTd4uXbplTwydM+2fhyhtNQuJacMt7xXkRvt/qamho/saBdo/KZZ56Jihzt27evYV3x8W984xumro+569ccFaf0ByNQmyKPPfaYqtyZM2dMn0OPq6++2vQ9CQfI0eB0Rzl65MiRsOXoggULwr5GI5xOJ58+fZpPnTrFH3/8MT///PM8cuRIjo+P181h5cqVSl1x5Oi7775reA6v18tJSUmQo5CjAIAoAzkKAAARRjt6dP369V22Qy8A0cLr9fLatWsxatQEdpSjzMzNLV7V1Hkxfj3TJ0DbvF7l/UpcP3RX+xT5Rrdv5/ivvm42FKNvfWR+mrSeHGX2F4riMWb/qeS9evXiV199ldesWcPjxo0zLUfnzp3Lhw8f5tzcXP7Rj36kOnbRRRepzikKCvmcI0eO5JMnT/Lx48f5ww8/5FtuuYUHDBigqtfVcpTIt/5heno6NzY2cmVlJX/44Yd844038r/+9S9Vvblz56rqxcfH88cff8z/+c9/+JZbblGkdFVVld85Bg0axCdOnOCGhgY+dOgQ//Wvf+VLL71U1f7GjRv5/vvvV40mbWlp4W9961uQoxYTjTVHA0k+I1paWlRyNFAuLpeLExISlLL9+vVT1hqtra3l06dPK6OX6+rquKGhQTke6fVtT5w4oXof0VJXV8f79+/nYcOGKeXGjx+vvL/OnDlTeTwhIUHZiEmLVgiHc4/tAuRoaECOAtC1QI4CAEAUWLJkyRBJklrlL4FZWVkYQQq6LU1NTZyVlSX+sGlJSUm5w+p+ZlfsKkeZmWtdrYZSs++T/lPhDxS72dWoXn/0pWXGI0ZvE6bcm8FIjjKzauMVoo71P2VII+uMIpAcDRR6hFO3K+Sox+MxldekSZNU9bRT8rWRnp6ulH3wwQdDvvYJEyYELf/LX/4y4D0JB8hRfSoqKpRd5vV2qz9w4AAXFBTwkSNHuKamxq9+c3Ozsqu93m7148aN48LCQs7Pz+fCwkI+evQot7W1qdpwuVy8b98+pX5OTo7q9ZCSkqKco6ioiE+cOKHU9Xq9qhGXRMQzZsxQ7QIvn+PQoUO8dOlSfuqpp3jkyJG8b9++iN5L7RT/5ORk1T1rbW3lY8eO8ZgxY5QyI0eOVKbWZ2dn+/2x4dChQ6p7vWHDBt0+XFxcHLXNzKIJ5GhoQI4C0LVAjgIAQJSQJGmy+EVw+fLlXFxcbPX7PgAhUVRUpNqACdPpg2NnOcrMnLHpnGrjJDEcn9bzeXcbVzlbua3NN8LJ6/VyfWMbb2mfbn/LZP3RpzdOMrfOqEggOcrsLwRbWtTT9S+++OKIy9ELLrjAbxq/yA9/+EPbyVFm37IXvXv3DpjXFVdc4VcvNzfXsPzgwYNVZcW1D81c+0UXXRSw7CWXXBLwfoQL5Kg/oU5Jj4+P5+rqaqW+1+vlUaNGhdQGkXpUpXbkp9nYsGGD0kZFRYVhuYEDBxoeE9cPjgRG65/GxcUZ5vH6668HvZ9xcXEqcW0UY8aM8RPPdgdyNDQgRwHoWiBHAQAgikiS9KT4ZVCSJF6zZg0fOXLE70c+AHahpaWFCwsLefXq1ax9/UqS9KTV/cru2F2OMjP/YUGNztqjvlGf6o2V1GW+rvLw66vq/OrePLmcWzyhLx9SUFDAqampSmjZv38/Z2VlKbF161a/Mi6Xi8eNG8d33HEHDxkyhO+++25+//33DdfFbG5u5pUrV/Ldd9/NAwcO5Ouvv55vuOEGvuOOO3jnzp2m8m5tbeW77rqL+/fvz9dddx3379+f77rrLl61apVf2aqqKt61a5cSgaiurlaisbHR8JgorbSUl5fzr371K77hhhu4b9++fNNNN/Hw4cN5y5YtAc+9aNEivv3223nQoEF89913844dOwzLzp8/n2+99Va+9tpr+YYbbuDbb7+d58+fr/u59tJLL/GAAQP4iiuu4CuuuIKvuuoqHjx4MBcWFgbMpzNAjvrzySefhCwlxfU/m5qa/EZzm4k777xTGS1ZUlIScn3SEZv5+fkhtxHptTpDlc0JCQnsdDpVbZw9e1Y18jbc+9pdgBwNDchRALoWyFEAAIgyDofjXkmSanQkEwLRnaI6JSXlbqv7U3egO8hRZuZbnlYLzn9vPcdn6oyn3Q+cWsHjF/qmjWo3dPqqDH/sAfYh0v2oK/tltDh79qxq/ctgMWHCBL8R1BkZGSEJvLi4OJWU93q9PGvWrJDaGDRoEB8/ftzvelwuF7/88stB60+dOpU3bdoU8VGWTqeTR40axYmJiQFHrMbFxXFaWprh0koej4fT0tIM6xuN1s7IyIjo9XQFnelHkKMAgGgDOQoAAF1AampqnCRJL0uS1GADyYVAmA6Hw3HO4XC8lJ6e3tvqftRd6C5ylJn5Z8IGTbdMLjecMi9Gv6fUZVI/O9cluQJglkj3o67ul8A8LpeL9+/fz9nZ2ZyTk8O7du3iwsJCrqmpUS2pEW3q6ur46NGjvGPHDs7JyeGcnBwuKioynYO8nqt8HXv37uXKysooZ921dKYfQY4CAKIN5CgAAHQhycnJl6SkpIySJCnD4XDkS5JUYbX8QiA0Ud7+2syQJOlhSNHQ6U5ytKm5LagMDRSPvmY8vRsAq4h0P+rqfglALNKZfgQ5CgCINpCjAAAAAAARpDvJUWbm3MNNfmuLmonrJ4e+ARMAXQHkKAD2A3I0NCBHAehaIEcBAADYmdlWJwBAqHQ3OcrsWwuwuSW0AMCuQI4CYD8gR0MDchSArgVyFAAAgJ3BhxPodnRHOQpALAE5CoD9gBwNDchRALoWyFEAAAB2Bh9OoNsBOQqAtUCOAi1ut5uffvrpoLvbm4nx48dzU1OT1ZfU7YAcDQ3IUQC6FshRe7Fw4cLvSJL0qCRJ7zocjl0Oh6PSBntzIBABo/11+qXD4UhJSUkZs3Dhwu9Y3ZdA7IBp9aDbATkKgLVEuh+hX3Z/jhw5EhExKsfu3butvqRuR2f6EeQoACDaQI7ahyVLltwjSdJJq0UXAhGBOClJ0q+s7lMAAGAJkKMAWEuk+xH6ZfenrKwsYmI0Li6OS0tLrb6kbkdn+hHkKAAg2kCOWk9aWtq3HQ5Hsg2EFgIR6Xhr0aJF37K6jwEAQJcCOQqAtUS6H6FfxgYVFRWcn5/fqTh06BBXVlZafSndks70I8hRAEC0gRy1lvT09N7S/8/evQe5UR5oo3+3zm59+1WWrVOntub8w9bW56qTU4etQlXU51OUfZwlhKxwsURkv8RhU2MrwZB1HGAgXIQdLk4CDLdY3IwkAxE2AWETUOwljA3EChgzXBzLNnjaHtsjj2fG8sx4RtaMND1XPecPqVvdUkujuemVpp9f1VtgqW/qbrW6n3kvgcBfjL8V27ZtQzQaxdmzZ5FMJmWfIkTTSiaTOHv2LKLRKLZt21YYkB7csmXL38n+rlH9YrN6qjsMR4nkYjhKVHsYjs4Mw1Gi6mI4Kg+Av/L7/e8Zfyd2797N/r2prqXTaezevdt0/+P3+/fI/r5R/eKPE9UdhqNEcjEcJao9DEdnhuEoUXUxHJXH7/evNf5GtLa2yj4diOZNa2trYQ1St+zvHNUn/jhR3WE4SiQXw1Gi2sNwdGYYjhJVF8NROTZt2vTXgUCgS/t9CIfDyGQysk8HonmTyWTw9ttvG2uPng0EAn8j+7tH9YfN6qnuMBwlkovhKFHtYTg6MwxHiaqL4agcfr//e9pvw8svv4zh4WHZpwLRvEsmk3jppZeM90I3yP7uEREtOIajRHIxHCWqPQxHZ4bhKFF1MRyVIxAIvKr9Nuzbt0/2aUC0YD744ANj7dGg7O8eEdGCYzhKJBfDUaLaw3B0ZhiOElUXw1E5/H7/Me234auvvpJ9GhAtmKNHjxrvhY7I/u5R/WGzeqo7DEeJ5GI4SlR7GI7ODMNRoupiOCqH3++/oP029PX1yT4NiBZMb2+v8V7ovOzvHtUf/jhR3WE4SiQXw1Gi2sNwdGYYjhJVF8NROXiPRXZiPN9lf/eo/vCkobrDcJRILoajRLWH4ejMMBwlqi6Go3LwHovshOEozQWb1VPdYThKJBfDUaLaw3B0ZhiOElUXw1E5eI9FdsJwlIhsheEokVwMR4lqD8PRmWE4SlRdDEfl4D0W2QnDUSKyFYajRHIxHCWqPQxHZ4bhKFF1MRyVg/dYZCcMR2ku2Kye6g7DUSK5GI4S1R6GozPDcJSouhiOysF7LLIThqM0FzxpqO4wHCWSi+EoUe1hODozDEeJqovhqBy8xyI7YThKc8GThuoOw1EiuRiOEtUehqMzw3CUqLoYjsrBeyyyE4ajNBdsVk91h+EokVwMR4lqD8PRmWE4SlRdDEfl4D0W2QnDUSKyFYajRHIxHCWqPQxHZ4bhKFF1MRyVg/dYZCcMR4nIVhiOEsnFcJSo9jAcnRmGo0TVxXBUDt5jkZ0wHKW5YLN6qjsMR4nkYjhKVHsYjs4Mw1Gi6mI4KgfvschOGI7SXPCkobozX+EoCwvL3Mt838iwsLDMvcwUw1EiWmgMR+WYy28DUb0xnu+yv3tUf3jSUN1hOMrCUjtlvm9kWFhY5l5miuFofRrvj2O8txuTyUHZm0I0LYajcszlt4Go3hjPd9nfPVuRfeDJTPb5QNXDcJSFpXbKfJD9GVhYFluZKYajcg3s2YGuZ3+BHt8vcf5VLzA1Oe08U+lhtLlXoK1xGU6svw6YnH4eIpkYjsoxl98Gqi2jo6NFr/X19aG7uxsDAwMStqj2GM932d89W5F94MlM9vlA1TOXcJSIiIjMGI7KMzWSgvLjq/LB0erlGD17avr50sP6fNlwdKIKW2stffwwkq3vY7w/Lm0bqPYxHJWD4ahZJBLB2rVrcccdd5Qtq1evRltbm+zNBQCkUimsXLkSQgg89NBDmJqa0t9btWoVhBBYsWKF6XW7YjgqiewDT2ayzweqHoajRERE84fhqDyJfX8whUZtjctw7uXHpp2vOByVU3N0Kj0M5Uf/grbGZUhEdkvZBqoPDEflYDhq9uabb0JkuxactrS2tsreXACAoij6Nl166aUYGhrS37vtttsghMCqVasYjoLhqDSyDzyZyT4fqHoYjhIREc0fhqOSZKZw6u4fFIWjbe5vIDOqlp21VsLRicE+vXn/xY/3SNkGqg8MR+VgOGqmhaOXXHIJNm3ahCeffNKyPPzww7hw4YLszQUAxGIxPRxdsmQJRkZG9Pe0cPT6669nOAqGo9JU/1AnEPK44G5uQfnbpXoRR9jnRSiizMvSZJ8PVD0MR4mIiOYPw1E51A6lOBjNlemCxloJR1NffVHxNpO9MRyVg+GomRaOXnrppUin07I3p2JHjx7F22+/jXPnzpleZzhqxnBUkqofaVWBSwgIZ6j2wtFEFMFQZEbbpYRcub+AuKDMwweSfT5Q9TAcJSIimj8MR+XofmGTvg1nf3Mv+t56Sf/36fsagUym5Ly1Eo4mP/1A3+ahz/ZJ2QaqDwxHF9S3S73BcNRMC0cbGhowODgoe3PmjOGoGcNRSap/qBW4hYBw1V44mg06nYjOYMNUJZQLR5sxH923yz4fqHoYjhIREc0fhqPVVzgQ0/ChjzHedw5tq5frAzON9ZS+z6koHM1M4cIfX8epe3+oL1f58VWIPXSLdZCZyaD7uQdweuManH3qbmByEmPxs4g9dLO+ncrabyF9/DBGO09i6Is/I/bQLfp73c/dj4E9OzDQ8gYGWt7AlJrWP2vsoVtweqMbfTsDQCaD3tAWHL/5Gn3eLu99mBpJZadX04i/8hROrL9O3+5Td61CYt+u0js0k0Eishsd9/84vw8bl6H99htw4Y+vFwfNhZ91ahKjZ0+h84k7oaz9Vj6k3rgGqaOflVzt5HASfb/fipN3/i9T+Hd64xoMH9pfcr6JwX70bH0k+xn1fXs1zj51N0ZOfonxvh6M93ZjvLdb3y/GeeOvPIUTP/s307xd3vugnmkvWpfaoeDUvT/EqXt/iKGDHwKZDPp3vVK0/zG1sAE7w9EFlRRCjAoh7it8g+Go2WzC0dHRUfzyl7/Ez3/+c/T396OtrQ1utxtXXHEFli5dip07dyKTu8b86U9/wurVq3HFFVfA6XTi8ccfLzmS/BdffIF7770XV155pT693+83NZsvXP/HH39seo/hqBnDUUmqf6hz4WgN1hxVgk4I4cb8NJCfHdnnA1UPw1EiIqL5w3C0+owDMR2/+RpkxseATAYdD9xkGJjp8ZLzTxeOjsU7TeGrVel87A5zIJbJ5PtAXbMCFz/6o96fqLEk9v0B7bffUHbZxgGaJpOD+qBNbY3L0N70Xcvp25u+i4nBfihrry65zB7/r4v2xWjnybLztDUuQ+xX60p/1sZl6PJ6ys4/0PJG0XovfviOKYi1Kn1vvVQ0X+pI67T7zmo/AkCy9f1pp+/ftc28PkPXBz2+X6Lr2V8UzXP85muAyYmS59t8YDi6oNxCiJTIBqSqMISkDEfNjM3qKw1HU6kULrvssrKDN23duhVPPfWU5XuXXnqpqf/SZDKJxsbGksv6+te/jlQqZbn+559/3rRtDEfNGI5KAqho8Tjh8kaQSCjwNbngcDjgcDjgbg4joR+iGJpdDrg8hX2FWryeiJqW43J7EFG0JWk1R4OIRlvQ5HRmp3O64GspHUvGWprhcHkRjUXhczvhcAg4nG5EYiqgxhD0uHPrc6LJ22LYbm2TWuBxu+BwOOF0OuHy+BDVJkooCId82eb+QsDp8SHo8yKcmyDW0gyH04e4mkBLsxsOISCEEy0xNfv5nQ40BaOm9cX19eX2QZMXkVh+q6JhH1xOh/7ZPcEIEmA4aicMR4mIiOYPw9EqKxiI6fx2r/7Wxf0t+RDJ/Y1saGqhXDg6mRw0B6OrlyP+ylO4+OE76Ak8bAqpTAFsJoPTG1ZPG76pp46h87E7cGLdtaZwUPnxVTixbiVOrFuJtjUrMPR5pGhbjaXL60H3c/eXXE/Hg2tx7uXHTcFqW+MypI8fzu+HkVTR+7GHbsH57d6i2pyD77817WdV1l6Ncy81F2+XewUmL+Zrf42cOGJ+f/VydHk9xdtbUAO4KCi+9TtIRHZh6OCHOPPw+uL9sHo5Ul9+DgAYPvyJ6b0T665F/x9eweCfwjjzyM9M7w0fytcuM4ajZcPjBcZwdMH1i3zApoekL7zwAsNRA+No9e3t7Ugmk7h48aKpJJNJ0zyqquLyyy/X52toaMC7776Lzz//HN/+9rdNweYll1yCHTt24NChQ7jxxhv115ubm/XlvfXWW/rr3/3ud/Hhhx/i6NGjpulffPFFy/UzHC2P4agkgIqQq/RfD4Q7nDtEpfoKLXhdzYWfQkA4nHC5HLllOXM1Mg3vCwEhHHA68v/2RQtjzdxaQm7Tdhnn0YrD4cj/v7dVnzfe0px/3ZkNVkWun9CoCqhK0PqzO4JQLdaXYyzTAAAgAElEQVStlUjC+PmD+n6JR5oNy3AattWBqGpentPlyoWtAo6gor1ONsBwlIiIaP4wHK0u00BMBeFZZmzUVAuy1CBH5cLRLu99+vyn7lpV1Cx7tLM9XyN0zQqMxTtzK7cIDN0rMPyXj4BMBhOJfoyc+spUA7P39ef0aZOf/mnabdW2d2KgV38/fexgUQ1MLVgFgMz4mKkJeY//V6blx4NP6mHqeJ95sJLu5x7IB5FN383vJ4vP2rvDZ2p+P3au0xRkDr73Zn7BmSmcuvc/stuz9RFkRvNPeZnxMZy8498tt/fiR3/UXz99X2NRjV/ts7Q1LkPXMxsNO3HSvA8CDxc1gx/84O38Z739Br0mqFU42v3c/ZhIXAAmJzDa2Y6JC+ctj918amtchp9d/o/GZ8KHDF/Jh/j6nF/fYfh/rYxdeeWVDEcNjOFoqbJixQpMGr6bxnDyyiuvNNU4HRwcRENDA0QuGD127Jj+3vj4OJYuXVoUXk5MTCAYDOKjjz4ybVvh9No2MBytHMNRSYzhqKMppPebqSphPbRriQOl+wo1v64FjQ5PRJ9CjSuIKnF9eq2GpieUr22phJoKwlgzLVB0uIP6NkZ9WsjoQChXMzW/3bnm8doAUMKJsGHEJG19+RA1kdsPLhTms8YwszkcRUJNIB6L5/ZDwX4xhMPNhpqwCSWCcEQBoCLkzG5zRO+kVIUSjSKusuaonTAcJSIimj8MR6vLOBCT1cBLPVsfKfs+UDocnRjsywefZfot7Q//Nh/AHsgFsIWB4TT9ngLmcLSSINdymZmMqV/TzseaipZhbE7e8eDaon2SGR0pmqdwf2QDQ+twtH/XK5bzn3vx0XxY+ewvit4vVbPXOFCVMRyNv/JU8X43MNYs7X7ufv31oYMf6vOVbAKfySD2q3X6fh7vzz4wFYajxuVWE2uOLrjCmqOjQogNW7ZsYThqMNdw1FijU1MuoNy8eTOEEFiyZElRX6JWtOlXrVqlL4vhaOUYjkqSD0ddRQMRRZqzNTG9rQnMNBwVTg9aY1a1QEv0OZqIZEPNEn2RagFlyNjyPpYbDMk0TwI+p0Wt0KYwElChJhJIqCrUeCQ3r1bjM78fCked19bt9Jmbzlt//tw2lRxwSgtHBTyh1qLm/9JOBKo6hqNERETzh+Fo9RQOxJT48J2iacrVLNWXUyIcNfZnefzmazDWcwZjPWf0wX3Ge7sxMdCLgXdD+nR6s/6CwNDY3L+U2YSjWmhXajmJSPHAS8aAL/t5K+wfc3Iyv273imxtSYvPmvzkPcvZhw5+NKtQcaT9qKn2rnZ8+nb6DZ9zd9F8433n9DDXuD5jqBr71TpMXDiP0e4O03GdvDiAM4/cqk83HD1QtO/a3CswOZwsWm81MBxdUG6R73N0VAixQXuDfY6aGQdkamtrQ29vL86fP28qxv5BgfLhJJAPKI2BptX6SvVxmkwmcfr0aSiKgieeeKIo7GQ4WjmGo5JUFAoGFVQajkJV4DE1TXfBF241zFPhcgpo2xI0bKQWRLpM/X2aP0+pJvH57as8HA0VvmGx3bFcjVSXKcU1i4U9pm1weXxojWWXXfUTgKRhOEpERDR/GI5Wj3Egpjb3CkwmB4HJCWTGx7JlYhyYmsTxnzj16awGZioVjhrDvEqLXiOyMDAs0UzeaCHCUasalcXhaImR1TMZjPWcwdDBjzCwZwfOv/p0vsn+6uUY7+ux/Kyltt243nLhaGZ0BGrsOC7ub8FAyxum5vzGMNcYXp9Yf525y4NMBp2P36G/3/t6PgQxhqOVFu0zGT+DqWuBKmM4uqCSQogxYQhFNQxHzYxhZWHfoqVUGo5aBZSlwtFkMolAIIAlS5ZYZi0MR2eH4agk8x6OAgDiiASb4TR+OZzBXC3JhQhHjUGk+fPEtOb4TSEoMQWKUlD02q3T74dgBeGoNm25cBQA4tEImt1O08UjGE1o/082wHCUiIho/jAcrZKCgZgqLhYDM5UKR/veDJjmPbHuWihrrzaXm76ZHzhp9XKcf/Xp3PZVFhgaLUg4arGc6cLR0c52dD5xZ/nR443rnqdwdPjQxzh9X2PZ42fc3sz4GNpv/Y5pm+LBJ9H7xgtov/V60zGfSg/p29rxwE0Fx3Vl8XFde3Xu9W+hbfVyy5qjZYPlBcZwdEH9a6k3GI6aVVKTs9B8h6OKopiyjMsvvxwbNmzAa6+9ZrkshqOVYzgqST4UzPXRaaA3q49mm9W7hIBw+AqagpcPNePRsN7H6Ez6Li0023BUm8bR3Fq8UJP5CUet+lwtv9o4WryuXNP/Fp78NsJwlIiIaP4wHK0OU3P5WdYC1JQKR9PHDlZU09FSnYaj53/3THEgue5axDb9BB33/3hhwtHMFDru/1HRettvvwGdT/zcNKhW4fZOJgfLHmtl7dVQO8xPl+aBrz4oeTym+wwMR+2H4aiZ7HB0YmJCH3SpoaEBhw4dMk2/e/duhqNzwHBUEuOATNqgRgCgxlpyAxs5zKOy6//OUsLNBf1+qogp5puFsNu8nGqGo0hE9Rqsxs8HqIhGWhCNqwXzOdE6h3BU7zu1sBl+PIpwJNv8X43HEDduSjycC3AjPPlthOEoERHR/GE4Wh3GgZhOrLsW/bu24cLu7ZZl4N0QTm9co09fODBTJX2OzrgJdR2Goxf3t5hCt/O/ewbjxpHXJyfzQeU8hqPGY9m2ejkS+/6AqfSw/r4xCC8Kc199Wn+v84mfo7P5dpx59DZ0v7AJyQN7i0ahB8zN6nsCD1tuaykMR+2N4aiZFlZeeumlSKfTFc0zn+FoKpXCZZddBiGsB3d65JFHGI7OAcNRSYzhqBACLo8XPm+T/u/8aO5AxKNN54DH60WT09BsXm9Wnm0q7nA1odnTjOamXK1I4a2sWf00AzLNOByFud9RV1MzfF5Pvsm/K6zP2dKkdQHghtshINzhkusu2m7D54n68s3l3c1e+Jrz+zMUU/R1e3whhENe/d/NkQRPfhthOEpERDR/GI4uvMKBmAbeDU07j7EWaOHATKVHq+/XRztva1yG1FdfVL6RcwxHS/VRupDhaM/WR/TXrUacz4yNWq97LuFoZsrUNF493VY038iJI5bbO5Ue1o/PmV//1HKdVkx9ybpX5JvcV4DhqL0xHDUzjla/bds2RCIR7Nu3r6js3bsXvb29ABYuHF21apUe0Pb19eHOO+/Ut43h6OwwHJXEGI66m8yDFzUFIwVBZQw+twNCOHLTuBCKRhF0GWtOKgh6XKblOFzNiOo1JacJR91hy3BUG+goZBWOhszhaLamqrl5vBIJwukwdhDsgCcYMXURoCphUz+p7txAT1brLtrugs8TDTXrNUhFLnANR+P6trgKtqU5nF2XYJ+jtsFwlIiIaP4wHF14hQMx6aOml1NmYKZS4SgAnN3sMTTR/hYmBnqLFj3eH0fX0xsQ3/abfI3UOYajfb/P14Iy9pG6YOFoJoPOx5r01wff+33RfMbR4ecrHM2Mj+H4zdforxtD6+wEU+hsvt0ykJxMDprC6+P/6cTZp+7GuZceQ+8bL2Dg3RCGowcwdr7LvMypSRz/yb/q88V++Z+WIWf6+GGc+fVPcfGjP5bfdxIwHJWD4aiZMRydrrS2Ziu7GQNNq3B0/fr1FYejmUxGn14rV1xxRdG6jcsqt/5y67YjhqOSWPU5qqpWIeDMqapqGXRKVeVtKrsPVLVoX8s+H6h6jA9xLCwsLCwsLPNXZP/GV0tVw9GCgZg6H7+j4llN4Z5hYKZy4eh43zm0uVeYQsF48EkMffFnXNzfgs7H7jAFVXoflrMIR43NvZW1V+PCf72qj7iuDQi0kDVHjfMpa7+F1JFWjJ/vRurIp6bPMr81RzOm43n6vkaoHQrGznchEdltCjGLjk9matoBnLRy6q5Vpi4Ckq3vm5e77lr0/+EVDB/+BAN7dpiXu3o5Jgb7y+67amM4KgfDUbM//vGPFYejhw8fBgBMTU3B5XLptU0Lbdq0Sa8JWiocXb58OcbHxwEA6XQaa9euLQpI33//ffT09KChoQE33nijvizj+gub4nu93pLrtiOGo5KUG4iIqk/2+UDVI/vBkYWFhYWFZbEW2b/x1VLNcLRwIKbUl59VPO943znTCOyJD98BUD4cBXKBWLmR23Pl5F3fx+RQrj3YLMJRY/PxwqJt17yEo4a+VLPLnQAAjJ49VdHn1Nfd1zOjz1qqz9GBPTvLrsvYhYJxe8f746bw9Ph/Ostuf2G/sf1vv1zRZ+1+7gG971KGo/bGcLR2pdNpqKqKVCole1MWDYajkhgHIooyHJVO9vlA1SP7wZGFhYWFhWWxFtm/8dVSzXC0/w+v5GsZblg943Cq+7kH9Pl7/L8CYA5H22+/wXKZE4l+dD29wTJ8O71xTfGo5wWBYfLA3oq2b/CDt4vWcXrDaqhn2ou2tW3NimnD0eFD+4veHzvXqdeG7XhwrWlwqtSXnxfV1mxrXIYu733IjI/lB21yr8DkxYEZfVZj+Kvte82F/3q16HMrN30TfTv9QCaD7ucf1GuWYmoSmfGx/OBQa1YgffxwftePj2FyKAE1dhzx4JP5ZVrsr/Txw+h4cK1l+Hvm0dswcuqYaXpjOFrqXKkGhqNyMBwlO2E4KonsA09mss8Hojr3N0KI13P/JSIiWtSqGY7WgonBPoz3dmMyOWjqD3S+ZCbGMX6+GxODfZhMDs778isxMdiH0e6ObB+rFiO+L4hMBuN9PRg/3z3t5zYGredf9ZZdph72lqhpCwCYnMiuO3dcjYFxLWI4KgfDUbIThqOSyD7wZCb7fCCqcxuEEGNCiI2yN4SIiGih2S0cJfmMNThP39dYsgZn6kirXiPV2CS/3jEclYPhKNkJw1FJZB94MpN9PhDVuVGR7RB8TPaGEBERLTSGo1RtUyMpc1+kuQGVUl9+jpH2Ly0Hy0r8+b9kb/a8YTgqB8NRshOGo5LIPvBkJvt8IKpjG0Q+HB0VrD1KRESLHMNRksE4sNR0pf/tl2Vv7rxiOCoHw1GyE4ajksg+8LLFo2F4vSEoCdlbkiX7fCCqY1owqhXWHiUiokWN4SjJMpG4gPgrT+HEz/6tKBA9se5adL+wCeO93bI3c94xHJWD4SjZCcNRSWQfeCvRcAiRmFqFNSlw5YIUZ1AxvB5H2BdEtES/4QtJ9vlAVKeMtUa1wtqjRES0qDEcpZowOYGpkRQmk4OYUtOyt2ZBMRyVg+Eo2QnDUUlkH/hi2cDS4YtWYV0qQq5skOKJ5JNQVQlBCAGfUo2A1kz2+UBUp8aEECkhRK8QYkfuvynB2qNERLSIMRwlqi6Go3IwHCU7YTgqiewDX0SNwikEXKGYvE1QghBCIKRMP+18k30+ENWha4QQCSFEY8HrjbnXv131LSIiIqoChqNE1cVwVA6Go2QnDEclqepRVuNo8XngcjoghAMOhwvecL6GqBIJw+dx5ZrEOuEL+uD1hVGqdXsi2gKP2wWHwwmn0wmXx4doru9QJeSB0+lEc0HCmYiG4HI64fK0QAUQa2mGw9mE1gQAJBAJh+BxZmuTujxeBH1eBMPVqMWaJft8ICIiIqL6wHCUqLoYjsrBcJTshOGoJNU7xDE0GfoDdDod+v9nm7SrCDlN/QXqxRctbt4eb2nW33c4nXA4tOldiKqAGgvr77do6aqqwJ17LZRrMq+EsmFsMKoCUOC0WL8QDlhswoKo7tEnWpQekr0BRERE1cBwlKi6GI7KwXCU7IThqCTVO8QJhJpc8AQj0AaGj7f6suGjMwQte0xEs03aXcEytTVVbSAlJ8KGfkGVUFM2LPW25v7tzi0/CBVAxJMNZJ2G/ky1aYKG5USD2cDU21r9IewlngpEiwW/R0REZAsMR4mqi+GoHAxHyU4Yjkoi97DHsjU5XflwVBsMyRUs3eGn1ieoaAojARVqIoGEqkKNR0xhKJCAL1ej1OHI1VR1eE3N9K3CUavXqkXiqUC0WPB7REREtsBwlKi6GI7KwXCU7IThqCRVP9JqHNFIC0JBH5o9uZqdMwxH9RqhpYojqC8P8Yihqbwj38S+YFkMR4kWDTarJyIiW2A4SlRdDEfl8Pv9vVpYdOHCBdmnAdGC6e/v14NRv98fl/3ds5XqHWYVEa/LFGLqtTlnGI7GcuGloykEJaZAUQpKzNAcPh6Bw7DOUEHnoQxHiYiIiKgeMRwlqi6Go3IEAoGjWmB0/Phx2acB0YJRFMUYjh6S/d2zlWod5HiLJxeENiMa18LLMs3qQ+Wa1WencTS3TrPWBLyFzepFE4xLLheOhhiOEhEREVGNYjhKVF0MR+Xw+/0vaYHRgQMHZJ8GRAtm//79xmb1AdnfPVup1kFWcoMc+QyBo6qEsrU6ncXhqNNbZkCmRFRvKh9SjIMmqYhGWhCNq6Z1ClcIANDSlAtKmyP57bIMR3MDMkU5IBNRHWKzeiIisgWGo0TVxXBUDr/ff60WGAWDQaTTadmnAtG8S6fTCAaDeji6detWp+zvnq1U60DHwlo/oW6EwmEEmw39hhpqjiLeor/ubsrV4IwVL8/Y76irqRk+ryfft6grDMTCufed0DNOQ6gazDWvtwpH4y1N+rxutwNCNMFiExaElJOAaHHh94iIiGyB4ShRdTEclQPAX/n9/i+10Gj37t3IZDKyTweieZPJZLBr1y5jk/pjsr93tlO9w51AyOM09DnqQDASRdjjMNUcBVS0GKdzNKG1RAVOJRKE0yFMy/QEI0hARciVfc0bMY/AFG9pNo1ob9mEXlXQ7DT0jeoOomAcpwUj6TQgWkz4PSIiIltgOEpUXQxH5dm6des1xlG8W1un62KPqH588sknplHqfT7fVbK/c7Yj+ySYF6qK6vcOujBknw9EcyX7O1QrZB8HIiJa/BiOElUXw1G5/H7/FmOAtHPnTgwMDMg+LYhmrb+/Hzt37jQFo4FA4BnZ3zVbkn0ykJns84FormR/h2qF7ONARESLH8NRoupiOCpXMBj8W7/ff7ggSMLevXtx9OhR9Pb2yj5FiKbV29uLI0eOYO/evYWhKAKBwEHZ3zPbkn1ikJns84FormR/h2qF7ONARESLH8NRoupiOCrf9u3bvxYIBPZZhEosLPVe/rx9+/avyf6O2ZbsHxgyk30+EM2V7O9QrZB9HIiIaPFjOEpUXQxHa4ff7787EAhcrIFAi4VlTsXv9w8GAoG7ZH+niIhoHpW+nYzB63bB3dyi9xEcj4bh9YaglBh0rZ7JPg5ERLT4MRwlqi6Go7Xl2Wef/ftAIPCzQCDwqeyAi4VlpsXv97cGAoGfbtmy5e9kf5docXlI9gYQUblwVIFLCAhnKBeO5v4tBJxBpUq3tNUj+zgQEdHix3CUqLoYjhIRUa3jDxRRDSh9O6nALQSESwtHVYRc2XDUE4lX6Za2emQfByIiWvwYjhJVF8NRIiKqdfyBIqoBpW8nC8PRxU32cSAiosWP4ShRdTEcJSKiWsdm9UQ1QLt5VCJBuJ0OCCHgcLjhC3rhKAhHYy3NcDib0GroczQRDaPJ5YTD4YDD4YTbEyzokzSOFp8HLqcjO43TheZQBMZJEtEWNLtdcDqdcDqdcLk9aInmaqeqCppdTrg8FiFt7j2nywutLmu0JQi30wmH0wmnwwmPr8WwLhUtHidc3gjUhAKv25n9vM5mCP7BhoiIFhjDUaLqYjhKRERERNMBAMTCTVo4CIfLDZdT6P82hqNKyAUhBILRXEN7JZSfz+mCy5Gbx6HNE0ezyC/L6XTmp/dl+y2NR5rz63I4Tev2tMRMywjFzDe88RZPdlnNrQCAiMdhWJcjG+4KAeEM5gLSfNcA5sJwlIiIFh7DUaLqYjhKRERERNOCGtUHWvIa+hKNRby5YNEYjrqz4aiSG6Ip6CrqgzSuRKHEVdP0wtEMRa/2mUAkHM7WLlWV8usWLkRVIBZqMoWg2nKCuSA1HDcEtQXrCjVlA1NvawLmcNSJcDQOVU0gFk/whpmIiBYcw1Gi6mI4SkREtY7N6olqgKoEs2GhO1xwO1nc52ipcNTpCSGWKJjdEESGFOteS0uvGwi7RX5dahROISCEG4o2QTys1wpVDdvSFFKgQkUikYCqAvFItnapK6iYtskXNW+wrP1PRET2wXCUqLoYjhIRUa3jDxRRDdACT1dIKbidnD4cVWNhU/N0h8uDcGtMn7+pMNAsXEPJdRe/F8nVAG2OZEPNqNdpqLVaqrm8Ydt8UcN0rqJtqv6eJyIiu2E4SlRdDEeJiKjW8QeKSD69xuVswlEAUONRBJvdpiDSGYwamsyXCUdLrtsQjgaz7+nN5l1hAPGC4FVFKFfTtCnUipiiQCkosYQKUzhaUJlV2hEgIiLbYDhKVF0MR4mIqNaxWT1RDdAGRHJ6owW3k5WFo3kqoi1aX6EexKEi5BQQwoGWuMXkANSoL9eXaKTovUizo6D5ewJeR7avUJ8vNxCTN98HqTZYVHNrUft+0zYyHCUiIlkYjhJVV1vjMnzy/aUMR4mIiIioNL3vTuGCsRvOaLBp2gGZoMahxI1hZCxXo9OLOIDWXMApmsIwZpFKpAXROIBEa25EeQdaYobaqLEW/fWIYfHawExaCRtC10QuaBWiCVHjytQ4IuEIspMyHCUiInkYjhJVV1vjMvxi6f/A//t//j2EED+QfQ0gIiIiohoEqPqo70I40NTcDLfT0F9nyZqjWs1QAZfHh3A4hKbcv/VR5RPaQEoCwumG1+fTp8k2jweiuab1Qgi4mzxo9uQDUKevoDaralxeEOZ8M9+0Pvs5vPB68s39XaEYGI4SEZFMDEeJqkv7vr3y7X+GEOINIcS/yL4OEBERGbFZPZF82TtHVYHX7TDUynSjRVGyYaNFOKqNPp9QIvC4jPMJuJrDMDVsj0fRXDCN2xuGsaW90uLLh54i23TeGy5s5p8V8WgDM1m11U8g4mvK1TrNFYcLwYjWp6mKsJvhKBERycFwlKi6LPoc/WvDVzIshHBJuBQQERHpGEYQ1QDzLaQK1ao70WmpUKedsYJp1Nmu32pRM1uQ7ONARESLH8NRouqaZkCmbwkh/iCE2FfqOyt7++diwS5kREQ0r3jBJqoBsm/caoXs40BERIufMahhYWGpbinz1fwHw/9fI4Rwav+QfX86Fwt2IZuDzZs3//dAIPDDQCDwot/v/8zv98cDgQBYWGq55M7TT/1+/9atW7feuHnz5v8u+7tEiwub1RPVANk3brVC9nEgIqLFT3Y4xMJi51Lh1/SfhBB7hBBnhBCXy74/nYsFu5DNks/nuyoQCJyRHXSxsMxDORMIBP4/2d8pIiKaR7Jv3GqF7ONARESLn+xwiIXFzmWGX9d/EkL8T9n3p3OxENew2QgGg3/r9/u31ECgxcIy3+WZZ5999r/J/o4REdE8kH3jVitkHwciIiKqaRuEEGNCiI2yN4Sqp9r3o++88w62bduGsbEx0+vHjh3Dq6++ildffRV9fX0VLUv2vhNCiO3bt38tEAj8xRgobdu2DdFoFGfPnkUymVyI3Ug0r5LJJM6ePYtoNIpt27YVBqQHt2zZ8neyv2tU39isnqgGyP6xqRWyjwMRERHVtFGRHTNhTPaGUPUs1H3nO++8A0VRTK91dHRAZM8xfPHFF/rrO3bs0F8XQuDAgQMVrUPqjhNCAPgrv9//njFI2r1794wHTSWqJel0Grt37zYFpH6/f4/s7xvVN+kXbCJiOKqRfRyIiIioZm0Q+XB0VLD2qG0sxD2nqqq47LLL8NRTT5leT6VSuPzyy3HJJZfg9OnTpmkvueQS7Nu3D8PDwxWvR/a+8/v9a40BUmtr67zuRyKZWltbC2uQumV/56h+Sb9gExHDUY3s40BEREQ1SwtGtcLaozaxEPecqVQKS5YswYsvvmj5/sTEhP7/XV1dEELgtttum/F6ZO63TZs2/XUgEOjSgqNwOIxMJjPrfUZUazKZDN5++21j7dGzgUDgb2R+76h+sVk9UQ0od9GPhkOIxGq96UscYV8Q0fjcliL7OBAREVFNMtYa1Qprj9oEADz66KPYtGkTurq6cO+99+KKK67A0qVL8fTTT2NyctJ0P3n06FHceuutWLlyJVauXIlbbrnF1ER+//79ePDBByGEQENDA/x+P55//nmk02kAwFNPPYWf/OQnGB0dxeeff4677roLQghceuml2Lp1KzZv3ow9e/bg+uuvRzAYLLqf7ejowHe/+11s2rQJQoi/krXf/H7/97TQ6OWXX55RjVeiepFMJvHSSy8Za4/eIOs7R0REc1T6cq/AJQQcvmj1fmFmQVVCEELAp8wtxJV9HIiIiKgmjQkhUkKIXiHEjtx/U4K1R20BANavX2/q83PlypX6/2/evFm/l4xEIvrrl19+Oa677jr932+99RYAYO3ataZlaUVrcr5+/Xo0NDRgcHAQb775puW0H3/8sR6uDg4Omu5nH3roIQgh8MEHH0i9tw0EAq9qgdG+ffvmdI9OVMs++OADY+3RoMzvHRERzUHJK70ahVMIuEKx6v26zIKqBCGEQEiZftpyZB8HIiIiqjnXCCESQojG3L+1+4XG3OvflrFRVD0AcNttt0EIgXvvvVev4dnW1gYhBJYsWYKhoSGkUilcdtllEEJgz549+v3lvn37ioLMo0ePQgiB559/HplMBqOjo/r0t912m2labT1f//rXMTo6qje5v++++7L3v6GQPu/g4CCWLFmCJUuWYGRkROq9rd/vP6YFRl999dXcbtKJatjRo0eNNUePyPzeUf1is3qiGmB1kVciYfg8rtxfqJ3wBX3w+sLQW66rcbT4PHA5HRDCAYfDBW/YWMM0gaDbCW8kjoQShtvpgBACTk8L1Nz7LT4PnA4HHA4HnK4mBMMRtLa2IhKJIqEvJgqfxw2nwwmn0wmny4OWaEJfRyQcgseZ/Su6y+NF0OdF0LAd0bAPLt0yypcAACAASURBVGd2HQ6nC55gJL/sApIPAxEREdU+3i/YDJAPLJPJpH7fmMlk4HK59CBTURQIIbB27dqivjU9Ho9pBPr29nY9HC1UGI5q065atQpTU1P5e/Xc+r7+9a/rgWk4HIYQQu/LVOZ+8/v9F7TAqK+vr8TdN1H96+3tNYaj52V+76h+8eaCqAYUX+JVhJzFTXiEEPBFVQAxNBlec+aCTyEEPJFcfKpmm+QXLcMTyS7fpb3mgqe5CQ7TdE5EVQDxlvzrTiccDodhOxIAFDit1iEciKqAEnLnt9Hl0pflCFpXMa3W/iYiIqK6xcodNgMUB5Ya4+taE3irQZYKQ8vZhKPXX3+9KRzVwlmRC10zmQyuuuoqNDQ0oLe3V/q9rXEUb6LFzni+y/zeUf3iiUNUA0pd5BPRbHN1V7Cwz9EEQk3mWpjxVl8uxAzlaoYqcOvBphfReAJqIo54QgUSkWxQ6fTla3Gq0dz0HsSyL+gBqiecDzNVJZSd1+HV540GszeG3lZjnVAt4HUgkq/uCiUaRbxE16RSDwIRERER1RygsnD0tddeKxmOasGpFobORzgKQOtXFPfcc49ek/See+6piXtbhqNkJwxHaaa+LYRICiHcuX9rf3l1CyEuCiH+VcZGEdldqYu8NtCRq0RNS7NYNtx0FYajLkQL2rFry3UWLDcbhjZByU6Uq3naBCWhQlUTSCRUQI2jWVtuLuTUaogGTQMy5Wu/ekKtJZvSG8k9CkRERERUa4DKwtFoNAohBB588MGie8zNmzdDCIGPPvoIQD7wtApSZxKOqqqKyy+/3NSCyti/p8TdxnCUbIXhKM3GqMiO7tgvhPh+7r/DgqM9EklT6iI/bTiqxhGNtCAU9KHZk2vCXhiO6v820oJPJ8LROFRVhdLSrM9vXHfp4pwmHAViYY9pHpfHh9ZY6RHtZex7IiIiqitsVm8zQGXh6ODgIBoaGnDJJZegra1Nn6ajo0N//ezZs9l711wtz+bmZgDA2NiY5TKB8uEoAASDQf1e9/rrr8fk5GRN3NsyHCU7YThKs3GfyAahxtBiVAixQeZGEdlZqYt86XBURcTrMgWPen+gFYWjgBJyWQSeDrRo4WVMC0c9aFUUKEUlpi+3VDgKAPFoBM1up2k9wcKqrDky9j0RERHVFd4v2AwArF+/ftpwFABeffVV/X7z9ttvx/3336//+ze/+Y0+X3d3t/76bbfdBiEEjh07ZrlMLUgtDD41/f39WLJkCYQQaGlpqZl7W4ajZCcMR2m2VFEcjhKRJKUu8no4GjKHo/GWXI1MVzOicS1oLNGsvkQ4GvFkm8aHIhFEWloQaY0WNH3P1S419C1aihaOhizC0fyHiaNFC3SbWiwnkXsUiIiIqA7wfsFmgOxo86XC0SVLlmBoaEh/be/evXpYKYRAQ0MDdu7caRrBPpPJ4NFHH9WnWbp0Kbq6uvRlXnrppfq64vE4GhoaLJvrA8D4+DiWLl2KJUuWYGRkpGbubRmOkp0wHKXZMtYeZa1RIslKXeT1vkG95gGZlNwASD5DGKkPlFQ4IJNlOKqNdu+ENxRGazSKaFSBEosbgtAEfLk+Q5sKw9loBJGoPsqSXgvVW1AjVI3HEDe+FM+OFOpojlh+XqkHgYiIiOoBm9XbTKn75Omk02mkUqmy04yOjmJ0dHS2qwAAvP/++yUHd5K53xiOkp0wHKW50GqPstYokWQlr/LxFv0v2u6mXO3MGBAL5/oXFW6EwmEEm936dJXWHA2W6U/UG4kBMPc76nA1wevzwu0U+rpj+mY26f2Qut0OCNGEGBQ4c/N6fCGEQ179380RNqsnIiIiounNOi2pgqmpKVx11VW45JJLcO7cuaL3Ze43hqNkJwxHaS602qOsNUokWenLvIoWj6G/TkcTWhMAkEDI+LpwIBiJIuxxVFRzNB7JNst3eVsQi8ehKAqirREEPblm746gPo+qRNDkdBQMrBSEYsw3VQXNzvz7DncQcQBKJAiXw9ynaXM4ilKk7HwiIiIiqlkzj0mqR+uP9J577rF8X+Z+YzhKdiI9HG1rXAaW+ixHfnglvvM//gGH/+NK6dvCMrsi5UtPC6LaPx5ht3m0eV0ikg0xnUGL2qYq1DJdipalqlArmFn2cSAiIqKax2b1NjPLu8+qKdcsX+Z+YzhKdsJwlIXFxkXKl54WRLV/PPSR6h1uBMMRtLa2IhLyZQdgEgJN4Vi1NwkAw1EiIiKaFu8XqF5cKYSYEEI8J4T4P6q9coajZCcMR1lYbFykfOlpQVT/5yOBFq/b1FRe5Jq9e1uU6WdfIHKPAhEREdUB3i9QPflrIcStQoj/qPaKGY6SndRUOEpEC4/h6OIk74xSkUjEEY/HEU9YD5JUTbKPAxEREdU8NqunerdfCPEbIcT/tZArYThKdsJwlMhmGI4SERERERHVrf8mhPi5EOLYQq6E4SjZCcNRIpthOEpERERERLSoXCmEeFQI8Y/ztUCGo2QnDEeJbIbhKC0QNlEjIiKiesB7FlqM/jchxAYhxFkhxE3zsUCGo2QnDEeJbIbhKC0Qnk9ERERUD3jPQovd/2P4/+8JIRpmsxCGo3JkMhm88sor+PWvf41UKiV7c2yD4SiRzTAcpQXC84mIiIjqAe9ZyE5WCSF6hRBhke2r1Mr/LYQYEkJ8zfgiw1E5VFXFZZddhoaGBgwODsreHNtgOEpkMwxHaYGwiRoRERHVA96zkB3dIIT4h9z/XyKE+N8N7/2jyIajaeMMDEflOHfuHBoaGhiOVhnDUSKbYThKRERERERkW38vhEgIIXYIIf5ZCPG3QogJka1V3alNxHBUjlgsBiEELr30UqTTadmbYxsMR4lshuEoERERERGR7a0S+ZrUWjiaEkJEhGA4Op+OHDmCBx54AMuXL8eqVatw/fXXIxgMIplM6tMMDg4iGo3C6/VCCIFLLrkEb731Ft577z3s3bsXx44dMy0znU7jtddeww9/+ENcccUVWLp0KW655RZ88MEHyGQy1f6IdY/hKJHNMBylBcImakRERFQPeM9CZOYRQvSIbDgKIcSIEOI1hqNzl8lk8Oijj8Kwb02loaEBHR0dAIDf/va3JacTQuDhhx/Wl3vy5Ek0NDSUnPa6666DqqqyPnZdYjhKZDMMR2mB8HwiIiKiesB7FqK87UKIPlEcsCWvuuoqhqNzFAwG9X26cuVKHD58GL29vXj33Xf111esWIGJiQl0dXVh69at+NGPfqS/t2HDBmzbtg1btmxBT08PACCZTOKyyy7Tp7nnnntw+PBhHD16FJs2bYIQAsuXL8f4+LjkT19fGI4S2QzDUVogPJ+IiIioHvCehShrgxBiVAgxLrLN6hNCiJNCiINCiJaf/exn2LJlC8PRWUomk1iyZAmEELjpppswOTlpev/QoUN6wHn48GH99V27dpXtc/S1117T53vxxReL3u/r68PIyMj8f6BFjuEokc0wHKUFwiZqREREVA94z0KU9c9CiH8SQnzN6k02q5+bAwcO6CHmRx99VPR+JpPB1VdfDSEEnn/+ef31N998U29yXzhafSaTgcvlghACS5YsYQg6jxiOEtmMncJR42dlYWFhYWFhqX6RfS9ARESzw3B0bow1PK2Ksc/QSsPRVCqlN6lvbm6u9kda1BiOEtmMnR5YZD8QsrCwsLCw2L3IvhcgIqLZYTg6N1rIKXIjz69cuRJXXHGFXpYuXYqVK1eioaEBr776atF8VuGoqqq4/PLLSzapp9ljOEpkM3Z6YJH9QGin8rPL/1H6NrCwsLCw1F6RfS9AZIHN6okqwHB0brSaow0NDUgmkxXPV2nN0eeee26+N9nWGI4S2YydHlh4fakeIYTsTSAiohphp3sNqks8L4kqwHB0bj777DO95uinn35a8XzlwtGJiQksX75cH5F+YmJivjfbthiOEtmMnR5YeH2pHsFwlIiIcux0r0F1ieclUQUYjs5Nf3+/3q/oddddZxlkjoyM4Pz586bXjOGoVY3T5uZmPXTdt29f0fvJZBKJRGL+PohNMBwlshk7PbDw+lI9mzZtkr0JRERUI+x0r0F1ic3qiSrAcHTunn76aT3I/P73v4/jx49DVVX09fXh9ddf18PTEydO6PPs3LlTn+eNN97A+fPn8dhjj+HUqVMAgK6uLlNfpu+88w6Gh4eRSqXw1ltv6cFqPB6X9bHrEsNRIpux0wMLry9ERETVZ6d7DSKixYrh6NxNTEygsbFx2lHru7q69HlOnjxpOd1VV12FqakpAEA4HC67zCVLluDChQuyPnZdYjhKZDN2emDh9YWIiKj67HSvQUS0WDEcnR+ZTAahUAhLliyBEAJOpxNCCFx++eXw+/2WTefffvttU9i5dOlSfP7556Zp/vKXv8DlchUFrS+88AJGRkaq9fEWDYajRDZjpwcWXl+qh83qiYhIY6d7DapLbFZPVAGGo/MvlUphYmICqVRq2mlHR0cxMDCAixcvlp0unU7j4sWLGB4enq/NtCWGo0Q2Y6cHFl5fqkdwQCYiIsqx070G1SWel0QVYDhKdsJwlMhm7PTAwutL9QiGo0RElGOnew2qSzwviSrAcJTshOEokc3Y6YGF15fqYbN6IiLS2Oleg+oSm9UTVYDhKNkJw1Eim7HTAwuvL0RERNVnp3sNIqLFiuEo2QnDUSKbsdMDC68vRERE1Wenew0iosWK4SjZCcNRIpux0wMLry/Vw2b1RESksdO9BtUlNqsnqgDDUbIThqNENmOnBxZeX6pHcEAmIiLKsdO9BtUlnpdEFWA4SnbCcJTIZuz0wMLrS/UIhqNERJRjp3sNqks8L4kqwHCU7IThKJHN2OmBhdeX6mGzeiIi0tjpXoPqEpvVE1WA4SjZCcNRIpux0wMLry9ERETVZ6d7DSKixYrhKNkJw1Eim7HTAwuvL0RERNVnp3sNIqLFiuEo2QnDUSKbsdMDC68v1cNm9UREpLHTvQbVJTarJ6oAw1GyE4ajRDZjpwcWXl+qR3BAJiIiyrHTvQbVJZ6XRBVgOEp2wnCUyGbs9MDC60v1CIajRESUY6d7DapLPC+JKuD3+3u1sOjChQuyf1qIFkx/f78ejPr9/riULxzDC6LqstMDC68v1cNm9UREpLHTvQbVJTarJ6pAIBA4qgVGx48fl/3TQrRgFEUxhqOHpHzhGF4QVZedHlh4fSEiIqo+O91rEBEtVn6//yUtMDpw4IDsnxaiBbN//35js/qAlC8cw4tZyGQw3tuN8d5uTI2kZG8N1Rk7PbDw+kJERFR9drrXICJarPx+/7VaYBQMBpFOp2X/vBDNu3Q6jWAwqIejW7dudUr5wkkPLzIZ9O7woeeFX6LHZ1H8v0Lf71/E8OFPkBkfk7ONBTofv0PfZ4nIbtmbQ3XGTg8s0q8vNsJm9UREpLHTvQbVJTarJ6oAgL/y+/1faqHR7t27kclkZP/EEM2bTCaDXbt2GZvUH5P2hZMeXmQyOHX3D0w3ceVK7w4fIPOCkMng9H2N+vZc/HiPvG2ZiUwGw4c+xtAXf0ZmVJW9NbZmpwcW6dcXGxEckImIiHLsdK9BdYnnJVGFtm7deo1xFO/W1lbZPzFE8+aTTz4xjVLv8/mukvZlkx5eZDI4vWF1xeFoW+MydDy4FpiarIntrZdwNH3soL7N4309sjfH1uz0wCL9+mIjguEoERHl2Oleg+oSz0uiGfD7/VuMAdLOnTsxMDAg+6eGaNb6+/uxc+dOUzAaCASekfpFkx5eFISNg++9CQCYGkkhMz6GyeQgBt97E8qP/sV0o9e/65Wa2N56CUeTre9nt3n1coz3x2Vvjq3Z6YFF+vXFRtisnoiINHa616C6xGb1RDMQDAb/1u/3Hy4IkrB3714cPXoUvb29sn92iKbV29uLI0eOYO/evYWhKAKBwEHZ3zP54UVh2HjAOmycGknhxPrr9OlOrL8OmJyo8saibsPR3tefYzhaI+z0wCL9+kJERGRDdrrXICKyg+3bt38tEAjsswiVWFjqvfx5+/btX5P9HZMfXswgbEx++kH+Zk9WyFen4WjP1key27xmBSaHErI3x9bs9MAi/fpCRERkQ3a61yAishO/3393IBC4WAOBFgvLnIrf7x8MBAJ3yf5O6aSHFzMIGyeTg/nm9YZwtG+nH6c3rkHHL9yYTA5azjuwZydOb1yD0xvd6NvpL3p/tLMdnU/cCWXtt/Rtab/9BsS3/QYTg/0lt3f40McYi58tmvf0xjVIHf2s5GcZOXEEnY/fYZrnxLqViAefxNi5Toz3duulsH/V1JefW8x7LeLBJzGlpk3bmlaiuLj/XRz/T6e+3/p2+jGwZwcGWt5A4sN3LAe4Gvo8gtiv1kG56Zv6Ok7dtQoX/viaaXtG2o/i1L0/xOmNbvT4fmndF2wmg+7nHsCpu2/EmUduRWZ8zHKf9L/9Mk5vXIPYL3+CicE+0/yJyG503P9jtK1ebjo+F/74ur79UyOp7PwP3YzT9zVC7VBK7n8A6NsZwOmNbnTc/yOMxc+WnXY+2emBRfr1xUbYrJ6IiDR2utegusRm9URz8Oyzz/59IBD4WSAQ+FR2wMXCMtPi9/tbA4HAT7ds2fJ3sr9LJtLDixmEo+N95/Lh2Orl2YGFMlP50e611yzozcobl6Hr2V+Y3hv8U3jaQaCSn7xnub3Kj68yBXaFZaDljeJt2eGb0QBU2meaGkmh4xfustMev/kaPSCeTA6W3TarfZYZH0PH/T8qO8+J9deZ1mHsD3b07KmizzsW7zTvy0//VDTNVHrYHHzntmm08ySUtVeX3Z7Yr9ZlQ9lMBrGHbtZf73jgJsvg1+pcGus5YzndQrDTA4v064uNCA7IREREOXa616C6xPOSiIhqi/TwYgbhaH/4t/mbPfcKTF4cMM9fpqm9MRztfu5+/fXxvnNoc6/I10a89Xr0/X4r+t56Ce23Xq+/nojsstxePSRdezXOvdSM7ufuN7+nbWfO8OFPTO+f+fVPMfR5BInILrTf9p3iIHLdyuLPmSsn7/we4ts248yvf2p6/exmD4B8P60n1l1bsMxrcWLdSpxYtxLK2qvz+ywzhdP3NRYtK/HhO+jd4TOFoKfu/oEeSJ55eL3+et/vt5Y/bobtMxo6+JH+/ukNq4FMBlMjqaKBuGIP3YLz2704eef/Mr0++P5bAIDUV1+Ygt9SoafxfOh8rKnkObcQ7PTAIv36YiOC4aitqB0Khg5+hNSRVgwd/NDcwoGIbM9O9xpUl3heEhFRbZEeXhSEfnoNzQLpYwdNtSBP3X2jHs7NJRy9uL8lH8ptXANMFjRh/+oLc9Nzi5Cyd4fPVENx7FynKdQbfO9N/b0u73366+e3ewv2hTmcTHz4jultbcT5E+uuRbrtL6b3TLVf16wo3RXA6uUlH6KN+6LNvaKoWXpmfAwn7/j3/LE6sBcAkNj3h/w+vK/R3LQ+M4WTd32/IDD+BjKjqmnZ3c8/qL8/8G5Ifz0efDJbC/TBtRjvO2ee57kH8qF203ezxy4zZQpOz738WNHnzIyP4fjN1+jTpJWo5f5YKHZ6YJF+fbGRuTarVzsUdDxwE848elvZ0v3c/ejf9Ur2+lCiZjYtLFNNe/0PeLtlbxYR1RA73WtQXWKzeiIiqi3Sw4uCsLF/1ysY64lhtOs01NgJDB/abwoU9UDr+OHi+WcRjsZfeUp/Pb7tN7PaXivnXnxUn0Zvxl/QBYBVSJk60qrPZ1WL1tSnqGm7ptB+63es90PhPrLqeqAgxNRqYhYaaf+y6HNNDPbnH9TXrMBE4oI+van5uqGkvjT0xzo1mQ8rLY5hZnTEclsmBvv0Wr/tt9+gB9vGsLbNvQJT6SHTfFrIbKoBW0V2emCRfn2hihmvPZUW5aZvmv74Q9UxlR7OduliOBb1MjggEVWHne41iIiIiOZMenhRopl6uXJh93br+WcRjhqDsrbGZYgHnyy5DKvtLVXT1dhMXF9fBSGlcXtm+rB7euMafd6hzyPW21xiHxUOdjV8+BOM9/WYBoYaP99tCkf1WqIFfX0aa7xeeOd3+jL7335ZDzONx2DkxBFDWHlj5WHl5GQ+IHDnQ9nM2Kipn1JjTdTC41dYO7ca7PTAIv36QhUzdUkxw9Lx4FpgckL2R6h76WMH8/u1TB/aDEeJaDp2utcgIiIimjPp4cUMwtFTd9+IkfYvS88/i3B0MjlY9JDZ1pgdmX3g3RCm0sNlt7fUA6kxaChVU7Xz8TtMzVK1PkK191Nffl521433nUPqyKcY/OBt9O/alh+RvnC7ZhqOVlhOrL9OD0QG9uw0fy7A1E3A8ZuvQWZ8TK/dqv0bAM7/7hl93lI1cbXPMdZzBkMHP8LAnh04/+rTxQN05RiPt7FW6ejZU/nP4P6Gvg3VZKcHFunXFxuZa7P6uYSjhdc5mh3jdavc7xnDUSKajp3uNagusVk9ERHVFunhRUHY2PlYEwZa3sCF3dtxYfd2DLS8gaGDH5oGNSo5/yzCUQAYi58t7hfTUC6887uS2zvTcHTsXGfRAFC9oS2I//YJ0+ulRlqfHL6I+CtPQVn7rbJBxUzDUWPtzbbGZVB+fBWO33wNlLVX58tN38wP5HTTNxF76Ba9lqexibvWp6hxsKse/68AmMPhtBI19xFaYgCl0c52dD5xp2Xz/FJBgml7GvPN+Hu2PqK/1vv685bHbqHZ6YFF+vXFRsQcB2SyCkc7HrgJkxcHsjXH+3owcuoY+t4MmL5bxu/g6NlT8/RpbKhgcDuGo0Q0F3a616C6xPOSiIhqi/TwoiBsHPps3+znLxyIyKBcOKpJK9HswEAWD/6JP/+X5fbONBwFzE3urcrpDasxNZIqWubQwQ+LplV+fBVOb1yDs0/dPadwdGokpT9sZ2uEzrAfzoL9MnLySwy+96YhnMzWglU7FP21+LbN2RAzF3qeumtVUZN6Y61SrZxYdy1im36Cjvt/XDZIMPZVe+bh9eZm+GXOlYVmpwcW6dcXGxELEI5qf9QoNDmUMA1qNt30VIGpSZz42b+Zr2lsVk9Es2Snew2qSzwviYiotkgPLyoMGyudf/jQfsvJKglHjcsc+myf6eHz7GbPjLa3ZDiamULH/T/KBps3fRNdz2zUR4E+9/JjSH31heXyjLUw2xqXofOxOzDaedI0jbHfzzk1q59lcKj3L5oLPmO/Woe2RnMTekxN4vhP/lUPQ43z9P1+q2l5F/e3mG7uz//uGYxfOG/Y6Ml836IWn8sYxLatWYFzLz+W339a038J7PTAIv36YiML0ay+3LUy+ekHsw5HJ4cvYuTUVxhp/xKTycGy006paYz1xKB2KBjtOj3t9NPRlxc7XtxtimGa8d5uqB0Kxs93z3jQtsmhBEa7O7Lb3N1h+ceuonUWjkBfYtA+fdrCcPRA/po/Mdg3p/01MdgHNXYCauz4rD7/vJic0I+BGjuOiYHeOS9S/1yzOK6Z0ZH8edjdMafzMDMxDjV2AmklirHzXbNeTqVmcz6WXNYMvrskl53uNagusVk9ERHVFunhxXyEo7l+LcvNP6NwNMc4+NCpu1Zla1POMRw1vl62f80CxoGazvz6p8UTlNuugtq1lk01C0arn02T81Ij0xfu73MvPlo0jVWTXGMTeKt9lRkbzQcEVqGvRX+2WviQPn54xp9vvtjpgUX69YUqNtNw1Cqga2/6rl7rvLD/TPV0G5CZQo/vl0XrSX76p6LlJz58Byfv/F7xtSL3h6X4tt9gSk1X9FkufrwHk0MJxDb9pDjQ3fqIqU/ijgduslznuRcfLV+jPpPB4Ptv6f0qF5bTG9cgdfSzotkGP3gbXc/+wlxrVNuft30H7bffgPbbb8Dxm6/RB9qz2vdDn+1D4sN3LGv0tt9+Q3F/3YXHU02j9/XnSnbZ0vnEzzHe213ReVAqJDedE43ZP/IVdh8zMdhf1BLCdNyDT84o3MuMjyG+7TfWXUHkPtdYT6zk/KkvP0PHg2st522/9TsY2LvTsgucwnNQG0hyYM+Oot/JnsCvTYMItjXmWjuUCW+Tn7xnmv74zdeY98ssz0dg7t9dqg12utcgIiIimjPp4cVcw1GY+7E8dfcPih5gh774s+lhpLAmZ/LAXozFzxYt11gzynLE+TLbWzIcPdJqumE9ddcqdD2zEfFtm9H3+xcx+MHbSB87WFQjw1jDsvOxpqL1DUcPmD5jyXC0cRlGTh3LvzUxrv9/Yt8fTA9Ew9EDRevJjI+hN7QFnY81FT+gZqZw6u4fFD08af19agr7N21bvdwUqmjb3PlYkz7N4Hu/L9qWvp1+0zKsQl+rrghO3f0DOTWhcuz0wCL9+kIVm1U4WjCIm/G7VRiEDb73pl6bvPgakR98bmokhVN332g5XVFZvRzpYwcr+izlyrmXmpH68rNpp8v+kWyieF+MpHDyjn+vaF3x4JP5GTOZsv1dFxbtum4VSFZSrK7pAKCebqt4QL7kJ+8XnwcF21LqvCk8J4yD+gFA+tjB8n1LG457qVYWRqW6f7AqWnhpPDbdzz1Q0bynN6wuGtyv8BzsevYX6Pv9Vsv5e994IdulT8Hr6uk26w+WmSoKPY3fvVmfjyWOU6XfXaotxuMk+16AiIiIqOYZb56kmIdwtDBwPHnn9zD02T5c3N9ieUNvfHAz1k7s3vIQRjtPYmKgF4Pv/d5U02Tg3dCMtrdUODqTUeE7n/i5/uBY+KA1sGcHRrs7MHLqK3Q9s7HkQ7S2zcbQ8tRdqzCwd2f2ody9Ij/Y1dRk0QNX5xM/R/KT9zB08KPsvjI8uHY9+4uiz90f/q1pflOTeo2hab3+cGhRU9X4gKas/RZSR1oxfr4bqSOfFtUILTl4ydQkjv/EWXrfSGCnBxbp1xcbqbVm9YUBS8li6MYjMz5WdG2opBTWBJ9pODqTUtj9x2y2Wa8Jn8mg/fYbKp4vEdkNYPbhB5jD0QAAIABJREFUaJv7G0XXY7VDqSyQNBRjaDf3cDQf6BXWnpzJcSiSyZi6mpmumAZBzGTQ+fgdM9onZ379U1MNUuM5ON1vfvLTP5m7gcmVcy8/ZvnRrKZNfPjO3M/HEsepZJHYdzdNz3isZN8LEFlgs3oiIqotxpsnKSpsFj/dMkrVatCLVahXUDux5EPTg2vzNQ3nGI4OH/7E/HC4bmXZdWthQ0UPPKVqjqI4tDStw/dLfbrJocS026Q9FI20Hy363GPxztK1dA2MoXRb4zKMdrYXTTN69lTlD+1lBi8Z2LNTn84yrK0yOz2wSL++2IhYgAGZSn1/p0ZSOLH+Oosw53F9mkoDluM3X6P/Eciyy43GZejd4cNI+1Ek9u3C8f90Fr1fWAOxVDh68q7vY/D9t7LXwzLXlnjwSSQ/eR+nN66x3F7jNcRqm0/dtQppJYrx3m4MH9pffE11r8BUeggAkPzk/WzNQYtaimefuhv9b7+M3jdewPnfPQM1diK7/8uEo51P/BzJA3uzNestPqMWogGwrIHY1pjtY3u08yTGemLZgfUKmqSfvq9RDwLnKxw1tVzQlpP7g6UaO56dN7cdVi1EChX+FrU1ZgPQ1JefY6wnhoG9O9F+6/X68ZhIXNDntQr+29aswMX972K8txsj7V/izCO3Fk1jbCVRcUCv/XYVdG1T7veq8Pezzf0NZEbVeTkfZ/vdpdpjp3sNqks8L4mIqLbUQnhx9jf36tsw6/6rSvSHdWLdtUh++oFp8J6+t14yzZr4839ZPiAqN30TfTsD5v7ECsLR5IG9lptjbDquBZzG2h6n7v6Bqel8ZnwMk8lBpJVDOPPobfp0xubmE4P9xTUmG7N9h6mxE6ZBm4qaT2Yy6PH/qmjeLu99mBxOFu3L3tAW677rbv0O+v/wSukH04IHvLRyaNr90377DSUfsFJffm4ZCnd570NmfCw/aJOxBmwBY7cLvW+8YL3dVWSnB5ZauL7YhViAcPTsZg+QmcLUSApTIylMDPYhsW+XdU241csx1nNGX16pgKXzsTsw1nMGk0MJpI8fxmjXaQDZwXKK+oV0r8Bod4d5Q6cm9UHtjCUR2VX2sxiDW8Cie49cMV07rf7wZvhDjNU2W/WjmRkbLbqeFtZ8HGk/al7PmhWYHEpYHiurQPLEupVF+yp97GDxtdNQ43/o4EdF7xc1L4d1TUWttu58haPG67T+XmH3J5kM1DPtFf2Bq7BFSdvq5ZYDCI31nDG/XiKkLO5GpviPq8bap6XC0fbbvoO0cghT6WGoZ9qzfcHm5jH+IU8rhd3SZMZGi2rY9gQeBjB/5+NMv7tUm+x0r0F1ieclERHVlkUXXuRGuB3t7pjx6LaTQwmM9cSy8w72zfumGWtvFj7wGE2lhwqCQ/MDorad473dMx51dnL4IiYunMd4X09FD5iTQwmM93ZjYrCv5OAn1TAx2Jc/pjPoL9TUjcEac+0gWez0wLLori81bCGa1c+kaAGNxipgKddM36p2++B7b1pOazX4W+yhm0sHU1bffYsQ7NRdq4quL1Yhm9aFR/8fXil+z2LQIgD5P+SU2BdF21yqqxBYB5LJTz8ontDiMxr7zz7z8PqiELDUH6oK+8S8eKB0/6ezCUeLzpfVyzH0xZ8tl1MJq/O5d4fPcvAkI6sg2KrPa6A4jDR+Hqv1t99+Q9nfXat9eXazxzRNUT/ahsEM5+t8nOl3l2qTne41qC6xWT0REdUWhhfVY3zgiP/2iZLTGQcasurXkyrX92ag5EOmLHZ6YOH1pX7MJRzteHBt0R9xigIW9zeQGR0puf7i6cv8McMi9DM2ra8oaCxoBdDWaD3KerllWYVInU/cibNP3W0qXc9sLB6NvEwflbMJRy27eLH4jKUGF2xrXAZl7dXoemZj0fZ3v7Cp6HNq/VTOVzhaFOxpgeJt30H/rv+fvfuPj6O+733/TdtAbs51Tk9vq3N7r+65rW5LiJNavW7VcuLjU5qGq6opkQ3FcVODiIVTIBgbEnBMA4aA4xCIHRJi41/IxAFhGzA2xgI72Il/RMaJkYWx5Z+SbVla/Vz9sKSVtNJ+7h/SjmZ2Z1er1fza2dfz8ZgHeHd25rszX42+89b3O99NMtjSaF4XEjALOU/NG53xftOz0n/pnOnnzHrb1i27Sy7/8GHjcfnhQ1L7na8Z1jt91xe14e1mP0+9NVXjlrt+1bfjfg60Ie8mgfb5b81NOAlauvVxoj+78KZsamsAAABMGuGFc2KHcV749jwJ7n1dek/+VnprPpD2d7YYb/hvn8GwtUmIDA4Yhg72nf/I7SKJSHbdsHB9yRxphaO3z5C2tzabbi82YDHrBa8xCX2Sri8SF9hZEY6ahXoJt5XGpD2JyptymUdZEY7GXh8nukT/2GRVOJrKZIXnvzVXrh47kLBOGL/7sGEiQtNzcPc/Stvbrxh6C7ft+nnax0T/yAXT3sspTF5k9riH6LkNB1vjjlF0ki4r6+OEfnbhWfpz6HZbAAAAwPP0jSfYr3nLmpRvsnqqK90ubkbT3+Tqe9e4LZtuWLi+OMeOYfU1X7tRzt4/y7BceOQOadywQrqP7k86RDhZEBYnZmI+s/Awlr6HfWyY6FQ4GlvmiSz6SY1SLvMoK8LR4d6r44aRyZbmV55PWJZ0wlGR0UcYpDAJ35WfPJqwXuiFg60pBcD64e4pz9Rutuh6eU7kfBrPWXyv6Lpld4mISNvbr8TsT9ej08L6OKGfXXhWNrU1kJEYVg8A8BbCC+eFamukftUSqSn9B9ObtJata7WheUhf266fy/lvfUXOPXCr9J465nZxNNl0w8L1xTnKhgmZzIaZp2qi4Wjs5Dbp9RxN8LxHO8JRk+94qmSm9J07IX3nP5K+sycSL+dOGGYHT7nMo+waVn/h2/Okv/5C8rKfHfl+0T82WRmOiow8Fzuw6dn4ybliluDe1033YXYM2neXj81Mn2C5/MOHzc/DvM9L16/3SqjuzLjHRf98z7TDUTGZmOmOmRLuiJ+QMfbn06r6SDjqD9nU1kBGol4CALyF8MJdw6FeGe7rkaGuoETCg24XBw7IphsWri/OUTaEo5OZhGWiAUtcsJNsAjWbnjk60XA0dob1kZ586f1hy/lwNH7Yee1jpRMut9lw+MmEo/qy9507MTIRlElv0nSeIT3QeEmaX/mJaY/ZaP2Jm4Br3uel9/TxCe9rMuGo2TENvLQy7rXQhVOGz1lVHwlH/SGb2hrISNRLAIC3EF4AzsqmGxauL86xY1i9k+Go2YQ87bvLTdc1m63+4pP3JP4uNoWjXZV7Uy7zeBwPRyW+9+2p22dI/6WzEyv48JCcve/L1oejOkNXO+X8t+ZaVjclEpGGF75r2F60p/J4dStVkwlHRUwmZopZzn/rK3GPirGqPhKO+kM2tTWQkRhWDwDwFsILwFnZdMPC9SVzuB2Omk7Ic8fM+Enphofk/MP/GlfWjl/tSvxdbApHh/t64mb9PnX7DOn56Dfx3+9qpzRuWCFn7v2StFe8mtJ+Bhoujn7Y+OxVq8JRs5nZz9z7JQm3N8dtqv/SObm4/Bty5hv/LH1nPzTuI/ZZlyXxvX67fr0nLnSMrRO9p49LV+Ve03oS2ysylbo5ELgsnQfeNp0IKbaHqNbzOBKRumV3xR2X1jc2mh7f6JD9K88/lvYzZM3oJ2Yy6+lq9lgBq+oj4ag/ZFNbAwAAYNIILwBnZdMNC9eXzOF2OCoiEih7xrSXXNPmH0lX5V5pf2dLXCh4al7880mdCkdFEs9ufun7i6Xr8LvSsW+H1K9aEvf+1arDxv2YDOc+e9+XpXHj9+XU7TOk9jtfS/qcz3TCUYlE5OJT95qWv3H996T76H5pr3hVah+dHxd+DrY1aZup/9HS+G3cMVPadv1c2t/ZGlcGszrR/dsDY2Fg6Rek7e2XJdzRJkNdQWl5fUPcZ6MTQiUSDrYYnlsaKHtGBprqZbivR7rf3xcXOF5YersWboZqa0zLe/6bcyS4Z5t0/XqvBF78QdxzUZt+tmpidTCZyLChR66hvLqJn2JZUR8JR/0hm9oaAAAAk0Z4ATgrm25YuL44J9OH1YuIRAYH5Mw3/tk03Em43D4j7tmLToajEhlOa5bw2Ml0+i+dG/cz0d6CloWjMjKjezqz1ncdeU/bxkDDxQl/Xl8nIoMD8T0eky1JwsHo904U+iZaemuqDJtIFNQnW84umj2xScHGkSjoTPpzaUF9JBz1B/05dLstAJhgWD0AwFv0jScA9sumGxauL85Rk52QyaTnovXhaHjczw339ZgOmzdd7phpHOId/S5mwVRLg3Elq8JREZHhIal74t9TD6LWPhX3vEgRkcsr43v0mYVUVoajIiPPcD1zd1HK5Q/+4o24bbRsXTt+eLjwy6bfRyLDcc8ATbgkGCYeq73i1ZS/T8vrG0y30fzq6pS3ceHb82S4r0f7bEp1cBymj5qY93npO/9R8g9Osj6m+7MLb8mmtgYyEvUSAOAthBeAs7LphoXri3PUJMPR/svn454JGdu7cSJiA5YLj9xhGggm0nnoHTn/8FdNw5zT/14oza/8JOFM3HHBVMlMGbraZVzJJDg0+75x27pjZsIegN1H9yfstXf664VS/9wj0n/pXOIvHYlI48anTT9f/6Ol2ncwC0d7Thw13V7sd2zc+P2E+27d8VLCnrtn758lgZd+GH8cdTp+tUtO3/XFuM+e/9Zc6fnwfZHIsJx74FbDNvU9EkMXz8qlHzxgOjt99BiYPT80kaHuDglseta0TKfmfV5qHyuVvrMnkm6j/9JZufT9xeZlun2G1D3xdbl67EDc51Kqgym48vxjMcfyKyn34ky3Pk72ZxfekE1tDWQk6iUAwFsILwBnZdMNC9cX50x2WL1XDYd6ZbD5ivRfqZX+K7Uy1BV0u0jjivT3aWUebL4y4TJH+vskVHdawu3NMth0xTDRjxOGujtkoKFO+q/USritydAjMhWDrQEJ1dbIYNOVCX82Khxskf4rtdpxmOwxiH6naLkigwMT20AkIoMtDSPntGn0nDp8XtI12fqIzJRNbQ1kJIbVAwC8hfACcFY23bBwfQEAwHnZ1NYAAACYNMILwFnZdMPC9QUAAOdlU1sDAABg0ggvAGdl0w0L1xfn+HVYPQBg4rKprYGMxLB6AIC3EF4AzsqmGxauL85Rk5yQCQDgH9nU1oB13K63bnD7mAMAPILwAnBWNt2wcH1xjsrOexoAgIlsamvAOm7XWze4fcwBAB5BeAE4K5tuWLi+OIdh9QCAqGxqa8A6btdbN7h9zAEAHkF4ATgrm25YuL4AAOC8bGprwDpu11s3uH3MAQAeQXgBOCubbli4vgAA4LxsamvAOm7X24kK1FRJVdXI0pHmNtw+5gAAjyC8AJyVTTcsXF+cw7B6AEBUNrU1YB236+3EhKQsX4lSI0thWU1aW3H7mAMAPILwAnBWNt2wcH1xjsq0exoAgG2yqa0B67hdbycmJOXFY+FoMeEoAGAyCC8AZ2XTDQvXF+eoTLunAQDYJpvaGrCO2/V2YghHAQAWIrwAnJVNNyxcX5zDsHoAQFQ2tTVgHbfr7cQQjgIALER4ATgrm25YuL4AAOC8bGprwDoTr2khCYVC1lfgFPdNOAoAsAzhBeCsbLph4foCAIDzsqmtAeskqk9125eIyi+U/Pxi2R8Q6aipkEWFY8GkUkpKVm03zBgfqtsu+SpfCgsLJT9/idSEzLdZWJgv+Yu2S8jw2UpZtajYsH2VXygryvfr9hETjq7ZL5XbV0mh4TPFUl4ZSPqz4taxBgB4DOEF4KxsumHh+uIchtUDAKKyqa0B6ySqTzXlMUFloqWwTAsvQzXluveKpSqUZJuF5Vo42lFVNs5+FkndyB60cDR/nHKt2J84IHXmyAIAPI/wAnBWNt2wcH1xjsq0R4UBAGyTTW0NWCdRfaopLzEJHfNNQ8klo0FkbDga23PUsE0tHA3Ikph9LFqxSpboe5GWRHuZGnuOjm2rWIoLY19fIoniUQcPLwDAywgvAGdl0w0L1xfnKMJRAMCobGprwDqJ6lNsOLqovEp7L1RXYQxJR3uPphWOhmqkWN/jU9/dtCMgVZVVupAzNhwtlu01Y4Puq2LKvD1BOur8UQYAeBLhBeCsbLph4friHIbVAwCisqmtAeskqk/mvTzHVK7IjxtCb0U4qopXSFVdh5iLeeZoecyETIEKQzhaFluAUS4cZgCAFxFeAM7KphsWri8AADgvm9oasE6i+mQIMovjw9HA/iVxQag1w+qjS6GsKK+QgGEb481WXyMlhKMAgFQRXgDOyqYbFq4vAAA4L5vaGrBOovo0Xs9RqYsPQtMLR02G6ccsZVXalE+EowAA6xBeAM7KphsWri/OYVg9ACAqm9oasE6i+jReOFq3fZE1w+qjQgHZX75GivPNAtISGYlBCUcBABYivACclU03LFxfnKOYkAkAMCqb2hqwTqL6NN6w+opF+XHhZWw4WhXzobrxeqOOCgVqpGxRocm2CEcBABYivACclU03LFxfnKMIRwEAo7KprQHrJKpPxtnqF0mVbo6kjip9CKpELdkvIiKhmjLD6yv26+aZr9lvnHhJP6w+UCX7K2tiepJW6obaE44CAGxAeAE4K5tuWLi+OIdh9QCAqGxqa8A6ieqTMRwdWRatWCUrFhXHvV5eNxpChqqkMOa9wkVLZFFJftxntHC0Q/+ZQllTXiH7K8oNIadSi6RuZAeEowAA6+gbTywsLM4ubv/8203/XQEAgDOyqa0B6ySqT2bhqNlSUm4MKKvK4sNT02U0HA1ULBp33VWVTMgEALCB2+EQC0s2L27//NtN/10BAIAzsqmtAeskqk+x4WhJbI/R/GIp319n+tmq8iUxAWe+LCrbL4HAfq2XaP6SCm39jpr9sqpk7BmjhaOTMuUXL5GKGt14fgnJ9hJdOFqeLBzNl4qAmHL+KAMAPMntcIgl/aX6qzfIP/3f/5tUf/UG18vCkt7i9s+/3fTfFfZiWD0AICqb2hqwTqL6FDshk4iIhELS0dEhoVCiqZSMQhNYV/vM6LNFJ/ixCXH7mAMAgMlbqpQaUEo94nZBADOEo85RTMgEABhFOIp0JKpPNSnOLJ+J3D7mAABg8vrVSENlwO2CAGYIR52jCEcBAKMIR5GORPUptuco4SgAAPCKpWosHO1X9B6FBxGOOodh9QCAKMJRpCNRfSIcBQAAXhUNRqMLvUfhOYSjAAA4j3AU6XC73rrB7WMOAADSp+81Gl3oPQrPIRwFAMB5hKNIh9v11g1uH3MAAJC+AaVUj1KqWY0Eo82j/6b3KDyFcNQ5DKsHAEQRjiIdbtdbN7h9zAEAQHq+qJTqUErNG/139Jf6vNHXb3KjUIAZwlHnqOy8pwEAmCAcRTrcrrducPuYAwAAayxzuwBAIoSjzlHZeU8DADBBOIp0uF1v3eD2MQcAAIDPEY46h2H1AIAowlGkw+166wa3jzkAAAB8jnAUAADnEY4iHenVtpDUVFVJVVWVVFVWSSBkbV22m9vHHAAAWINh9fAswlEAAJxHOIp0pFXZQlVSODIHgiilpLCsxuLabC+3jzkAALAGv9ThWYSjzmFYPQAginAU6UivttVIiS4cLXYyHO2okrJVq2TVilWyP5DeJtw+5gAAwBr8UodnEY46R2Xno8IAACYIR5GO9Gqbe+FoTXmxtt+ymvTG87t7xAEAgFUYVg/PIhx1jiIcBQCMIhxFOtKrbe6Fo/uX5BOOAgAAwNsIR53DsHoAQBThKNJhWplCIQmFQpI4enQoHA2FJGQoREjW5I/ttzzN3bp7xAEAAOB7hKMAADiPcBTpGKtBHbK/fJUU68JHpZSo/BIpr4x9uOf44WigqkJWlBQat1VYLGsqquJC17rtS0TlF0q+KpSKgEiobr+U6MpRUv6+7C8vl1VLig3byy8ukUWLFsmikhJZVVE3tr3KcllUmG9ct3CRlO8fKafzRxkAANiBYfXwLMJRAACcRziKdIiIhGoqDLPPmy2LttfpalvycHT/quKk21LF5dKh31p58vUL170xbvny11SJiEhV2Tj7XlTBzwcAAD7BL3V4FuGocxhWDwCIIhxFOkRMwsn8Yikpjun1qYqlSuvymTgcrdu+KO5zq8rK4nqRFuvGxNeUlyQNNFdVnZZVxfmSn58f915xcaHk5xdKeU2HSGB/3PdYsWqFLCoe+1zJ9pro/wMAgAzHL3R4FuGocxQTMgEARhGOIg2jtadOVhUXSmHxEqmoGhtC31FVbggbxyZAShCOhoyv5y8y9hCt275Et70Sicaj8eFovqypqJSamirZv3+/BBKEsrETMoVqyg3bqNS93RGokcqqGgkJw+oBAPALhtXDswhHnaMIRwEAowhHkY7ktSogS0yH1puHo8ZwUsmqqg4RGZ3cKSQS6qjUDY8f64kaG46WJ5yFfiLhqJLiFdulriN+W84fZQAAAGQVwlHnMKweABBFOIp0xNajUEdAaqoqpWJ7uZSXrzFMjDQ2fN48HO2oXJX8eZ8xSzTcNISjheVxEzaNSR6Oxg2rj/ZgLVwk5bqJoJw7ugAAAMhKhKMAADiPcBTpiNafQGW5IQg1W8YLR2vGmwwpZimvG92aPhwtnkQ4KiJ1FSuS7LNEKjuEZ44CAOATDKuHZxGOAgDgPMJRpEFEEszwnl8oJSXGCZDGC0djn/lZUdchoY4O6TBdxoJNy3qOjgp11Ej5miWSbxaQFpcTjgIA4BP8QodnEY46h2H1AIAowlGkQ0JVuueAKilcUm54Tuf2knTDUSVlVYljTj2rw1G9QM1+WaTvEVtIOAoAgF/wCx2eRTjqHDXePAoAgKxBOIp0hGrKdIFmsVTp6lQosF+KJ9BzVKTOMIGTUiVSGdDX0pBUbS+X8u0VUhWYfM/RNaPha0j3gUBVpVTVGHYqIf2zUAlHAQDwDYbVw7MyIRzt7e2Vjz76SHbv3i3btm2TzZs3y9q1azNuUUq5XoZ0ls2bN8u2bdtk9+7dcvLkSenr63O7SljCL/UqUxfqFUu21yvCUaRDAhWG3p6Fi1ZJ+fbtUr5m0YSfOSoiEqhYEv+5kkJR+YWGHqpKLZK66NZSDUdDNYawVql8KRztFVoREOmoWqPbziIpr9gvFeUrjMPrSyoIRwEAAGAvL4ejDQ0NsmPHDtdvtq1abr75ZtfLYNWyc+dOaWhocLuKpMVv9cpPC/WKJZvqFeEo0iAiHbJmnImYVGwIGhNS6sNREZH9KwrH396icukYXT/1nqMhKS9MsL3CctmxaLzvUBidkAkAAACwjxfD0fb2dnnrrbdcv6FmGX/ZtWuXtLe3u11lUkK9ypyFesWSDfWKcBTpEBGRjipZUWycfEnlF0vZ/jrpqKvQel4u2l43Wts6ZI0upCwur4mrj4HKcllUmB8XUBYWL5GKKuOw99RnqxeRUI2sKo4NRhdJRdVI1FqzX7/fQq3sxYvKpGY0jXX8IAMAAFswrB6e5bVwtLa21vSm9q233pIPP/xQmpqapKury+1iZpWuri5pamqS48ePm4ZAGzZskLq6OreLmRT1ynuoV7BDJtUrwlGkw1CJQiHp6AgZnuE5eSEJdXRIyNqNSig0Mut94s2GRkLWUCgubHX7mAMAAGvwSx2e5aVwtKqqynATu379ejl06JDlDXRMTl9fnxw8eFDWr19vOF/Hjx93u2imqFeZgXoFO3i5XhGOIh1u11s3uH3MAQCANfilDs/ySjhaXV1tuHF97bXXpLu729UyIbmuri7Ztm2b4bxVV1e7XSwD6lXmoV7BDl6sV4SjSIerldYlbh9zAABgDYbVw7O8EI7W19cbbljfffddGRoacq08SF04HJY9e/YYzt/ly5fdLpaIUK8yGfUKdvBavSIcRTpcq7AucvuYAwAAwOfcDkeDwaBs3LhRu1GtqKhwpRyYnHfeeUc7hxs3bpRgMOhqeahX/kC9gh28Uq8IR5EOVyqry9w+5gAAAPA5t8PR1157TbtJ3bZtm4TDYVfKgckJh8OGc/naa6+5Wh7qlT9Qr2AHr9QrwlGkw5XK6jK3jzkAALAGw+rhWW6Go5cuXdJuTtetWyednZ2OlwHW6ejokHXr1mnntL6+3pVyUK/8hXoFO3ihXhGOAgAAIJvQ6IVnuRmOVlRUaDemhw4dcnz/sN6BAwcMz2J0A/XKf6hXsIPb9YpwFB5H5w4AAGApGr3wLLfC0XA4LOvXr5e1a9fKiy++KP39/Y7uH/bo6+vTnsm4YcMGx4cdU6/8iXoFO7hdrwhH4XHUSwAAYCn+8grPciscPX/+vNZjZ//+/Y7uG/bat2+fdm5ra2sd3Tf1yr+oV7CDm/WKcBQeR70EAABAdnArHN27d692Q3r69GlH9w17nTp1Sju37733nqP7pl75F/UKdnCzXhGOwuPo3AEAAIDs4FY4Wl5ert2QNjc3O7pv2CsQCGjndsuWLY7um3rlX9Qr2MHNekU4CgAAgGzCX17hWW6Foy+99JJ2Q9rd3e3ovmGvrq4u7dxu3rzZ0X1Tr/yLegU7uFmvCEcBAACQTWj0wrPcCkejN6Nr166V4eFhR/cNew0ODmrndsOGDY7um3rlX9Qr2MHNekU4Co+jcwcAALAUjV54lhfCUfiPW+eXeuVv1CvYwa3zSzgKj6NeAgAAS/GXV3gW4SjsQIgFO1CvYAfCUcAU9RIAAADZgXAUdiDEgh2oV7AD4Shgis4dAAAAyA6Eo7ADIRbsQL2CHQhHAQAAAPvxl1d4FuEo7ECIBTtQr2AHwlEAAADAfjR64VmEo7ADIRbsQL2CHQhHAVN07gAAAJai0QvPIhyFHQixYAfqFexAOAqYol4CAABL8ZdXeBbhKOxAiAU7UK9gB8JRwBT1EgAAANmBcBR2IMSCHahXsAPhKGCKzh0AAADIDoSjsAPApSaiAAAgAElEQVQhFuxAvYIdCEcBAAAA+/GXV3gW4SjsQIgFO1CvYAfCUQAAAMB+NHrhWYSjsAMhFuxAvYIdCEcBU3TuAAAAlqLRC88iHIUdCLFgB+oV7EA4CpiiXgIAAEt57i+vjrb+fcrtc2gVwlHYgRALdqBewQ6Eo4Ap6iUAAPA3R1v/PuX2ObQK4SjsQIgFO1CvYAfCUcCU5zp3AAAAWMrR1r9PuX0OrUI4CjsQYsEO1CvYgXAUAAAAsJ/n/vLqaOvfp9w+h1YhHIUdCLFgB+oV7EA4CgAAANjPc41eR1v/Nujq6pLDhw/LkSNH5OjRozI4OKi9d/LkSTly5IgcOXJE6urqbCuD2+fQKoSjsAMhFuxAvYIdCEcBU57r3AEAADKb5xq9jrb+bVBTUyNq5LiKUkqqqqq09+bMmaO9fvPNN8vw8LAtZXD1BFqIcBR2IMSCHahXY958801RSsmCBQuS/p7bunWrKKVk8+bNIiKye/dumTJlisyYMUMKCgpk+vTphqWgoEB7fcGCBfLoo4/KtGnTDK/HrltQUCA5OTnaPt58802ZMmWKFBQUSFFRkfbf0tJSKSsrk9bWVkeOUaoIRwFT1EsAAGApz/3l1dHWvw3Onj1rCEd/85vfaO8tXLjQEI4ODQ3ZUgZXT6CFCEdhB0Is2IF6NWbbtm3j/hEwEolIaWmpKKXk+eefFxGRn//854bfn8mWadOmyfz581Ne/9lnnzWULdly5MgRx47VeAhHAVPUSwAA4G+Otv5tMJFwlJ6jyRGOwg6EWLAD9WpMKuGoyNjvxGg4GgwGpa6uTi5evCgXL16UmpoaycvLE6WU7Ny5U65cuaK9d+XKFcP69fX18t5774lSSnJycuSDDz6QS5cuaeu3tbUZynbddddJW1ubtLe3S1tbm+zevVtycnJEKSW5ubkSDAYdOVbjIRwFTHmucwcAAIClHG3924Bw1DqEo7ADIRbsQL0ak244GisUCsm0adNEKSXHjx8fd7/nzp3TwtGurq6kZZszZ05c2aKfVzG/u91EOAoAAADYz3N/eXWy8T8wMCA9PT3S399v2TYJR61DOAo7EGLBDtSrMXaEo6mEldHfvzk5OQl7fiYrWyQSkTvvvFPrqeoFhKMAAACA/TzX6LWjkV9bWyu5ublyww03yLvvvivBYFCWLFliCDEXLFggDQ0N2mdCoZAUFRVJUVGR5ObmSnV1tek2i4qKZObMmdqNGOGodQhHYQdCLNiBejUmGkDOnTtXIpFIwvW8Fo4ODg5KQUGBKKXkwIED4+7PCYSjgCnPde4AAACZzXONXjsa+bGBZaIlJydHAoGAiIzclE2dOjXhEDv9NvU3YoSj1iEchR0IsWAH6tWYaABZUFAgO3fulLfeeitueeedd+Smm25yLRw1C263bNmi/Y5OZRi/EwhHAVPUSwAAYCnP/eXVjkZ+onB0+vTpca8tXLhQRIw3ZYpw1BWEo7ADIRbsQL0ak8qM8PrFjXA0JydH9uzZI/v27ZNdu3ZJSUmJVp65c+fa9vt5oghHAVPUSwAA4G92NPJjA8v77rtPent7RUSkt7dXioqKDEFnS0sL4agHEI7CDoRYsAP1aoy+5+h7770n+/btM12iv3vdCEcTLaWlpdLT0zOp728lwlHAlOc6dwAAAFjKjkZ+bJDZ2dlpeP/o0aNxgSbhqPsIR2EHQizYgXo1JhOeOTp9+nRZu3atrFu3TtatWyc7d+6U2tra1L6ggwhHAQAAAPt57i+vdjTyEwWZUYFAQHJycghHPYZwFHYgxIIdqFdjMmG2+vGCW68gHAUAAADs57lGrx2N/PHCUbMglHDUfYSjzhoYGPDUcNILFy7IxYsXLd8uIZZ1+vv7ZWhoyO1ieAL1akwmhKN2/g62EuEoYMpznTsAAEBm81yj145G/njhaF1dHcPqPciP4eibb74pU6ZMkYKCAikqKtL+W1paKps2bUp4Q2+3lpYWycvLE6WU/Pa3v3WlDHrRn6OZM2daHr4RYo3YvXu3TJkyRWbMmCEFBQUyffp0w1JQUKC9vmDBAu16FQwG5fHHHzdc54qKimT37t2GnniPPfaYTJs2TYqKigz7KCoqkgULFsi2bdsS1vfoZ2N/TubMmSM/+MEP5OzZs44co4mgXo0hHLUO4ShginoJAAAs5bm/vNrRyNcHlrm5udLV1WV4f+/evYYb/ePHj48bjtbW1hKO2syP4eh4k4FMmTJFPvzww7S3v3LlSpk5c6aEQqEJfa6mpkYrw6uvvpr2/q0S/TmaM2eO5T8nhFgjfv7znyeti/pl2rRpMjQ0JMFgUAvRzZb77rtPC0jvvffelLb9xhtvxJUtlc+Wl5c7fciSol6Nefnll7Xfc8n+uOFGOLp161bC0RQQjsLjqJcAAMDf7GjkxwaWR44c0d4LBoOGEDQvL08bXjx16lTt9ccee0z7TFdXlyxYsIBw1GZ+Dkevu+46aWtrk2AwKM3NzdoNe/S9iYabUQsXLkwaDCTS29src+fOlYKCAqmrq0tr31aK/hzZ8XNi5/nds2ePK/tNRzAYlLq6Orl48aJcvHhRampqtOBz586dcuXKFe29K1euiIjIE088oV3zfvnLX8rVq1eloaFBnn766bjAMnq9u++++yQYDEpTU5M0NTXJxYsXZefOnYbr66ZNmwxli3720Ucfle7ubmlvb5f29nb59a9/rV2v06nndkrl/O7du9eV/Trt/fffF6WUzJ8/P6Weoy+99JLp+/pwNJUe7dHrRm5ubsK6cejQIdv+8GIHwlHAlOc6dwAAAFjKjkZ+bGCpRm/Yn3zyybjXf/azn4mISCQSkdtvv93w3uzZs+WBBx6I+wzhqD38HI6a3ZgfPXp0UqHP8PCwzJgxQ3Jzc6W3t9eqIrsiU8PRT33qU3LttdfKihUrHN2vFfRB1PHjx+PeD4fDcuONN2rhaazYOhu93q1fv950f+FwWO6++26tx/SlS5dS+mxjY6M2gV4qvQmdkuz8Ll++XK655hr5/d//fUf3i8xHOAoAAADYz3N/ebWjkW8Wjpot8+fPNwwBPHHiREqf04dZ+uHJKubmvbS0lHB0Avwcjpqd/8HBQZk2bZppOHrmzBlZtmyZlJaWyt133y1PPPGEIUyqra2Vt99+WwuNnn/+edm9e7cWctXX18uDDz4ou3btklAoJN///ve1ZzjW1dVJf3+/PPHEE/LII4/I1atXDftubW2V1atXy9y5c2Xx4sWyePFirV7X19fLN7/5TXnyySdNJ3MKBoPy6KOPSllZmTbcurGxUVavXi1z5szRnj95+PBhw+cyNRzdtGmTfPKTn5Rrr71WPvGJTxhCUq+HWOMNYda/v3v37nG3N96QaREx9NBfuHBhSp+N/pwkKqdbzM7v8uXL5dprr5Vrr71WPvnJT8rmzZsd2S/8g3AUAAAAsJ/nGr12NPJjw9F77rlHC5HUaK+ljRs3mj4b7f333497xt7ChQvlypUrWs/SvLw86evrExHjxDYqZijg6tWrtdftHNLnyomzQbaFox988IFpz9EtW7YkDOaPHDkikUhECgsLTd+fOnWqDA0NGUJ7fd1Xo70EoyFV7L4//PDDhPtev3699Pf3S0FBgSil5PXXX4/7vmvWrBGllJSWlkokEpFdu3Yl3F5FRYX2uUwNR0VE/vAP/1D7TvqQ1OshVirPd4z+gScnJ0fefvttGRwcTLi9VMJREZGysjJRamTyrXA4bPisWc/RPXv2aEOnY58f7Sb9+dWHovqfO7v3C/8hHAVMea5zBwAAcM+ymP+P3oRN9PV9utf3uf26HWInZOrt7dUmF+no6DDMsJxIV1eXtLe3p/0sSCd54Txa9XrBf/2UFo5Gh/QqpeTGG2/Uvq/VrzsVjkbD+HA4LJWVlVqorp/URh9qbtmyRUKhkPT392uB0nXXXSeDg4PS2NgoR48elby8PMnJyZHDhw/L6dOn5dy5cyIS/weCFStWyMGDB2Xjxo0SCoW0YEwfjup79T322GMSDAYlHA7LgQMHtO3U1tYmnHzFLGxbuXKlKKXke9/7njQ2NkpnZ6f2eIvod9GX1+5wVCkljz/+uPaefhb2ibx+4403aq+bhdkf//jHPR9ipRKOHj58OO67LVu2TE6fPh23bqrhqNkkOvrnle7bt0/effdd2bVrlzz00EPafvft2zf5L20h/fn9+Mc/Hnectm3bJiIjdSZ6rbGi7kV/TrxarzA5hKOAKeolAADQ+LJhYEcjXx8MeW0SDzu4fQ6t4ueeo0opLYxUugDlhhtukM7OTm39JUuWiFJKVq5cGbetO++8U5Qaez6kflh+bI86/c+A2dBes3B0x44dCQPKTZs2aT37Wltbte9x8uRJbZ1okHbddddpPQJFxPD9ov+Ohrqxz+7N9J6j11xzjVx77bXyve99zxfhqIhIdXW1YTKl6FJaWmp4tEKq4Wj0Wbt5eXnaIx30z2c2W/Ly8qStrc2aL24R/fl96qmn5JprrpFrrrnG8LvH7v3CfwhHAVPUSwAAoPFlw8CORj7haGbyezgau6xZsyZu/XvvvVert9/97ndl6dKl2hI7KY1ZwBkV/RnQ987UM/usvqzLli0z7HvGjBmG4Csa4i5fvlxERiY0iw7BfuWVV0yPRbT39vnz5+OG9GdqOBp95qg+FHViv1ZINRyNunDhgrzwwguGgD/V54bqnT9/PmnP0crKStm3b58cOnRItmzZotU9pZScPXt2cl/aQmbnVx+S8sxRpINwFDC1zO0CAAAA7/Blw8CORj7haGbyczgaHYLe0tKi9cKbP3++oYfl4OCgIQiaPn26TJkyRVui/66urhaR1MLRRM+6NfusftjutGnT4vadk5OjhT3RZ5NGH1sRCAS0n7eWlhbDvo4cOSL33HNPXDjsh3D0U5/6lFxzzTWGUNSJ/VphouFoVDgclqeeeiphwDleOBp9LMOMGTO04D7ZM0fD4bAUFxeLUkoeeuihCXxDeyU7v0899ZR8/OMfZ7Z6TJhHwlFR1j3Kidd53arXAQAA/MvR1r9PuX0OreLncFQfUkYnYlImQVI0JEolrEolHE0UNibrOTpeuCUiMjw8rD1H8Ze//KUWeMWGV8uXL9e+6/z58+WVV17RntHph3D03XffdWW/Vkg3HBUR7dEKEw1HBwcHtQm9opN2pfJZ/SMfzCbSc0Mq53fPnj2u7BeZyyPhKAAAAAAnOdr69ym3z6FV/ByOxoZ+L7zwghYaHjlyRHs9GhJFh6snY1c4OmPGDEOP1kS2b98uShmfpRp9HqqISGNjoxaCnjp1Snt9eHg4bt+ZGo56cb+pSiUcPXjwoGnP+2jAn5eXJ93d3SIyfsAZiUTkscce0+r9mTNntPfG++yjjz4aF6i6jXoFOxCOAgAAAMn5cmiJo61/n3L7HFolm8LR4eFhbahwbm6uFkDpe5Xu2rVLW7+3t1d27NghGzZskFAoJCJjs8vn5ORIIBCQ3t5eqa+vF5H0wtFgMKiFnMuXL9eGPIfDYdm3b59s2LBBrly5om0jGAxKXl6eVt6ZM2caQtWamhpRauS5pwMDA9rrP/vZz3zTc9SL+03VeOHo3r17tfP09ttvSygUknA4LMePH9fOu76ncDTgfPbZZyUUCklnZ6d0dnZKe3u7HD58WG666Satrvzwhz807Cv62ZUrV0o4HJaenh7p6emR5uZmee6557TPvfbaa7Yfl1RRr2AHwlEAAAAgOV82WB1t/fuU2+fQKn4MR7du3Zow9AsEAloYOXfuXG24cLSXnBoNpm6++Wbt30qNTUqjD7f063d3d2vBZKKwUR+s6nsG7tq1S9vWlClT5LbbbjNMwBMbTi1btkymTJli+l50H2q0d2lpaakhTE0Ujlo9bJoQy9x44Wj0ubKJlmgoL2KckGu8ZcOGDYb9pPrZOXPmpNSj2SnUK9iBcBQAAABIzpcNVkdb/z7l9jm0ih/D0UOHDsU9c9TsfaWUVFZWaq+/9tprkpeXJ1OmTJHCwkJRSsnSpUuloaEh4eeVGpllPhwOS0tLi+Tl5SXcbzgclhtvvFFyc3Olq6vL8N6RI0e054neeuutWnj7wQcfxG0nGsLqe7/GbksfrhYUFMjRo0flmWeeMXwmGo7Onz+fnqMO0Yejv/3tb03XaWlpMUzUFV2WLFkibW1thnVXr16dMNgsLCyUNWvWyOXLl033k+izU6ZMkfnz58vu3bs9M5w+inoFOxCOAgAAAMkxrB6m3D6HVvFjODpZ/f39MjQ0lLTH3MDAgIRCIW24vVV6e3slEolIf3+/Jdvq6emxoFQTR4g1eUNDQ9LT0yP9/f2e6r3pJuoV7EA4CgAAAGQhR1v/DmpsbJQTJ05IX1+f7fty+xxahXAUdiDEgh2oVyO/51asWCE333yzfOlLX5LHH39cTp48GbfegQMH5J577pH7779f5s2bJy+88IL09vZq7/f398sTTzwhP/7xj2VoaEjKy8u1bW7ZskW++c1vypNPPmn6B5ZgMCiPPvqolJWVab2LW1tbZfXq1TJ37lxZvHixLF68OO7REYcOHZIHHnhAampqpL6+Xu677z4pKiqSxYsXW/6HpokgHAUAAACykKOtf4fs2bNHGxaam5srra2ttu7P7XNoFcJR2IEQC3bI9npVV1eX8DEKVVVVIjLyPNkHH3zQdB3970b984mnT59uWG/dunVSUFAgSil5/fXX48qxZs0aUUpJaWmpRCKRpM/KXb9+vfa56GR50Wcm68vV3d3tzEE0QTgKAAAAJMewepuFw2FZu3atPPPMM7J37960tmE2ucixY8csLqmRy6fQMoSjsEO2h1iwR7bXqyVLlohSShYuXCjBYFBCoZC899578tBDD2k9PKMBZE5Ojhw5ckTC4bB0dnbK4sWLRSklDz30kIjETy43f/58+dWvfiVlZWVy5coVefnll00nbIudVEwfsj722GMSDAYlHA7LgQMHtG3X1tYayqZGA9LNmzfLnj17TANYJxGOAgAAAMn5ssHqaOt/HOfOndNulp5//vm0t7Nw4UJDOGo2E7SVXD2BFiIchR2yPcSCPbK5Xun/CLhz507TdfTBpX6yueh7eXl52qRs+nVLS0vjJmVrbW3VJnbTD9s/fPiwKKXkuuuuk3A4LDt27NBC1NhtbNq0ydB7VB+OVldXW3FYLEE4CgAAACTnywaro63/cezdu9eScLS1tVXmzJkjU6ZMkeeee87y2bdjuX0OrUI4Cjtkc4gF+2R7vfrRj36k/b687bbb5Be/+IVhOLo+8CwsLJTvfOc7snTpUlm6dKk88MADWo9SfTg6ZcoUrWdnrGhP1eXLl4uIMaB95ZVXRMQYeC5btkzb39KlS2XGjBmG3+3RdR9++GGbj9TEEI4CAAAAyWXdsPpkMyPbMWtyWVmZ6bPJxjMwMJD2TNwDAwPajOTJhMPhhN/Z7XNoFcJR2CHbQyzYI9vrVX9/vyxYsCDuuZ5lZWUiIlJfX294ffr06drzPadNmybTp0+XvLw86ejo0MLR3Nxc6erqMt1f9Fmiubm50tvbK4FAQAtYW1paRETk8ccf1/YXDVujy/Tp0yUnJ0c2b94sImPh6ER+1zuBcBQAAADIQiIiu3fvlmnTpskNN9wg1dXV8tZbb2lD6JRS8vTTT8vQ0JD09vbKD37wA8N7t956q5w4ccK0sd/Y2CiPP/64Yf2cnBx57rnnDDPlHjx4UJ599lnDetOnT9dmuf3ud78rw8PDUltbK7m5uXLDDTfI9u3bpb+/X+6//37tM9HhgNHvU1RUJHPnzo0LNHt7e2Xt2rVyww03GG4eS0tL5fjx44Z1Kysr5dZbbzWsV1RUJLt379Zm5nX+rNmDcBR2yPYQC/agXo24fPmylJWVSV5envY76sCBA1rgmZOTkzDwjNKvGwwGTdcZHh6WG2+8UZRS8stf/lJ7Dmn0uaUiY4FnKiM/JrKukwhHAQAAgCwkYhwKl2gpKSnRJlowW2KfGXbw4MGk28vNzZVAICCRSETmzJmTdN2ZM2fK0NCQnD171vC6PkxVuski9N8n9mavvr7ecBNptvz0pz8VEZHNmzcnXe++++6TSCTimxsZwlHYgRALdqBeGUUiEXnqqadEKSUrV66UUCik/c5+7733kn42lXBURGT79u1ar9Do71/9HxSjv3tnzJgx7sgSwlEjwlEAAABkCt8OqzcLR2fPnp0wRJw+fXpcr8u5c+dqz/aMHc6nlJJVq1ZpN26xn/npT38q06dPNy3D9OnTtWF4seFo7BJ9FlqicLS/v18KCgriAtbFixcbgtbnn39eGzKo/85PP/20zJs3T3st+pw1u86N0whHYQdCLNgh2+vV0aNHZefOndrv3UgkIg8//LAopeS1114TEZEXXnhB+z136tQp7bONjY2yZcsWeeONNyQSiaQcjgaDQUO7YObMmYYQNBgMar9Lly9fLoODgyIy8liaffv2yYYNG+TKlSsiQjgai3AUAAAAmcKXDVYRY5g4ZcoUef/990Vk5Ibm7rvvNu1VKSKyfPly0xDyoYce0l7Py8uTpqYm7TO1tbWGIFLf60Q/y7zZDZNZOPrDH/5QTp06JXv37pVLly5J7PfRl+vtt982fHblypXa0PhwOCwVFRXy0ksvydDQkNTU1BiOSVtbm1aOy5cvy/vvv6/dlDp3tuxFOAo7ZHuIBXtkc72KzjavRv9wp5/wSP8M0N7eXsMfBL/whS9IUVGR4fdzX1+f9PT0yNSpU8cNR0VEli1bpj27NBrC6u3atcvwu/O2224z/M6PfiY6LJ9wdAThKAAAADKFLxusIsYwce7cuVpgKCKyY8cOQ9Cof3ZZVVVVXAipH8qnlJKnnnpKwuGwdHZ2Smdnp/T19Rme4fmb3/xG295Ew9GXXnrJ9CYjUTganVlXKSXXXXed1qvFjD4cVWpk5t3oDWcsJ8+XnQhHYYdsDrFgn2yvVydPnox7HvaXvvQlOXfunGG96LPC1ejvw7y8PMnJyZHVq1dLX1+fiIw8T7S4uFhyc3PHDUejvxuTrXvkyBHt+aTRMs6dO1c++OADbZ3Dhw+LUkzIFEU4CgAAgEyRFcPqb775Zq1HZOx7sb1K9GFl9L3W1tZxn+mpX/Qh6ETC0WSTTJiVORKJyJ133pl0+3qxw+qjS1FRkezcudMQrDpyohxAOAo7ZHuIBXtQr0b09vZKT0+P9PT0JF1vaGhI+vv7ZWBgwKGSjZQtEolIf3+/Y/ucLMJRAAAAIAuJWBuOxva4HG+JPrdTZOLhaKJeK2Zljg4bTLb9WHv27ElY7tzcXKmvrxcRwtHJ8lrYAGsRYsEO1CvYgXAUAAAAyEIi1oajsSHkjh07pLOzU9ra2qS9vV1bmpqapLm52TCE385wdKI9R6NaWlpk9erVhmemRZfohFLOnjH7EI7CDoRYsAP1CnYgHAUAAACSY1h9GuHoqlWrUr45sDMcFTE+c3TGjBmGWXZTcfLkSbnpppsMx2poaMg3NzKEo7ADIRbsQL2CHQhHAQAAgOR82WAVsTYcFRmZzVbpelgeOHDAcBNw7NgxKSsrkyNHjhhe14ejK1euFBExPFd0suHo1q1bDeXSTwQRiUTk9ddfl3vvvVc6OjpERKS6ulo+/PBDw7Z/85vfEI5ajLDB3wixYAfqFexAOAoAAAAk58sGq4j14WhjY2PcEPQ777xTcnNzpbCw0PD6yZMnRWQknNT37FSjkx8ppeT1119Pur9Yicoc26tVKSWFhYXyzDPPGF4vLS2VY8eOGdbZuXOnbN682TC8fsGCBRKJRHxTLwhHYQdCLNiBegU7EI4CAAAAyWXlsPqXX355wuGoiMj+/fsTTmYUXfLy8qStrc10X/olOjN9quFosjJ/+OGH45br1Vdfjev9alYmJmSyBmGDvxFiwQ7UK9iBcBQAAADIQiLGcHTOnDmGcPTw4cPae7m5uQnD0dj3REQuX74sDz30UFyweNNNN8n27dtlcHDQsH4kEpFnn302LoR88803JRKJjLu/qPfffz/pevX19YYh/NHl/vvvl9OnT2vrHThwQG699VatHNFeo4sXL5bm5mZtPQdPl60IR2EHQizYgXoFOxCOAgAAAFnIiUb/0NCQdHZ2Smdnp4RCoXHX7+3tlfb2duns7LS1XAMDAxIMBqWzszPp5EwDAwMSCoWkt7fXdD23z6FVCEdhB0Is2IF6BTsQjgIAAADJ+XZYPSbH7XNoFcJR2IEQC3agXsEOhKMAAABAcr5ssDra+vcpt8+hVQhHYQdCLNiBegU7EI4CAAAAyfmywepo69+n3D6HViEchR0IsWAH6hXsQDgKAAAAJMewephy+xxahXAUdiDEgh2oV7AD4SgAAACQhRxt/fuU2+fQKoSjsAMhFuxAvYIdCEcBAAAAIIsRjsIOhFiwA/UKdiAcBQAAAJLz5bB6IMqtcHTjxo3azWg4HHZ037DX4OCgdm43btzo6L6pV/5FvYId3KxXhKMAAADIFDRY4WtuhaOvvPKKdkPa1dXl6L5hr66uLu3clpeXO7pv6pV/Ua9gBzfrFeEoAAAAMgUNVviaW+Ho9u3btRvSpqYmR/cNewUCAe3cvvnmm47um3rlX9Qr2MHNekU4CgAAgEzBsHr4mlvh6IEDB7Qb0hMnTji6b9irurpaO7cHDx50dN/UK/+iXsEObtYrwlEAAAAA8AC3wtHa2lrthnTnzp2O7hv2evPNN7Vze/HiRUf3Tb3yL+oV7OBmvSIcBQAAAAAPcCscHRwclHXr1mk3pcFg0NH9wx4dHR3aOV23bp0MDg46un/qlT9Rr2AHt+sV4SgAAAAyBcPq4WtuhaMixh477777ruP7h/Xeeecd13vYUa/8h3oFO7hdrwhHAQAAkClosMLX3AxHL1y4oN2Yrl27VlpbWx0vA6zT1tZmOJ91dXWulIN65S/UKxj74ucAACAASURBVNjBC/WKcBQAAACZggYrfM3NcFRE5K233tJuTrdu3SrhcNiVcmBywuGwbNmyxfXefVHUK3+gXsEOXqlXhKMAAADIFAyrh6+5HY729PTIpk2btJvUd955x5VyYHL0w1Nfeukl6enpcbU81Ct/oF7BDl6pV4SjAAAAAOABboejIiKNjY2GyU727NlDj6wMEQ6H5d133zVMatLU1OR2sUSEepXJqFewg9fqFeEoAAAAAHiAF8JREZEPP/zQ8Py31157Tbq7u10tE5Lr6uqSrVu3Gs7biRMn3C6WAfUq81CvYAcv1ivCUQAAAGQKhtXD17wSjorEBw7r16+XQ4cOSSgUcrto0Onr65ODBw/K+vXrDT2wqqur3S6aKepVZqBewQ5erleEowAAAMgUNFjha14KR0VELl++LC+++KIhdFi7dq3s2rVLqqurpampSbq6utwuZlbp6uqSpqYmqa6uNkxIE11efPFFqa+vd7uYSVGvvId6BTtkUr0iHAUAAECmoMEKX/NaOCoyMunJe++9F3dTy+K9Zd++fdLb2+t2lUkJ9SpzFuoVSzbUK8JRAAAAZAqG1cPXvBiORjU3N8uOHTtcv6FmiV/eeustaW1tdbuKpMVv9ermm292vQzUK//VKz8tXq1XhKNZ55NKqf+klPqE2wUBAAAAoOPlcDSqt7dXPvroI9m9e7ds27ZNNm/e7PrNdjYtmzdvlm3btsnu3bvl1KlT0tfX53aVsIRf6pVSyvUyUK/G+KVeZeqSSfUqi8LRP1MjI7GOmSxHlVIblFJfU0r9X24V0Eb/Qyn1EzXy/fVLt1LqMaXU1CSffVopVa1GjtMFpdR/sbWkAAAAQLbKhHAUQGJKKbeLACANWRSO/rmKDwcTLd9WSv2uO8W01J+okWAzle+8QY30KI31U906zYpwFAAAuIhh9fA1wlEgsz3++ONuFwFAGghHEy4PulNMy/yFmtj3FTXSM/QPY7bzY0U4CgAAPMLvDVZkOcJRAACcl8Xh6Eyl1LVqpLfk/6mUuj/m/W6l1J+6UtLJ+y9qJOjUf59mpdS/qZHv9AdKqU+r+O8sSqmdSqnf022LcBQAAHiG3xusyHKEowAAOC+Lw9G/NlnnnhTW0YtObpTI7ymlPqaUumaihVUjw/qvTbLdRO8pNfJYAP332KWU+s8J1v1TFR+k/qPufcJRAADgGQyrh68RjgKZjWH1QGYiHDX4s5h1SkdfL1Ijz+6sH93Onyil9uvWuyNmO/+glNocs61jSqk7VXyo+Qml1O7RZZlSKlcZA8mjamSIvFJK3aCUelP3XrdSapEy9vT845j9phJo/mXMZ86osdnsCUcBAAAAJxCOAplNMSETkJEIR5Ouc8vo6/8S83rs8o3R9a5V8aFo7FKvRobxR31CKXVynM90K6WeS/L+RqXU74xu7/Mx70UD3mQ+ppRao/tMs1Lqj0bfIxwFAAAAnEA4CmQ2RTgKZKQsDkfzTdZZFrNONEAdLxz9n6PrPR7zevPoa4diXj+jlPr46Gc+oeJnlO9WSm1Jsr+tJq9NH93eV1P4nmZiv2P0uxOOAgAAz2BYPXyNcBTIbAyrBzJTFoejt6iR53BGJydaoeKDzWjvydjgsFspNUsp9Rml1BeVUp9S8UPyt6iRZ5JGfSPm/ehzPWPD0R+rsaH3BTGf0fc6/dPRMsb2XtWXdSJhZpEyD1UJRwEAgGf4vcGKLEc4CgCA87I4HB1vmav7bGw4Os1k+/p1utXIsz/1Pq5Gnh8aXWeDGhnOHhuO6nt6xr73Dd17H1NK/czkvXTD0S8qwlEAAOBxfm+wIssRjgIA4DzCUdNlTsxn9YHjTjX2fE+9+2PW+V2Tdb5vsk5sAKp/FmqycFQpY3AZfe82ZR5yjic2AP5bk30QjgIAAFcxrB6+RjgKZDaG1QOZKYvD0Wo1Nkv8LqXUKjUy1N4s/NMHh1tUfDj6MTXSEzTZOkop9WUVH7JaHY7+Xcz3vMOkHLE+ppT6qe4z3Wpk2H7sPghHAQAAALsQjgKZTSkmZAIyURaHo6n2qFQqtZ6jD6SwzuMx69jRczRXGb9nvRp5Jmoy18d85oBS6vdM9kE4CgAAANiFcBTIbIpwFMhIWRyO/nXy1Q1SCUdjn/X5RzHv/44yzlpfruzpOaqUMYSN9mT9RILv9sdKqZMx69+aYB+pBK0AAAC2YVg9fI1wFMhsDKsHMhPhaEpSCUc/E7P9H6ux3pdKKTUv5v2bR1+3Ixz9I2WcyT4a2BYrpf53pdT/qpT6b0qpr8WsI2okwNWX+8cx709TSuUopf6rbvk/Rv8LAABgK783WJHlCEcBAHAe4WhKUglHlYoPEo8ppe5WSr0R8/oFpdT/MvoZO8JRpZQqUPHB53hLvRoJT5N9p0TLAWU+CRUAAIBl/N5gRZYjHAUAwHmEoylJNRz9pDIOnTdbmpVSf6b7zCeUcVi7vlz/Kea92AD0p0neU2qkN+uFccqjX/7NZBs/TfGz0WeoAgAA2IZh9fA1wlEgszGsHshMWRSO/okyhnl/NYHPjjdbvd7vKaX+VSlVGbO/bqXUw0qpP4hZ/xNKqaMJyvU7Sqk3de/dFfPZZUne05enSCm1WY0fcHYrpabGfH5xCp8TpdRGlfy4AAAAAEiGcBTIbEoxIROQibIoHHXDJ9VIGPqf3S7IqGvUSFn+QI08d1QppR5U8T1b/9SV0gEAAADZjHAUyGyKcBTISISjWe9jSqnvq/hnj/6hm4UCAAAww7B6+BrhKJDZGFYPZCbCUaiRgHSNip80aoqbhQIAAIhFgxW+RjgKAIDzCEehk6eU+kul1P+rlPoLxTNEAQCAx9Bgha8RjgIA4DzCUQAAAGQKhtXD1whHgczGsHogMxGOAgAAAIAHEI4CmU0xIROQkQhHAQAAAMADCEeBzKYIR4GMRDgKAACATMGwevga4SiQ2RhWD2QmwlEAAABkChqs8DXCUQAAnEc4CgAAgExBgxW+RjgKAIDzCEcBAACQKRhWD18jHAUyG8PqgcxEOAoAAAAAHkA4CmQ2xYRMQEYiHAUAAAAADyAcBTKbIhwFMlKK4ehap9oDAAAAQCIMq4evEY4CmY1h9UBmGiccPatGnntPr1IAAAC4jkYpfI1wFAAA5yUIR/WhqCilfuFK4wAAAADQIRyFrxGOAgDgvOjv3iNz/lpUfChKr1EAAAB4BsPq4WuEo0BmY1g9kJmiv3s/8bsfMwtFzZZ9aqRdyuvOvR5M0oQCAAAA4AeEo0BmU0zIBGSkmJ6j5xQ9R72IcwAAAAD4HeEokNkU4SiQkRI8czQ2JOWZo+4iHAUAAFAMq4fPEY4CmY1h9UBmGme2en1ICvfsc7sAAAAAXkCjFL5GOAoAsFOkPyThxkvS+4s3pP3pRdJ050xpvC1fGouvl8biT2tLw5f/fOS12/Kl6Wt/J+0r7pfeva9LuOGiRPpDbn8Ny40Tjkatd6xBADN0kgAAAFCEo/A5wlEAgNUi/X3Su/d1aVk8Wxr/JV8aZn1GGmd/dmS55XOpLaPrN8z6jDT+S760PHir9LyzVSID/W5/PUukGI7CXZwbAAAAxV+M4XOEo0BmY1g9vCISicjg+Y+k7dH50vDP/8/EgtAJBKYN//xn0vbofBm8cEoikYjbXztthKMZgXMDAAAA+B3hKJDZFBMywQNCxw5J0+3/XRpmT51w4Nnw5eukcVYan5s9VZru+Lz0H/+1218/LYSjGYFzAwAAAPgd4SiQ2RThKFw0eOmsNJX+vTSkEW423vI5aV7wRRlqb0krHNWWWVOl6a4vyODl824fjgkhHM0InBsP0v/ssLB4ZXH75wIA7Mawevia/pc6gMzDsHq4JbhqSdqhaOMtn5PAV/9GIoMD0n/ymCVD8BtmfUY6fvwfbh+WlHFTnRGYrd6D3A7BWFjMFrd/LgDAblzo4Gv6X+oAAIwnXH9BGm/5zCSfHTpVBk4eExGRvsN7rH0m6eypEq6/4PJRGh831RmBThIe5HYIxsJitrj9cwEAduNCB1/T/1IHACCZ3vfenPis8yZL053/UyLDwyIiEr5SO7lh9SYBaeMtn5XeA2+7fLSS46Y6I3BuPIi2K7yC6ziAbMJfjOFrNDCBzMawejilq+wZaZg1yR6jo0v3y8+PbTgyLA2zrk8h8Jz4MPuuTc+4d8DGwU11RuDceBBtV3gF13EAAHyCBiaQ2RQTMsEBbY/fZclzQRtv+Zw0zpoq4YY6w/bbl38j8frF10vbf9yRdi/S9icWuHPQxsFNdUbg3HgQbVd4BddxAAB8ggYmkNkU4ShsFnz2QWmYbeGw9+LrZfhql2Efg5fPmw+tnz1Veg+8Lc33FKW9v4bZn5WO55a6dPQS46Y6I3BuPIi2K7yC6ziAbMKwevgaDUwgszGsHnbqXPfU5HqMmgWexddLJNRn2E9keFgCd86IW7dpwd9LJDIsgbl/NalAtmH2Z6Vz/fdcOormuKnOCMxW70G0XeEVXMcBZBMudPA1GpgAADN9v9o1qYmS2p++XwbOVMcHlTf/uUhkOG5/3VteMAaxs6ZK6NhBERFpnPOXlgzn7z2w2+nDmBA31RmBThIeRNsVXsF1HEA24UIHX6OBCQCINdTSII3F40ySNM7SfHehSCQi3a88H9eL00xkoN8Qxjbc8lmJRCIiIhIomWnJkP6G4utkqKPVyUOZEDfVGYFz40G0XeEVXMcBZBP+Ygxfo4EJZDaG1cNqkfCgBOb97aSDyOav3zSyvcEBadTNct901z8k3HfrI2MTL3X85Dtjry+dZ0k42njL5yTwb38jkfCg7cdxPNxUZwTOjQfRdoVXcB0HAMAnaGACmU0xIRMs1rn+e5bMTN/6yDxtm8Fnv6W93vbkPQn33f/BIWmcPVUaZ02VgTPV2utXt79oSZmiPVc71y+39RimgpvqjMC58SDarvAKruMAAPgEDUwgsynCUVho8EqdNHz5OktCyK6XntW2G26+MjJkfvZnpafilYT7H77aJY3/ki+Nt/6FDPde1V4fam8ZCU0t6j3a8OVPSzhw2dZjOR5uqjMC58aDaLvCK7iOA8gmDKuHr9HABDIbw+phpeavf8GyAHLg9FjPz0g4PBJ6zpoqQ80NCfcfGRqSpvl/J4GvzRQZfd5oVMsDsywrW+Mtn5Om0v9p23FMBTfVGYHZ6j2Itiu8gus4gGzChQ6+RgMTACAiMnjuxKRmpzcssz5jeK5nZHhYmu78HxL46t9IZHgoaTlavzVHWh68Je71cEuD4dmlk15mT5WBM8ctP46p4qY6I9BJwoNou8IruI4DyCZc6OBrNDABACJiaa/M9if+PW77zQv/SbpeWjluOdp/8KAEn3nA/L3l91pazsAd/33Sxy1d3FRnBM6NB9F2hVdwHQeQTfiLMXyNBiaQ2RhWDysM1p2WxuLrrXmeZ/H1MtQSP3S+delXJTIUHrcs3eWr5eobL5q+N/LsUut6jzYUf1rCV2onffzSwU11RuDceBBtV3gF13EAAHyCBiaQ2RQTMsECrQ/dZt2zPL/2d6b7GGptTKksfZW/kNAHhxO+3/bofEt7j7Y+NCedQzZp3FRnBM6NB9F2hVdwHQcAwCdoYAKZTRGOYpIiA/3SeOs0y8LGro3fn1R5Bk5XS9ik52nUUGebNFjUy7Xxls9J479Mk0h/aFJlTgc31RmBc+NBtF3hFVzHAWQThtXD12hgApmNYfWYrP7qX0vjbIsmYir+jISbrkyqPEPNV2SovTnpOs13fcG6cHT2VOk/8f6kypwObqozArPVexBtV3gF13EA2YQLHXyNBiYAZLeWh75i3TM8Z10vkeHhSZUnMhSWoc72pOt0bfqBNM7+rHVD6x8pmVSZ08FNdUagk4QH0XaFV3AdB5BNuNDB12hgAkD2igwNScM//TfLQsb2p77hSLkHTh2TBgvD0SuFfyyRSMSRskdxU50RODceRNsVXsF1HEA24S/G8DUamEBmY1g9JiPcVC+NxRbN/j77sxI6dtCRcg+1NUnjLIseBXDL56Sx+NMy1BpwpOxR3FRnBM6NB9F2hVdwHQcAwCdoYAKZTTEhEyah991t1gWMsz4jMjzkSLmH+3qkcZZFoe7o0vvLXY6UPYqb6ozAufEg2q7wCq7jAAD4BA1MILMpwlFMQsePlloYjk51rNyRobA0FH/a0nC048ePOFZ+EW6qMwTnxoNou8IruI4DyCYMq4ev0cAEMhvD6pGuSCQizQv/iXB0dGle+E+OlV+Em+oMwWz1HkTbFV7BdRxANuFCB1+jgQkA2SkyOCBNX5uZmeFoeFAaZlkbjjZ9baZj5RfhpjpD0EnCg5xquw40XpKe6sq4pffUMQm3N9u670zQU10p5x/+V7n4vYUiQ848UsVruI4DyCZc6OBrhKMAkJ2GQ33SOGe6dQHj7M9KZHDAkbIPBVssf+Zo4N/+1pGyR3FTnRE4Nx7kVNs1UPaM4ec0djlz9z9K15Ff2FoGtw22NMjVYwdMr+2BTc+OHId7vyQyFHahdO7jOg4gm/AXY/ga4SiQ2RhWj3QN916VhuLrLQ1Hr77xoiNlHzh9XBpmf9bScLRxzl86UvYobqozAufGg5xquza/8hNtPzXz/15O3/VFOXN3UVxI2rbzZ7aWwzWRiJz/1lfk1LzPy2BLQ9zb0eMzEo7Sc9TtnwsAADAJhKNAZlNMyIQ0Dfd0W/7czqY7nRma3rnuSWm0Ohy9Ld+RskdxU50RODce5Hg4evsMCQdbtdcj/X3S8tr6sZ/hkpky1Nlua1lcERmWC9+eJ6dunyGDrYG4twlHuY4DAOAbhKNAZlOEo0iTHeFoY/FnJNx8xfayB/7tBmvLTTgKc5wbD3IjHDXrOdmyda1Wjs5D79haFjdEBvql5s6/k1O3z5Ch7o649wlHuY4DyC4Mq4evEY4CmY1h9UjXSDg6wWH1sz8rgbl/JY2zpkrj7Kmm67Q/vdjWcvdV/iJxr9HZU8fKONGepYSjiMds9R7kSjhq0nPy6rEDceFo7+njcuHb86Srcq8MdXfIxeXfkJr5fy9n7v5Haa94VftsZHBAWndskvMPf1XO3F0kZ+4ukrpld0nH/p0ikYhhP/pt9p4+Lucf/qpcfOpeOfONf5aOfTtERGQgcFnqVy2RM/d+aWRbj39d+s5/ZPq9+s5Uy6WnF2vrnv/WV6R1e9lYwBmJSM+H70vr9hfl1O0z5NS8z0vzq6ul7a3N0rr9RRloqDMcn/Pf+ooMBC5J/Y+Watu88MgdcvWDg6b77zz8jtR+52va9679jxLpPGwMl4f7euTi8vuk9j9KpOej38RtI/jedrnwSIm0bjc+yqXr13vjtm12TK3CdRxANuFCB18jHAWA7DTc1yuNt/7FhHuGDtZfkHBTvfT9eo8En3lAAv9aII3F148EpqMB6lBH6/gFSEMkPCiBOX85sp9ZU0f2e8vnpHlhsXSu/a70n3hfwi2NMnj5/IQnbAr861/bUuZEuKnOCHSS8CCvhKM91ZVx4Wh0kqLzD39VTn/9/zP8nNf/+D9ERCQcbJXTd30x4URPF749zzDBUXSbiZbAiz+QUyUz/3/23j0+ivre/3+3p9VzWuM57bH59XjosaIihkItLUd+UFqLF+pBVI6KkYIXECso3igI3rhUQD0qXiGLKApSFLAqRBQpXhAEg6IoBAIJl4QECOSySTZ7n9f3j81MZmYv2d0kO7OT1/PxeD2U3c/MfHbnsjPPfC4x3/OWFRs/0xsL4q5n751XQQn4EXLXJtyeKmT1Y7LGi3vzutaNK2EcmPnnuGXLn7pPk5ghd22k1WqsVrlKWBsLVf1OAeDosmfjrruyYFb6B0ICeB0nhHQleKEjjoZylBBCuiaKz4ujowek3P287oXpMdfl370dtfOm4tjtl+HomAs7Zeb6etdfcXTMINTMvh3Nm9Yh7K6NXe7F2Sl/riM3Duzw+iaCD9VZAfeNDcm4HL1hULQcVcLY/9AYrR5N335uXEYVjhOvQNVLj6Js6ig0frXZIPaKRw1ApesR+A7tg/dACQ5MHxdT5hkmhho7ONKCtPjLqMmhyp+6D96yYkP5/Q+N0YRj41ebtddL/3Idmkt3IdRQh5q1y43bVRTUfVKIStcj2uuJWo5qZd5YAF9FWWR9LS1O9TPZ6yVv+VP3IVBdhWDNMVQumNkqU7duABCZMHD3zRfGkaMKyqaNRvGoATj83IOt5VtkatnUUfCWFcN3eH+kjjcMQv0nhR19eADgdZwQ0rXgX4yJo6EcJSS7Ybd6ki5KOIxj44ekMTbn+Qj7mhOvOxSE0glj0Ck+b5vdI5VgEFUjfpXy5zo2/pIOr28i+FCdFXDf2JCMy9FRA9C0cxuCtdUI1hxD4/ZNBsG5967hWpd0/TL6lpAqjV9/pr1/dMk84wYVBQem3xJ5/8ZBCNadMK7TNPGTd/9ubV2HTMOZlD91n1FOqpMrjRqA0kkjosYIrf1gZcs2fhe5zgJo3vuNJocTjTlafMMg+CrKDO9Vr2wZj7VlvFZ9S9BK1yNR6zr0+L0oHjUAB6bfAihKynJUa8U7eiD8lQej1t9Z8DpOCCGEOATKUUKyG+GETKQdnJgxLnU5OrwX3K88YXXV49Kw6sW0ZrI/MfPWjNaTD9VZAfeNDbFCjsbNjYPgP3IoepkbByHsaYhap9Z68sZBCDW6o9737PpCW7cqBdV17r3zKoPUDDc3aQJRbXFproc6WZJeTu69azg8u75AwxeftGQj6j9dG+mar5t8qmnntlbBmWC2er0cVjEvqx+CoGrhbDTt2Kptv/HrzzSZqsrcVOVooLpKa626e+xg1H30Tqf0XjDD6zghhBDiEChHCcluhHKUtIPGN19KXY62jPcZOnHU6upHEfY0auOQppqmd/+W0bryoTor4L6xIXaQoyW3XYYjrz6JsNcTcxmzyIx6P4ZQBIzC0yxHzbPCJxKI5mX0ZRMmDTkaa7b6KDmq/ruN7Lnl4rTkKBQFhx69K2p9B2ffDu/BvXH2cPvhdZwQ0pVgt3riaChHCclu2K2etAd/yY7WiZRS7YY+cRgUJWz1RzBw4oEb0pS95yGwf3dG68qH6qyAs9XbkIzL0dED4d2/G2GvB+HmpoQtEhMJQ/378eRpJuRo1UuPov7Ttaj/pDBm1DFCO0WOjh6IE2uWxtxu3Ydvo2Hbx2l1q1ep/WAVSm6/PEqS1n28Ju4+aw+8jhNCuhK80BFHQzlKCCFdF8XbjMrLz0pPKA7vhca3X7H6I2h4Nr2PyjRFb+XlZ0HRzQ6dCfhQnRWwkYQNsUKOxpKDiZaJJ0fVbvV7brk4pmT1lZdq3cPrWiYR6gg5qu9WX/vBqqQ+S4fK0RTHBNV/NvdnHxjfTCBHVQLVlahaNLe1pW+c/dFeeB0nhHQleKEjjoZylBBCujZHrjs/PTna0uLS++WnVn8E+HYWoeqq9LrTV/3vL3Bk1AUZrzMfqrMC7hsbks1ytPYff29tzRhjBvWqF+do2/SVlyZcZypyFEoY+yZdm1DMmmlLaKYiR4O1xzU5a548KhZ6mXv8HdMf4cIhrXVoPDmqcmjunbo6dvwfwHgdJ4R0JfgXY+JoKEcJyW7YrZ60l6Y1S9KawEjLNX3gXvx/cL/ypDV59UlUXd0n/foP7wXP+jcz/r3zoTor4L6xIdksR5WAH3tuuVhbr9qNHIqC439/Sftc+x8ao8103yFyFED9xne19ZdNHaWNLRpqrEf1qoUomTAUFfOmauW9+3dr5avfXIRwcxOOv/0Kws1NbX7WWK1OK+ZN1dZX6XoE4abIhFWBY4dR8cz9KJkwFMf//lLU97R77EXwHtgTqdPBvSj9y3XaelQ5GmqoQ9n9N+Doa89A8Xm1z7XvnqtRPGoASv9yHRBmy1FCCCGExIFylJDsRjghE2kn4SY3Koen1x3dERneC+GGuox/73yozgq4b2xINstRAIaZ22PmxkGG7aUjR9Xu+4Zl4kxapE/JhKFaq1LF74s5iVPlgpltftZYcjTc3NQqhuOk/MkpmhQ+/tbLib8nnRw9tvwFw+t777zK8O/G7Z3Tw4HXcUIIIcQhUI4Skt0I5ShpJ4qi4OifL7ZeUlqUo7cO1h7GMwkfqrMC7hsbkql71xOFr0W2c8OglOVovAmXVHzlpdj/0JhIy0idgDz0+L0Imf5YE2+dhnE5N68zLKO2Eo2qh6LgxOolUZKy5LbLUL3SFVXn+k8KtTFQI+X+iMavP2vzs2py1PTdKQE/KufPNKxTbdkZa+Klo0vnGYXo6IGo/cffcWL1koioLZillT3+95ewe+xFps/1R7i3/iPufmgvvI4TQroS7FZPHA3lKCHZDbvVk47As/Hd9LvWX3s+Gl6fj4YVBZal6po0u9UP74XmLest+c75UJ0VcLZ6G+Kke1fF50W4uSkiRDuh23ciQg11CNZWI+z1JCynBAMIuWsRctd27PZb1tnm+KehIII1xxCsrU7qD1nB2moEa451eH1jwes4IaQrwQsdcTROusEkhBCSHoqioHLY2WkJxiP5v8n4TO9mjlzXN626V17RA4oFrUYBPlRnCWwkYUN470rsAq/jhJCuBC90xNHwBpMQQggANK5Ziqo0xh7NWjk6vBea3nvdsjrzoTor4L6xIbx3JXaB13FCSFeCfzEmjoY3mIRkN+xWTzoKJeDHkZH9uo4cze/bdnfOToQP1VlBrRifBaZLRJiCr1v7+u19fsZ7V2I5vI4TQgghDoFylJDsRjghE+lAmjd/gKqrznO+HL0qD96tGyytMx+qswLuGxvCe1diF3gdJ4QQQhwCbzAJyW6EcpR0MEdvSW3m+myUo8duvcTS+gJ8qM4SuG9sCO9diV3gdZwQ0pVgt3riaHiDSUh2w271pKMJuWtRdXUKrTCv7oMTM27FieljLUvV1b1TkKO9EKo9bvXXzIfq7ICz1dsQ1EUHUAAAIABJREFU3rsSu8DrOCGkK8ELHXE0vMEkhBBixrPhbVRdlfrkTLbPVXlo3viu1V8vAD5UE5IuvHcldoHXcUJIV4IXOuJoeINJCCEkFjWP3oWq4b3aJyOH9+rYtLMutU9Msvpr1eBDNSHpwXtXYhd4HSeEdCXYrZ44Gt5gEpLdsFs96SyUcBhHb704fSl5VR6C5fs6rD7+km/Sb806vBeOjvsDoCgdVp/2wofqrIDd6m0I713Tp+b9N1D6l+twcM5EIBRKax3+qkNo3P4pfOWlCcspAT+admxF044tUAJ+3RsKmr79PPr1LITXcUIIIcQh8AaTkOxGOCET6UQUXzOO3PD/p91a07306Q6rS/2iuWmL0SM3DYIS8HVYXToCPlRnBdw3NoT3rulz7G/PoXjUAJRMGAqkMZGe4vdh980XonjUAJQ/OTlh2eoVLm0/Baortdebdm6L+Xo2wus4IYQQ4hB4g0lIdiOUo6STCTc34ch1fdJrQXr9b6B0QGtNRVFw5IYB6XXrv7YXwl5PB3wTHQsfqrMC7hsbwnvX9DHK0dRbjobctdh90+9RPGoADj/3YFLbKh49EIHjR7TXNTlqej0b4XWcENKVYLd64mh4g0lIdsNu9SQThL0eHB17YeqCdHgefF9tbvf2vV9tTr1L/fBeODruIih+e7UYVeFDdVbAbvU2hPeu6dNeORr2NGotRylHeR0nhHQteKEjjoY3mIQQQpJBCYdRffdVqExVkF57frsEpeLzouqaPilts3J4L1RPusZWY4ya4UM1IenBe9f0oRztWHgdJ4R0JXihI46GN5iEEEJSoWFFAaqu7JmSrDxy/W8Qqj2e8rZCdSdw5PrfpCZGr+yBxjcXdcIn71j4UE1Iejjh3rW5ZAf2PzQG5U9OjpqUKFh7HAemj8P+B29G4MRR44JKGBXP3I/9D9yIRl2r/GDtcVS9OAf77hqOktsuw947r0LVorkImq67qrAs/ct1CDXWo+rFOSiZMBQlt12G0r/ko+7DdxLWm3LUCK/jhJCuBLvVE0fjhBtMQroy7FZPrCBYUYYjI/ul1or0yp7wfPg2lGCgzfUrwSAa1y5PTcIO74Ujo/ojeORQBr6B9sOH6qyA3eptiBPuXd1b1mufoXH7JsN7J979m/Ze9aqFhvc8u77Q3mv69nMAQNOOLYbriSGjB8K7f7e2vCYsE+TIy4/HrTflqBFexwkhhBCH4IQbTEK6MsIJmYhFKAE/3K/8Hyqv6JH0WKSVw/Nw5PrfoN71CPx7v0G42QMlGIASDCDc6IZ/z9eoXzgbR67vh8rhKYwxeuW5cC9+PCnxahf4UJ0VcN/YECfcu4abm7B77GAUjxqAyoJZrW8oCsqmjdY+X+lfrgPCrd3fj7zyBIpHDcCeWy6GEvAbJkjaPXYw3Fv/gbCnEU07tmoSc+9dw7Uu9GY5enTp0/Ds+gJ1H76jrad49ED4Kw/GrjflqAFexwkhhBCH4IQbTEK6MkI5Siwm7GnA8fvyI4I0lZakV+Wh6srzUDnsbFQOOxtVV56X2qRLw3uhangejk8egbCn0eqvIWX4UJ0VcN/YEKfcux56/F7d+J9BAECwthrFNw4ytPwMVFdGFgiHUHL75QYxeXTZs5FyNwyK6kLvP3IIxaMHonjUAHj2fA3AKCwbTZPladJy1ABUvfRYzDpTjhrhdZwQ0pVgt3riaJxyg0lIV4Xd6oldCNUeR93zD6Hy8rNTn1k+lVyVh8rLu6Pu+YcRqkt9HFO7wIfqrIDd6m2IU+5d3Vv/oUlCX3kpAKDm/RWRFqNTRmLfpGtRPGoAatYuBwD4ykuNXeoVBaV/uU6To007tqLhi0+0NH61GSUThqJ41ADUb3ofQKuw3HvXcEOLVABAOIS9d1wR3ZpVX8TTqLUwpRzldZwQ0rXghY44GqfcYBJCCLEHSiiE5k3rUH3nlai6uneke3yqM9ybWohGutj3QvVdV6F56wYoLa2sshk+VBOSHk65d9W3wqxetRBQFByYfguKRw1A7QcrcfztV1A8agDKpo4CAO3fxTf+LjKJk6kLfqLUfbQaQBuz1evWVzZ1VLQ8RctwAC11jidQVQxyVG39CspRQgjJVnihI47GKTeYhBBC7EfY0wjft0VoWDoPx/48BJXDe6HyinNQdVXP2K1Lr8pD1VXnRcpc0wdHb70U7qXz4Pu2COHm7Os6nwg+VBOSHk66dz04+46IjJw2GmFPQ6RVZotM9FWUaa1CQw11KLv/BhSPGoDyp+6LLKyTmfsfHgv3Zx+g/pPCqNRueAvB2moAyctR81inscrEE6gq6vioxTcOQqi+RnudcpQQQrITdqsnjsZJN5iEdEXYrZ5kG0rAj8DBEni3b0bzpnXwfLgGng/XoHnT+/B+uQmBAyVQ/D6rq9np8KE6K2C3ehvipHvX+k/f0wTiseUvGMWkrpv7seUvaC02G7d/GllY163+0GN3J7U9rVv9nVfFkKNhbXtxu8wrCsqmjorZItRQLODHnlsujiliKUcJIYQQYjucdINJSFdEOCETIVkJH6qzAu4bG+Kke1f9bPNqqlct1N4/+tozxi7yN/4Ois+rvX9k8f9FjVuaiEQtRz3FX2rbObpkXtx1qOOiqi1eYR7mRFFw+LmHtDLm7veUo4QQQgixHU66wSSkKyKUo4RkJXyozgq4b2yIo+5dFQUHH5nQej0YPRD+yoPa2979uw3XCnML0UB1lTYj/e6xF8FT/CWgKFCCAdRveh97J16B/Q/ciGDNMQC6cUBbWoeGPZHhSjx7vm6VtDdEz3xvIBzCnlsv1dZTctsfUfvBSjTt2IL6T9dqE0mpLWKDdScMi1OOEkJIdsJu9cTROOoGk5AuCLvVE5Kd8KE6K2C3ehvitHvXug/f1j5P1Fif4RBKbr9ce9+9dUPU8ifWLE08IdPogfDu3w0gRkvUUQOwe8wfDP8+sXpJm3X2HzmkdfNPtN2mnduiljXI0Tjd8rMFXscJIV0JXuiIo3HaDSYhhBCSDfChmpD0cNq9a7D2uNZq8/g7r0S9f3TZs1qX+rCnIeY6Gr/ajH33XGOUnjdfiMPPP4xQQ51Wrub9NyItUB+9W+uSX3LbH1tang5G/afvJV3vsNeDqkVzUXzjIBSPGoA9tw7Rtl0x7z5tEigzmhy9YRBbjhJCSBbBCx1xNE67wSSEEEKyAT5UE5IevHeNT9jrQbDmGELu2qTKKz4vlIA/6fLxCNZWQ/H7It3xFaVd68omeB0nhHQl2K2eOBreYBKS3bBbPSHZCR+qswJ2q7chvHcldoHXcUIIIcQh8AaTkOxGOCETIVkJH6qzAu4bG8J7V2IXeB0nhBBCHAJvMAnJboRylJCshA/VWQH3jQ3hvSuxC7yOE0K6EuxWTxwNbzAJyW7YrZ6Q7IQP1VkBu9XbEN67ErvA6zghpCvBCx1xNPofdYZhGIZhMh+r7wUIySb05w4hVsLrOCGkK8ELHXE0Vj8QMgzDMExXj9X3AoRkE/pzhxAr4XWcENKVYLd64misfiBkGKZ9ub3PzyyvA8Mw7YvV9wIkLuxWb0P05w4hVsLrOCGEEEIIIfaAN+SEENI58PpqQyhHiV2gHCWEEEIIIcQe8IacEEI6B15fbQjlKLELlKOEkK4Eu9UTQgixM/ydIoSQzoHd6m0I5SixC5SjhJCuBC90hBBCCCGEEGIDKEeJXaAcJYR0JXihI4QQQgghhBAbQDlK7ALlKCGkK8HuioQQQuwMf6cIIaRzYLd6G0I5SuwC5SghhBBCCCH2gDfkhBDSOfD6akMoR4ldoBwlhBBCnAMYhmEYhrE0xJ5w39gQylFiFyhHCSFdielWV4CQTsbqB0KGYRiG6eoh9oTd6m0I5SixC5SjhJCuBC90xOlY/UDIMAzDMF09hJAkoRwldoFylBDSleCFjjgd7eGsqqqKYRiGYZgMRChHCUkLylFiFyhHCSFO5hIRcYvIjS3/nt7y3xtFpF5ELrWiUoR0IpSjDJPFmTRpkuV1YBgm9QjlaDbAbvU2hHKU2AXKUUKI0/GJSJOIHBeRa1v+2ygifisrRUgnQTnKMFkcnrsMk50RytFsgPvGhlCOErtAOUoIcTpTJSJC9TetPhGZZmWlCOkkKEcZJovDc5dhsjNCOZoNcN/YEL2QYhi7xOrzghBCOguvRMtRQpwI5SjDZHHYrZ5hsjNCOZoNsFu9DbFagjFMrFh9XhBCSGehbz3KVqPEyVCOMgzDMEyGI5SjhKSF1RKMYWLF6vOCEEI6E7X1KFuNEidDOcowDMMwGY5QjhJCCCGEkCxAbT3KVqPEyVCOMkwWh93qGSY7I5Sj2QC71RNCCCHZwgsvvHCKy+W61uVyvVJQULDd5XJVuVwuMO3L/PnzccEFF+CFF16wvC4OSGVBQcH2goKCxQsXLrx6yZIlP7T6vCEalKMMk8Xhucsw2RmhHM0GuG8IIYQQu/PSSy/lFBQU/NXlcjXZQH4xTNIpKChodLlc0ylJbQHlKMNkcXjuMkx2RihHswHuG0IIIcTOFBQUXORyuaqtllwM054UFBQcW7BgwYVWn09dHMpRhsmivP7668jJycHTTz+NqqrWbvVPP/00cnJysHz5csvryDBM2xHK0WyA3eoJIYQQu+JyuW43S6ZVq1ahqKgIFRUVcLvdIMROuN1uVFRUoKioCCtXrowlSm+1+rzqwlCOMkyW5aSTTsIPfvAD/PjHP0ZBQQF+/OMf41/+5V9w0kknWV43hmGSi1COEkIIIYSkh8vlGq+XSq+99hrKysqsdl+EpERpaSmWLl1qFqTjrT6/uiiUowyTZZk2bRpOOukkg1w56aSTMHXqVMvrxjBMchHKUUIIIYSQ1Fm4cOHvXS5XSJVJa9euhd/vt9pzEZIWPp8PhYWFejkacrlcf7D6POuCUI4yTBbm5JNPNsiVk08+2fI6MQyTfIRyNBtgt3pCCCHETrhcrh+4dGOMFhYWWu22COkQVq9ebRiDlJM0ZRzKUYbJwuhbj7LVKMNkX4RyNBvgviGEEELsREFBwUxVIC1btgw+n89qp0VIh+Dz+Qxd7AsKCh62+nzrYlCOMkyWRm09ylajDJN9EcrRbID7xoYEd5wFhrFbrD4vCOkSrFix4p9cLleDKo84xihxGqWlpfru9TUrVqz4J6vPuy4E5SjDZGmmTZuG73//+2w1yjBZGKEczQbYrd6GWC3BGCZWrD4vCOkSFBQU/FE/Kz0hTmTFihX61qOXWH3edSEoRxnHxDTJm+Mzf/58XHDBBXjhhRcsr0umY/WxxjDtjVCOEpIWVkswhokVq88LQroELpfrZfVhYPv27WnLp0AggLKyMnz00UdYtWpVrNnCGcbyFBQUwOVylSxcuPBqjj+aEShHGcfE6usXk7lYfawxTHsjlKOEpIVeSBFiJZSjhGQYl8u1Q30YqK6uTvmkDQQCKCoqwksvvWT5wwzDpJKCgoJGl8s1nZK0U6EcZRwTq69ZTOZi9bHGMO2NUI5mA+xWb0MoR4ldoBwlJMMUFBQcUR8GPB5PSifs4cOH8eqrr1r+EMMw7UlBQcGxBQsWXGj1uehQKEcZx0R/3RCjeGAcEP3+tfpYY5j2xnR8E3vCfWNDKEeJXaAcJSTD6B8GUmHnzp1RkmnVqlUoKipCRUUF3G53J10mCEkPt9uNiooKFBUVYeXKlbFE6a1Wn48OhHKUcUwoR50dylHGSTEd38SecN/YEMpRYhcoRwnJMOnI0V27dhkeIl577TXOck+yjtLS0lhj4463+px0GJSjjGNCOersUI4yTorp+Cb2hN3qbQjlKLELlKOEZJhU5WhlZSUWLlyoLbN27Vr4/f5OvjQQ0jl4vV4UFhbqH4pD7GLfoVCOMo4J5aizQznKOCmm45sQkiSUo8QuUI4SkmFSkaPBYNAwxmhhYSEURcnApYGQzkNRFKxevdowBqnL5fqB1eemQ6AcZRwTylFnh3KUcVJMxzchJEkoR4ldoBwlJMOkIke3bdumlV22bBl8Pl8GLguEdD4+n8/Qxb6goOBhq89Nh0A5yjgmlKPODuUo46SYjm9iT9it3oZQjhK7QDlKSIZJVo6Gw2G8/PLLWlmOMUqcRmlpqf7huGbGjBnftfr8dACUo4xjQjnq7FCOMk6K6fgm9oT7xoZQjhK7QDlKSIZJVo6Wl5cbZqUnxImsWLFC33r0EqvPTwdAOco4JpSjzg7lKOOkmI5vYk+4b2wI5SixC5SjhGSYZOXoxx9/rJXbvn172id5IBBAWVkZPvroI6xatSrWbOEMY3kKCgrgcrlKFi5cePWSJUt+aPV5msVQjjKOif4aIRmQdQzlKMOkG9PxTewJu9XbEKfI0VAopD1zr1mzBhs2bMCXX36JEydOZLQe5eXlePvtt7F8+XKsW7cOoVAoo9vPZihHCckw+oeBRKxcuVIrV11dnfLJHQgEUFRUhJdeesly8cUwqaSgoKDR5XJNpyRNC8pRxjHRXxckQ8KOoRxlmHRiOr4JIUmS7XI0GAzilVdeQW5ubtzfuyFDhuDrr7/u9LosXbrUsN3c3FzU1tZ2+nadAuUoIRlG/zCQiCVLlmjlPB5PSif24cOHDbPcM0w2pqCg4NiCBQsutPqczTK0GyKrHxQZpr3RXw+kA2QcY6/o96/VxxrDtDem45sQkiTZLEfdbjcGDhwY9fs2ZMgQ9O3bN+r15cuXd1pdiouLte3069cPf/vb37Bp06ZO254ToRwlJMPoHwYSkWw5Mzt37oySTKtWrUJRUREqKirgdrvbc80gpMNxu92oqKhAUVGRocW0Lrdafd5mEdqNkdUPigzT3lCOOjuUo4yTYjq+iT1ht3obkq1yNBgM4sILL9TO+/79+2P79u0IBoNaGbfbjdWrV2utSrds2dJp9Vm2bBlEBN27d0djY2OnbcfJUI4SkmE6U47u2rXLsNxrr73GWe5J1lFaWhprbNzxVp+7WQLlKOOYUI46O5SjjJNiOr6JPeG+sSHZKkdXrlypnfNjxowxSFEzzc3NOHjwYKfW55133oGI4OGHH+7U7TgZylFCMkxnydHKykosXLhQW2bt2rXw+/0dcZ0gJON4vV4UFhbqz4MQu9gnBeUo45hQjjo7lKOMk2I6vok94b6xIdkoR71eL/r06QMRQbdu3dDQ0JDyOj766COMHz8eJ06cwIEDBzB+/Hj07dsXw4YNw/79+7VyW7ZswaRJk9C/f3/07dsX48aNw7Zt27T3a2trsW7dOkydOhUikRasn3zyCdatW4ddu3Zp5Y4fP46XXnoJw4cPR9++fTFkyBA888wzUcP37d+/HxMmTMD27dvhdrsxb948DBs2DJdddhnuvPNO7Ny5M+bnaaue2QDlaMb4qYjcIyLjEuQWEblcRM4Rke9ZU03S6XSGHA0Gg4YxRgsLC6EoSkddJwixBEVRsHr1asMYpC6X6wdWn8M2h3KUcUwoR50dylHGSTEd38SesFu9DclGObp3717tfE9nHFFFUTB27FiICB566KGoyZy2bdsGj8eD/Pz8uL+ha9asARAZUi9emby8PIRCIXzwwQdxy/To0QPNzc1a3dTu+SISd5KpL774QiufbD2zAcrRjNFTUrtnbBCRm0XkpE6s05ki8isR+VEnboOY6Qw5um3bNq3ssmXL4PP5OuoaQYil+Hw+Qxf7goKCh60+h22O9kNi9YMiw7Q3lKPODuUo46SYjm9CSJJkoxzdt2+fdr6n2zpy4sSJhuvGlClT8Morr2D8+PFobGw0bOPpp59GeXk5du7cqbVY7d69O5qbm+H3+1FUVKS1HO3Xrx/Wr1+PdevW4dNPPzWI2H79+mHz5s04evQoFi5cqK1/1apVWr30wwXk5OTgrbfewtGjR7FhwwZNlg4bNgyhUCjqu0hUz2yAcjRjnCPp3TtWiMjPO6E+/ywiu1q20b8T1k/i0dFyNBwO4+WXX9bKcoxR4jRKS0v150PNjBkzvmv1eWxjtB8Qqx8UGaa9oRx1dihHGSfFdHwTQpIkG+WoOr5nbm4ujhw5ErOM3+9HfX29IfqJkvRy9MMPP4y5jm+++QZVVVWG11QZmZOTg0OHDkXVKT8/P6oHaV1dHbZv345wOGx4Xa2DfpxSVY5269Yt6rPpP3dtbW1a9bQzlKMZQy9HV4vID2MkV0R+LyKLxfj72iAiZ3dwfU4VkbKW9f+mg9dNEtHRcrS8vNwwKz0hTmTFihX61qOXWH0e2xjtx8PqB0WGaW8oR50dylHGSTEd38SesFu9DclGOfr5559r53tJSUnMMq+99lrU796gQYO0FpeqmJw8eXJK2w4EAlqrTH2rVVVqDhs2LEqCxkOVnfqWoOp68vPzo9ajDidglqOp1NPOUI5mDL0cfUNE2mr4NEiM51KJiHy/k+pDOZpJOlqOfvzxx1q57du3d+T1gRDb8MUXX+jl6EKrz2Mbo/1wWP2gyDDtDeWos0M5yjgppuOb2BPuGxuSjXJUP+ZoPPH37rvvRv3ujRgxQhOOqhx98cUXE27L4/Fgy5YteOGFF3Dvvfdi5MiRMbedjBwtLy/HW2+9hUceeQS33XYb+vfvH7VMovUkkqPJ1tPOUI5mDHPL0WR6hf5KjOdTfgfW53zden/ZgeslbdHRcnTlypVauerq6o68PhBiG44ePao/J76y+jy2MdqPhtUPiplOSUkJioqKsGvXLsvrwnRMKEedHcpRxkkxHd/EnnDf2JBslKP6c37u3LlxywWDQQCtkxzphaMqR59//vmYyyqKgueffz7h72iycnTfvn248MIL466nPXI01XraGcrRjJGOHBURmaFbbpPEnsX+HBGZKiJbdGXfF5E/SfSETv8hIr1FZK6u7O0icqGI/KElsSaB6i8iT4jIMd1yb4jIRUl+DqLS0XJ0yZIlWjmPx9OR1wdCbENjY6P+nKiw+jy2MdqNSGc8/H3xxRe4+uqrMXHiRJSWliZV/qabbsKNN96Iffv2deqDqXpjdvrpp2Pv3r2WPygz7Q/lqLNDOco4Kabjm9gTdqu3IdkoRxVFwejRoyESGVOzrTk/YgnHtuTo008/rV1THn30UezduxdNTU1oampCXl4eRJKTo8ePH9cmUlInazp+/DiAyLBl5mVSlaOp1tPOUI5mjHTlaDfdcg0SmWFe5WQReUoS33tuksh4piIi35GI0GzrflU/QdN/iEhRG+VntaybJENHy9FUZrUnJFsJhUJmUUJio12cO+Phb9OmTdr6b775Zhw+fDhheVVYnnbaaSguLu7UB1N11s1MbIvJTChHjRk8eDAWLFigPZDpM2TIEG1sr0Tp27cvLrnkEuTk5Fj+eShHGSfFdHwTQpIkG+UoAHz77bfaOd+9e3ccPnw4btlU5Wg4HMbQoUMhIli6dKnhvVTl6ObNm7U6NjQ0GNYVq0VrKnI0nXraGcrRjJGuHP2uiLytW1YvLp8V4+/wKxLpej/T9Po9umWmSaRVqb4F6A4RWduSChHp01JWP6O9mrkt21hien1Qkp+HUI4Skh6Uo0mhXZg74+FPL0dFBM8880zC8pkUlpSjzktHydGcnBxUVUVmUd2xY0fccrm5uVpriqVLlxqWDYVC8Hq9CAQCCAaDCAaD8Hq9qK+vR1FRESZMmBBznZ999hkAwOv1wuv1asv6fD40NTVh9+7deOqpp9r8DLm5uaivrwcAPPPMMxARjB8/HpWVlYbrpNfrxccff4xu3boZll+3bh2am5sNZSsrKzFjxgytzPPPPw9FUbTPptZV/ffhw4fxxhtvdJhYpRxlnBTT8U0ISZJslaMAMH/+fMO5/+KLL+LAgQOoqalBTU0N9uzZo/1mixgnPkokRxVFwdVXXw0RwZw5c7TXq6urkZ+fr60vGTlaVFSk3Ufs379fe72wsNBQr3TkaDr1tDOUoxkjXTkqIvKobtk7dK+rY5K+LyJnmZYZqFumQiKz0+u5Rvd+ojFHR7WUeUxEfmR6b4JuHcsltc/UdaEcJSQ9KEeTIiNy9JRTTjFIl3jlKUeZ9qQj5aja/Us/iYI5I0aM0B5a1K5m+mXbYuvWrVHrLCoqSmrZqqoqrYVFrMyePRsA4Ha70a1bN0yYMCHhbLS1tbWaIN21a1fCbb/wwgtxH9Bi4fV6ceedd1KOMowupuOb2BN2q7ch2SxHAeDVV19N+ndv0aJF2nJtdat/9NFHDcv27ds3an3JyNEjR45E3ROp3ezVxJqtPtlu9anW085QjmaMdOXod8TYrf1/Te/HGh9UXW5VyzLHJFps6uVoW7PVx9vGv4pIWcs63hDK0eSgHCUkPShHkyIjclTNaaedhtNPPz2ujKQcZdqTjpSjNTU1ABLL0aFDh8aUo+qytbW1GD9+PKZNm4Zp06bhsccew+bNm7VlAOCbb76JKUfD4TCmTp2qLTtz5kysXr3aMFa42+2OK0hLSkoAAGvXroWIaC1GFUXB2rVrMXLkSMyYMQMHDx4EAHz55ZcQETz88MPa+qurq/Hwww9j5MiRePvttxEKhRAOhzFq1KioB7SlS5fivvvu0+q7bNkyQyvVcDiM8ePHU44yTEtMxzexJ9w3NiTb5SgQmQV+zpw5UdJRJDLsTUFBAaqqqgzLqHL0zTffjLlOn88X9YfIESNG4MCBA3jyySchIti5c6dW/q233tLKmKXmpk2bDHXLycnB0qVLUVpaiu7du2Ps2LFRLUdjrUe9h+rWrZsmR1Otp52hHM0Y7Wk5+oJu2dtTWO4Z3XJ9TO+lIkfj8V2JdMmHRCRpTprr6VpQjhKSHpSjSZExOTp48GDt/6+44gpUVFRElW9LWH711VeYO3cuLr30UlxxxRUYPHgwbr31VqxevTpuHb766is88MAD+PWvf43evXvjwgsvhMvlwuOPP55wW//4xz9wzz33oF+/frjiiitw6aWXYt68eSgpKbH8oZqJHbvJ0eLi4pgJaT7IAAAgAElEQVTL9e/fH3V1ddq1St+KQpWjTU1N6NGjR8y66Vt2qmODxapXOBzGsGHD0L9/f/j9fgCI+oOFSKS7vdr1/b333gMQkZn9+/c3lOvTp4+h25sqRxVFwU033RTzs+of4qqrq9vVxZ5ylHFSTMc3sSfcNzbECXJUj9vtRn19PRobG+Hz+dq9Pr/fj/r6eni93g6rW2fQkfW0CsrRjNGelqN6OXp5grI/EpFzJdKlfoiIfKBbzixA05WjPxGRX0hkdvsR0jp2aazWqSQWlKOEpAflaFJkRI6eccYZ+Pbbb/Hb3/5W296MGTOiyieSo6+//npCcZKfn4/y8nLDMuvWrWtTuJi3VVlZiWnTpiUsv3XrVssfrJno2E2OJlo2Pz9fW7ampkaThqocbW5ujilHRYzd01QBqn9fFZzq9vX1/PjjjxN+dn3LVbMcNUcvRxO1Cv3qq6+067LaJT+dUI4yTorp+Cb2hN3qbYjT5CjJXihHM0a6cvRUae26DoluAfoDERkpIlsk8T1oe+Tof4jIfWKcxMkcytFkoRwlJD0oR5MiI3L0tNNOQ0lJCb7++mucdtpp2jbfeustQ/l4cvTDDz80/Ig89dRT2LRpE959911Dt+IJEyZoyxQXFxu2NW3aNGzduhXr16/HmDFj4srRefPmae8NHjwY69evxzfffIPXXntNe/2CCy6IErGM9ekMORqv9aeIYODAgWnLUZHWbmOBQEATkcnIURHBK6+8AiAiJh966CGDOHW73QBaW6Tm5ORoLT8URcHGjRsxaNCghMITiAwLMHfu3HbL0TFjxmhd7T744APKUYapohwlJF0oR4ldoBzNGOnK0at0y1WIset6b4m+19whke70fzG9nq4cvTbGNt4XkTki8oTuNcrRZKEcJSQ9KEeTImNyVBWQ77zzjkFMfv3111r5WHK0srIS1113nbbMhg0bDNsoLy/HkCFDIBKZ+Elt1amXnPPnz4+q29SpU6O2VVJSgjPOOAMikZZ95q7/+pao69evt/zhmjGmM+So2+3Gxx9/jE2bNhny6aefYuvWrVAUBUB6clQvF++4446U5Ki+Nag6bpiI4IknntDqrV9+9erVUdfIqqoqLFiwwLDe/v37R81S7/P58Nlnn2H48OFpyVH9d7J//37KUYapohwlJF0oR4ldoBzNGOnI0VNFZJduuZm6934kxhal0yTSwlOPfpb7dORoPzH+zl8rIv+me/+70jpZFOVoslCOEpIelKNJkXE5WlVVZWiN1q9fPxw6dAhVVbHlqL61qb5lqD4bNmzQ1jd79myUl5djwIABEBGcddZZ2vr1efnllxOKW3Or1qqqiKhVhwaYPXu25Q/XjDGdIUeTJR05umrVKgAwTHKUrBydMGGCtu1FixZpr5eWlgJonYhJn6VLlxomg1Kpr683jCV6ySWX4MCBAzE/p/4PBMnK0dzcXG3MU3Xip3RCOco4Kabjm9gTdqu3IZSjxC5QjmYMsxz9pzbK54jIWt0yDSLyM937v9K9NzNq6QjP6sokkqO/jLP8GF2ZP8Z4//vSOiET5WiyUI4Skh6Uo0lhiRytrKzENddco2373nvvRVVVbDm6ceNGrdyaNWtibmf//v1a9/rZs2ejtLRUE0uxxjaNt622xkPUd9OnHLVfOkOO1tbWorCwEOvWrYvKp59+qnUXT0eOPvvsswDSazl62WWXRbUcHTFihGEipnjLzps3D3v27NFavQLGcU/VjB49GmvXrkVDQ4Ph2vrMM8+kJEfZcpRhomM6vok94b6xIZSjxC5QjmYMvRxdLpGJlmLxAxG5SIytQiEi+aZyF+veuz/Ges4T4xihieToMN3r39P9//26MoNibEPf5Z9yNFkoR7OfsrIyHDx4sNPWX1tbiz179iAYDHbaNrIRytGksESOVlVFxgTVy58VK1Zg6dKlUeX1s2u/9957MbdjlqPmf8daJpYcVV8TiXTRHzx4MHr37q3l/PPPx+DBg3Haaafhueees/zhmjEm28YcVScqCgQC2higycrRhQsXate6OXPmaOdHMttV07dvX1RUVABoW3C++OKLmkxVv5Nk5ah+8qm2JoRKFMpRxkkxHd/EnnDf2BDKUWIXKEczhl6OHpPIuKDzTCmU2PePo9tYX4NEZo/PFZH/EpGJMdZhlqMjde8VicglIjK15d95LWX0AnWLiPQUkX8XkXPF2CqVcjQVKEetRW2Rs3Tp0rSWVx9SBw0aFLM7Y3tpampCXl4eunfvHjVOXFeHcjQpLJOjVVXGiZZOOeUUXHnllR0uR5944omYyyRqOapOIGX1wzOTWrJptvqBAwdqf9Cqr69Ht27dkpajOTk5OHbsGIBIl/zhw4fHnIgpmUyaNAmKohhar8bL/v37DZ8rWTm6efNm7bqsHwIg1VCOMk6K6fgm9oTd6m0I5SixC5SjGaOnpH7fWCEifeOs73si8lEbyydqOfrzBMupY6L+VBLPUN9g2hblaDJQjlqHoigYO3as4SEwVdSHyBEjRmjdLzsSdVy5V199tcPXne1QjiaFdpHujIe/tuRoVVWrkOzdu7dWF335zz//XHs9Xhd5fRlzt/rrr78elZWVUcssXrw4alvvvvuutp7CwkLLH56Z1JItcjQ3NxdVVVXatWr+/Pnae6ocbWpqiitHt2zZoi2rjuGpTsQUa7mcnBwUFhZiwoQJUetavnw5gIhkHT16NKZPn4433ngjZp09Hg8AYMeOHUnL0YULF2otTmtrazUJnE4oRxknxXR8E0KShHKU2AXK0Yzxn5JYNKqy8X0RmSwifSR+13uVUyW6BSck0ir1dGmdtKlBWluD6hkYo07Ptiyrco5ES9gGEblLIoJWnbSpTEROaftrIJSjFjNx4sQOkaPDhg3rcDmqKAquvPJK5Obm4siRIx26bidAOZoUlsvRyspK3HTTTYYfJn35w4cPa5MrnX766THXM2nSJG3Z999/3zDDvX4GezXl5eW4+uqro7a1c+dObVzRiy++GOXl5VHbKisrw44dOyx/sGaiYzc5euDAAQwdOhTjxo3DuHHjMHHiRLzzzjvw+Xzadco8Bqe+5eiYMWMwZswYbfnFixejurpaW7a5uRl9+/aFiKCsrAwA8MEHH0TVc8OGDQAivxkbN27E0KFD0bdvXyxdulT7XaqursbgwYMRCAQARMYgnTt3Lvr27YsxY8YYhoZ56qmnouToE088gfz8fK2ujz/+OPbs2aMtoygKHnzwwXbtF8pRxkkxHd+EkCShHCV2gXLUEfxAIl3qfywiJ6e47D9JpKv8qSLywwTlTm3Zxr9K29KWJIJy1FrsLEfVdd9xxx0dul6nQDmaFJbL0aqqKpSWlmrd4GOVf/3117X3zj//fHz44YfYt28fiouLMWXKFO29Sy+9FBUVFVHLnHHGGdiwYQP27duH9evX43e/+13cbc2aNUt7b9iwYdi4cSP279+Pb7/9FvPnz9fk6aeffmr5wzVjTEfJ0dzcXNTX1wNIXY7ql22LXbt2RU2CpI5D2ha1tbW47LLLIGKciGn48OFR9WyrZ4EqLrt164ba2tqEZfft26etVz/uaSLC4TD++te/tmufCOUo47CYjm9iT9it3oZQjhK7QDlKSIahHLWWRHL0008/xaRJkzB27FiMHDkSjz/+uNZ6R0V9sB4zZgyqqqowd+5cDBs2DCNGjEBBQYGhBREAQ5mhQ4dixowZ2LVrV8y6zZ07FyKCbdu2ddwHdhCUo0lhCzlaVVWFzZs3xxWWVVVVmDp1akJxcvrpp+Prr7/Wyh8+fBhDhgxpU7iYt6VvVZpomS+++MLyh2vGmI6SoyKCkpISAMA333yTlBxVJxPTLxsLn8+HPXv2aNdvc9588824ywaDQVRWVhq2JdLaMlQvLs2ZPHkyKisro9Z57Ngx3H333Vq5nJwcrF+/XhvDWv18wWAQn3zyiUHmTpgwIe4f/UKhEGpqarB+/fqEE0ulEspRxkkxHd/EnnDf2BDKUWIXKEcJyTCUo9YSS44qioJ777037gPc6tWrtbJtzRo8aNAgbVKOAwcOxC1nbk3kdrvRvXt39OjRQ+sGSYxQjiZFp8pRdSzQeN3hzVFbe8Yrv3Llyijhecopp+CBBx6IOYHSgQMHtJalF154IUQiY5u++eab+Oabb3DaaafF3FZlZSXmz5+PM844w7BsXl4eHnvsMU7WZNN0pBzNluTk5KCqqgo+n88wvES85OXlYcSIERgyZAj69euXsOy1116LIUOGYMSIEZZ/ThHKUcZZMR3fxJ5w39gQylFiFyhHCckwlKPWEkuOrly5Uruhfeutt9DY2Iiamhrcf//92sPqoUOHABjl6NChQ1FaWoqamhqsXr1ae12Vqffddx9EBBMnTkRtbS28Xi82bNiAyZMno6mpyVAvdeIYTsQUH8rRpNCOQ6sfFFNJWVkZ9uzZgz179iRV/uDBgygvL09LapaWlqK8vBylpaWWf24mcbqiHO1KoRxlnBTT8U3sCbvV2xDKUWIXKEcJyTCUo9ZilqNerxd9+vSBiGDJkiWGsuoESfryqhzt379/VAtPtVtlfn4+QqEQxo4dCxFjy9NYcCKm5KAcTQrt4czqB0WGaW8oR50dylHGSTEd34SQJKEcJXaBcpSQDEM5ai2x5GheXh5yc3MNswarqK1KR4wYgXA4rMlR9d96vv32W4hEJn0JhUJ4+umntRvla6+9Fv/4xz/Q0NAQtQ1OxJQclKNJoR1zVj8oMkx7Qznq7FCOMk6K6fgmhCQJ5SixC5SjhGQYylFrMctRVUzm5ubGnNW3uLgYItFyNNZs9eb3fD4fxo0bF/VAuHjxYsNynIgpOShHk0I7zqx+UGSY9oZy1NmhHGWcFNPxTewJu9XbEMpRYhcoRwnJMJSj1mKWo263W2s5GkuOvvPOOxBpbQ2aSI7u3r3bUFalvLwcixcvRvfu3bUb540bN2rb50RMyUE5mhTaMWb1gyLDtDeUo84O5SjjpJiOb2JPuG9sCOUosQuUo4RkGMpR62hqakJeXh5EBG+++SaA1m71IoJPPvkkahl1UqXZs2cDaG0dmp+fD0VRDGUfe+wx7T2zOAUiY4s+8sgjEBE89dRTADgRUypQjiaF9nBm9YMiw7Q3lKPODuUo46SYjm9iT7hvbAjlKLELlKOEZBjK0cxSW1uLQCCAmpoa3HPPPRCJzD5fXl6ulVG7tXfr1g0HDx7UXl+zZo12o6t2edd3w9++fbtW9sMPP9TKbtiwAQBQVFSE1atXa6JUURRMmTIFIoJVq1ZxIqYUoRxNCu04tPpBkWHaG8pRZ4dylHFSTMc3sSfsVm9DKEeJXaAcJSTDUI5mDlVkmjN37lxDObfbrc1Yr0ZtTSoimDJlitZKNNY69WVHjBiBUCgEr9erdaPv27cvpk2bhoEDB0JEtMmf1G74d9xxR1QrVBIN5WhSaMei1Q+KDNPeUI46O5SjjJNiOr4JIUlCOUrsAuVoVpEjIj8WkX+1uiKkHVCOZo59+/YZblZzcnKwdOnSmCKyoaEBs2bNMpTPzc3FihUrDOVVOTp79mytxamaRx99FMFgUCu7a9cuXH311YYyQ4cOxb59+wAA06dPh4hg69atnf9lOADK0aTQjjWrHxQZpr2hHHV2KEcZJ8V0fBNCkoRytA3CCpr+dD6OXd8bze4KxBi5LWUUBKEEgYZwGIGvNgOc9gJAl5Gj3xGRByTyW7VCRP7N2uqkzSKJfIZjInKq6b2rdO/1znC90sEp+yR1KEczSzAYhNvtRn19fVLlQ6EQmpqa0NTUlFR5v9+PxsZGgxQ14/F4otbp9XrRr18/TJkyJeGypBXK0aTQHs6sflBkmPaGctTZoRxlnBTT8U3sCbvV2xDK0Taor0b9teciMLIXaq7rg1DDgfavMwSESr9AxU15aB5xPvxKqO1lugBdRI72FOPv1S3WVidtnpVWAfoj3ev/LCK7pPXzLReR72a8dkbyJCJpvx/nfafsk9ShHCUkPShHk0K7sFr9oMgw7Q3lqLNDOco4Kabjm9gT7hsbQjkah3AAit+P4IdL4b4+D/X558F9fR7c1+chvGM9lGYFXp8XzfCh0Z+46WfAr8CnKAgozQj4gmiacpW2rhN/OgsecHg3gHI0y4gnR38o9pKjZ7fUo0GM9dTjlH2SOpSjhKQH5WhSaBdWqx8UGaa9oRx1dihHGSfFdHwTe8J9Y0MoR2MTCnsRbnKjYdbNUXLUc00PuJ+cgCaEEfYB4ZA/8bqCAXgDYYT3bUFjfm/UXadb13U/g19hv3qgy8jRk0VkiUSuhxUi0s3a6qRNPDkqIjJBWn+Pf5vhepn5lcSvp4pT9knqUI4Skh6Uo0mhPZxZ/aDIMO0N5aizQznKOCmm45vYE3artyGUo7HxhZqhKF54/9QvSo76rz0LVdf/N47d9lsgGIwkAY1KIypnjUHt9b2gXH4eqm/ooa0L1/4U/qAnQ5/K3nQROaryQ6sr0E4SyVERkR+IyPcyWqPYXCNty1GVbN8nqUM5Skh6UI4mBeUo45hQjjo7lKOMk2I6vgkhSUI5Ghu/N4yQEoAnv7smMs2pzT8fTdecgeb93yCghIBgM4LuGvhrqhE6WglfwzE0bP8I1fnno/H62Otpuv58+A4UW/1xbUEXk6PZTlty1C6MkUg9KyQibIkeylFC0oNyNCkoRxnHhHLU2aEcZZwU0/FNCEkSytHYhEI+hN0HUfOn+HK0bkQPHBv5CwSvORuhkX0Q/N9zUZ//azSM6Av39eehZuS5OJ7/MzSO/SVOXH1OzHUcHf1LNH30rtUf1xZkiRztJiLzReRJEZkiiVtHfkdEJovIPBGZKCL/1PL6aBF5RkRmxVm+j4g8ISJfSuQ3rUFEForIxWIcv/NUiUjKeSLyP3HqcLKIzBWRR0XkKRE5JUaZfxGRYdLatVzd5jMi0ivOehPJ0QEi4hKRBSLyU93r6nc3p40saPmsZvpL5Hs5pqvnGyJyUYyy3UWkn4h8oKvnVSJyoYj8QUQuMJVva5+IiPyHiIwXkULd9oskso97xFnm9y3rVb/7k0VkpIhsNH2G38dZvnOhHCUkPShHk0J7OLP6QZFh2hvKUWeHcpRxUkzHN7En7FZvQyhHYxMOBBFavwx1o/Pgvr5np8Xzp75oeOFhqz+uLcgSOfo9Edkkrb83gxKU7acrt1pa5eiiltfaGq8zVraIyGktZfUTCd0epw76CZJibe8CMcrGWLk8xnoTydGRumX76143T3yUKPfolvsPiUjIROVnSURGq5+5rc9krneifSIicl0Sdb5XVweVa3Tv3y8iO5L8zJmBcpSQ9KAcTQrtAmf1gyLDtDeUo84O5SjjpJiOb2JPuG9sCOVobBQljMb7rkHj6D5w39Cz01I76nwEH73B6o9rC7JEjooYhdciiRZiKs/qyv0uxutmEfcrMf6WPSYiQ0TkT2IUnD9pKX+Ormw8OfrP0irkzNv7uWl7x0Tkbom0otxlev0nYiSRHNV/P7/Rvd5NRJZKpKWrPk+JyDJTXfJ19d9lem9uy/tLTK+rovpkicjo903vvy8ia1tSZKp3os9zrWk9RSJyk4gMF5EVpvemJvgu1DRI5HvOj/HZ8iSTUI4Skh6Uo0mhXdysflBkmPaGctTZoRxlnBTT8U3sCURkuu7f06V1n/F1C19/ePyPKEdbaAj6EVRCCHlD8N96EarHn4PGsb9oMyduOgvuG89G4y090XDLefDc0htNY3rDfWMeTozNQ9PNv0Rg7C9wdGx3NIztqS3nviWS8IFv0BQClEAIUHwIhqz+JjJPFsnRH4lImUTOn2Ni7Dqu8lNpPe/KJNJ1XSWeiBuvW2ZEjHX+RiJCVKW9cvQ7EunCDomMzfl93Xvfk4jIVNd/i2m96cjRRKhjg0IiYlPftX1Uy+uPxdiWvqXtcjEOO2Cu56kJth/v8/xIjK1Qzd+DSLQ87a57zyxHp4rISbr3vydGyWuWq50L5Sgh6UE5mhTaxc/qB0WGaW8oR50dylHGSTEd38SeTLe6AiQathw1ooQU+AMhBNyH4Z9wFhpv+CUabj2vzTT+OQ/1t5yL2jF9UHvL+ai7pTfqb+mFhnG/QP3NPdEw7lz4/nwufLeeh4Zx0cv7xpwF79qnEAiF4EcQCHmt/ioyThbJURGRGdL6mzM2xvujdO+bxWUsEfcdEVmsWyaZFoTtlaMq8cbYPF+3/s6UowN05Y9J67ABek6K8ZqIyL9Kq6h+QxLL0UQTR8Urp5e2seSrygxducd0r+u/i5lxlu2lK6MffqHzoRztWgSDQVx55ZUYMWIEwuGw1dXJaihHk0J7OLP6QZFh2hv9Oc84O1YfawzT3uh/fy29CyAky6AcBRRFgaJEutKHQkCoeg/qx/0cxyb2xLE7z0H9+POMua0n6sb3RP1t57WkJxrG94F/+h9Rt+F1KBWHEAwqCAEIAQgCQEMdlC0L0fDQVaif0Afu8eei/rbz0PTnnmj4c0/U3n4OTvy5Lw4tnIawEoISBKCEoUCx9LvJJFkmR/XjZ5aIsdXl96V1jMwGEfmZadlkRNwxiUzS832JT0fJ0Xj8XLf+l8QoBjtKjp4mxpaZ5omS2uK70vr5ykQkx/R+e+WoOhYpRGRwguX1x8Nqaf2u9N9FrFanIpEWrWr3+liCt/PQPwwkoqPLEWvwer3Iy8ujHO0A9Md6xk7Y7INylHFMrBZ2TOZi9bHGMO2NUI4SkhaUo4gISE8dmkNA4+evwzfuTDTekRc/43ui7s5fwnPXeTi+9F6g/jh8CCMYCiTeUABogIJQ2I9w6XYc++vF8NzeF9V3nqOt+8jtfVD3WD78YS98IQXBgD8zX4INyDI5+h0ReVtiS0D9REwLJXpM0ngi7mwx/papmSsiv4yxno6WoyeJyH+21P8PYuyybm7R2BFy9Lti/A7jfQYzPxGRX0hk5vkR0ipXY9WlPXJU35o33vAJKvrvuUwiM9OLGL+LZPaRXqx2PgUFBeXqw0BTU1Pck1P/0JCIZMsRazh+/DhEBPn5+VCUrvOXt85Af6xn7ITNPihHGcfEamHHZC5WH2sM096I8UGS2BN2q7chlKMAEIZfAfDZEjTecQ5qJ54Lz10948Z9368Qfu9lNCMAJQA0Kn4EEUBbw4R6g0FA8cGrAPA144RPAUJHUTftEm3dx247A423nwn3nOughL0IdaHGPVkmR0VE/kdaf3ee072un4ipf4zlEgm73hI9SY+aIokIVJWOkqN5IvJCnG3Gag3Z1mdIVo7ebVp/vO79IpEZ6++TxLPQd7Qc/aEYJ8JKtHy879n2cnSb+jBw6NChuCen/qEhEcmWy0ZKSkowffp0jB07FrfddhtmzpypfWcVFRWYNGkS7r//fuzevduwnMfjwcyZM/Hggw/ixIkTqKiowL333ovCwkI0NTXhueeew7Bhw3DZZZdh1qxZqK6ujrnt2bNnIz8/H7fddhvuu+8+bNmyxVDG5/Nh5syZePbZZxEKhbB8+XIMGzYMQ4cOxYcffoidO3fipZdegoigX79+WLt2LdasWYPy8nLDejZu3Ijx48fjzjvvxKhRo1BQUACPx5P0dtTPvHjxYowcORJDhw7F3XffjY0bNzpKyOqP9YydsNkH5SjDMAzDZDhifEAi9oT7xoY4Vo4GgHA4DHcQ8IaAsC8IfygEn8cDf/U+NG/7GL6VU+FbMBqNf70I7qn/De+dv0DjpJ6GNNx7Lpqn9IL77nNQN6kPGh+9DPBWwx8GEIrfqlMJB7WEFQBxngkVAIoviODODQjc/nPU3NUddff2xIl7esC7dCaC7FZvZ04V48RMPxFjN3Fzd3uVZITdr8U4jqVeAKotGPVyNF6X7bYmZHoyxjbeEJEp0jo0QGfI0WTGGVUxT3gEicw8P0dEnjCtpyPlqL5laypytEKyRY66IsDlcuGzzz6Le3J2dTn6xhtvxP3LwdatW6EoCm666SaICHr06IFAoLUbwfTp0yEiGDhwILxeL3bv3p3orxDo1q0bjh8/ntS2H3roIa17fFNTE/Ly8iAi6Nu3r6FcQUFB3HU88sgjACLjy9x7771t1inRdhYvXgyv14t+/frFXM/zzz+fwb3WuVCOJgXlKMMwDMNkOGK8/yL2hPvGhjhVjirBAPxvzIZn1hB4pl4Az1090DQ1D967/gu1k/Jw/OHz0XjP2Wic3B0N086GZ9L5CN91Jpomn2uIZ0pPNEw+D+4He6P5o1ehKGEEFSCMyBil8fCHI2ONKghDUfyI1wDUHwwgFA5DUeqheJtx4uGLoDzwa3juPQt1D/8E/i0rO+X7sSNZKEdFIhJR/e25QkSu0v37hjjLJCvsRCJd3f8oxhaTamtUvRxdJNHd7kUSy9E/65Y/JhFh+c+697vp3u9IOZrKOKP6IQogEVH6b7r3vyutErej5aiIsUVtolaw8b4re8vRhQsXXq4KnmXLlsU9ObuyHNXLzDfeeANerxc+nw+LFy82yNDa2lp0797dIAE3b94MEUFOTg72798PANi7d69BOm7fvh11dXXYsmULcnNzISJ48skno8rOmTMHtbW18Hq9WL58ufb6e++9ByAynmifPn2018eMGYNPPvkEixcvxuHDh7F//3688847EBHk5ubim2++wc6dO3H48GEAwMqVK7X3tm7dimAwiPr6etx9990QEUyePDmp7bz77rsQEfTv3x9lZWUIBoPYtWsXJk+ejL1792Z693UalKNJQTnKMAzDMBmO/vfX0rsAkojpVleARONYOQoFgT1FODb1XPgnn4Xa6f3RNO28pOOZ2hOeqT3RPPUc1E3tCe+uD6M3ElbQHFYQCjcjGPAhiDBqG6vg/fLv8D1/NbyPXIDGaX3Q9FAvNM0bCu/65+E/UYZAyI9gqBmNYS+agwFEZl+KEATQ/PpkNEztAe+UM+F9oJYE3NUAACAASURBVCeUI1/Cr4Qc1SMxFlkqR8+S1t+eHRLdkjQWqchRFX0XflW66uVovFnO/1lidw3/joisank91qRRIsYJmTpKjqY6zqh+kqo/xnj/+5J42AC1nhUx3otVzryOqbrtx5ttXsQomvWTV9lbjs6YMeN7LpfroCp59uzZE/Pk7Mpy9L777oOI4Kmnnop6T20t+vXXXwMAPv74Y02Grlu3TpOIq1at0pZRhae5hSgATV6qwlXd9tixY6N+AObPnw8RwbBhwxAOhw3ScuzYsTEnXNq/fz9Eoscc1S9r7q7v9XrRvXt3dOvWTZOzibazbNkyiAimTJni6B8tytGkoBxlGIZhmAxH//tr6V0AIVmGU+VoOOSDR1GgFPwRTQ/mIXT/6fA8cG7yeVBND4SLlsAXjH7OVBQFCPngVgClohiBxwfA99ffoOahnqh/4Cz4HjwbgZk90fBQDzTffyaapv4coek9EZieh8CbU+EJKfArYSi6iZzcngaElDCavvw73NN7IzC9Bxru74mA0uTo50wga+WoKhkbxNgK8/EEy8QTcadIRCaeFGOZm3TrV4WjfkxMiEgf0zLfE5G/mur1I917m6RVjppF7ndE5AHdsh0lR/XjjD4rsVu76rlfV35QjPf1LXUTyVGzADaL5HifR98iFCLy2xh16G0qo//M9pajIiILFiwYp0qe1157DX5/9HghXVmOTpgwQWtROWvWLEybNk2L2tJz27ZtWvkZM2YYbkrvuOMOg0BU5Wh+fn6UWDxw4IC2rdraWm3bGzdujKqXuh61rCot9a1U4y2jClUVvfAcMmQIHnzwQe0z3nPPPSltR20tKxLpdr9y5UocPXo05e/d7lCOJgXlKMMwDMNkOGJ8MCGEJIlT5WhQCQJhBQ0hH4Izz0b9A/+F5ofPTTqNM3qieWZPeP42AV4o8IWatXWHwyGEoUAJN8OnKGhYeBNOzDgPTTO6o2FWHzRMz0PT9J5omnku6madC8+Mc1E3/Tw0zDgTwZlnIzizO2pmnof6+38KT+FMBMN+QAki0n5UgS8MINCM8JfL0DCjBxqmn4OjzwxDWFGgKJHxTJ1IlspREZGLxPgbBBHpm6B8vJnRV+leHyoi/y4iPxaR63XrPSaRyYnUZfTdvhskMnt7T4lIwzIx1sks/hbp3ntOIiLw3yXSbf8j07IdIUf/27TOh0TkEhG53JThInJ6jHVtafls/y4i54px4qt4ddF/xpdE5PcSmYFeP6N8W59nmmk70yWyf88VkdtM7y03fU/2l6Pm1qPvvvtu1MnZVeVoIBDAwIEDDbIvJydHi/rvHTt2aMscOXIEIqLJxqKiIsM64wlKoFVS5ubmoqKiQhvbUy9fVdSxP83Sslu3bnC73TE/T7xtV1RUGC5g6udSP0ffvn3RvXt31NXVJbWdRYsWmS+ImDJlCnw+X9Lfvd2hHE0KylGGYRiGyXDEeA9G7Ml0qytAonGqHFU5oSjw7N6Apoe7wzPr3KTje6Q7mmb2AGKISH84hKCiwB9ohnfGz1H3114prduwnZln4sTs8xGo2oVwyG9oHRpWQghsX4njD52DwIwzEdjsQmMwiGaHtiDNYjlqbsG5SRLPvB5LxH1fWltyJsow07rObKO8vl5m8ff7Npbdoft/c7f9dOSoXlS2FXVc1Z9K4hnqzS12zXX5nwTLjkvy88SbuMqcQokcC/G+i3hyVH/8ZF6Oioi4XK7fulyukCp71q5da2hB2lXlKABMnDgxrqCMxdy5cw0HxogRIxAMtv6QJJKjqqTMzc1FTU2N1m0/1rbNrUz1YrW2tjZm3dpqOZqbmxtXeMYqG287AFBbW4vVq1dj+PDh2nehjqXqBChHk4JylGEYhmEyHDE+oBB7wn1jQ5wuR5VwGIFQCG7XFfA+cl7S8c05F0FvPRAORK0zHPYhjDAanuiP2tl58DzWO6V1G/LXc+CZ8wt4H/oZQl+/jmC4VXz6wgqCAT8C2/4G/2O/QPiRn0Bxl0MJxZ8IKpvJYjkqYhxz8n/bKBtvHMzvtSy7RaLF2woR+VWc9Z0pIn+PscxdLeu8rOXfW0TkX0zLXirR8vFLibQ8FREZ3/Lac2LsAp9oLE+9EPy17nV9l/q2ol/uHIluydqg+3zqpE3m1qAqt8T5bvTfRTJjkw6S1ta9+nwgkcm4YklN/XdxS5z1/rO0Tir1Rpz1dD4ul+t2vfB57bXXsG/fPgCUoyKC2bNnt1n2888/14TlmjVrtJafy5cv18okkqPqZEYDBw5EMBjE2LFjISKYO3du1LbUsoMGDUIwGExJjo4YMSJKjqp13bBhQ8LPmKwc1VNYWKh95lAolNQydodyNCkoRxmGYRgmwxHjgwqxJ9w3NsTpclRP49yz0Dj3P9E8t0fcuP/vHChze8OzdCSCISBWB/ZACKhfdjP8j56nLed79FycmNsb3jnnwP/IGWh88r/R9Ozv4XnuQvgf7QXvnHPQNKs33HPPRtOjZ0Vtt2HW2TjxyNkI716FZgUIhFolqV8Jw7P6PoQfPROeBRchEHROz0Q9WS5HO5pTReT/k0gXcnNrxHjk6JZJ1HI1Fj9qWS6WXLQLp4pIroj8q7Q9VqmZH0hklvsfSerfjZmTJDLcwY/F3t9X6rhcrj/rpY/L5cKbb77ZpeXo9u3btRvMwsJC7XWPx4N33nkHixYtgtfrhdvt1gTjokWLALROsBRvtnr9+vbu3auNYarOdq9O8CRiHHe0uLg4qmwqcvT/tXfncVbV9/3H3yO4C4rKRCIoDhqXROoSUn+1NomJsdRQ05hYYpM2leaXX12apP1pTH4P45Im7huKcBHqhjEQcCGUaqxrZJGUGEQwwRCXCcTBoDDMdu8953x+f5y7fO+55965A8PcM3dez8fj8yjec873fM8ZZsK8+13ygeof/vCHwrmzZs0qBLvr168vXLN582abP3++PfLIIxYEQa/3aW1ttQcffLBkBOqjjz5qUrj+aqMsnk04WhPCUYqiKIoa4BLh6GBwVb07gHJDKRztXr/Eem48xTpvmlCxdtx4om27/hDz/S7zg8A8r3xvEn/LyxbcNs7SNx1duK7rlmOt89px1vPfV1rgt1u355vn+eb7gQVBYH7PNut87O8sfcOHrPO68vv23DLBtv1wgmV+eITZ5uXmuQOKgqz1mNnvp59l6ZuOMr9t3cC9tAFEOAokwKxZsz6VSqXedcOfWbNmFf7c0dFR8Zu4EcNRM7Mrr7yy8I/M5uZmmzJlSsk/PDds2FDYWX7KlCmFafRBENh5551X8rkbjsZVS0uLtbe3F67Pb8qUr/xaoFK4q31XV7ggdnQN0jj5qfhunXvuueb7vnV2dtqkSZMKn5955pk2efLkkn51dXX1ep+pU6cW+nn55Zfbl7/85UIby5cv301foYFHOFoTwlGKoiiKGuCSCEeBnTGUwlHzzd576AvWfdsplr75SOu59UNlFdw81t67+SPxl3tm7weBZe+aaF23HW/tNx9nO27+oKVv/LB13THRAr8r9rq8jO+Z/8e3rWv6R6z9hmOt+5YTyu6fvvkE65x+vGUznWbZHnPH2GzzzXbcdqx139xi3V532KEGQjgKJMTcuXNHpFKpa1OpVEc0HH3rrbcqfhM3ajhqZrZw4UJraWmxESNG2Nlnn22S7Dvf+Y5t2rSpZP3Pt99+u+S61tbWwijPFStWFMLRsWPH2k033VTyD9hLL73Utm7dWnJ9EAR2//33F9pQLni8/vrrrbOzs3Ce7/t27rnn2tixY6tOd7/nnntK7jl//vzCsc7OTrvxxhsLz9LS0mLNzc129913F0LY3u6zZcuWQlCcr+bmZnvqqad26r0nFeFoTQhHKYqiKGqAS4SjwE4ZSuGoH3gWZLps253HWtedE637jgll1XXrkea9/B+x12d937J+1rpvP9a6bz/W0tM/ZF03nmhtdx5j6WyXBZnKA6rMzDr9wAKv27r8jO1InWXpmceV3b/ztvHWeesY2zH/fOsMfPOzzt4Y2awFHZus58YjzNo2mt9gu9YTjgIJM2PGjANmz559XiqV2pAPgqqN/mvkcDSvp6fHPM8r2WSpL/Lh6NSpUy0IAkun07Z9+3br7u7u9dqOjo6qI3dr1dnZaT09PRWfwfM86+npKdmUq6/S6XS/9TeJCEdrQjhKURRFUQNcIhwdDJhWn0BDKRw167bObI9lls+29lkTrPOu8uqYcYwF2fjNejPZjGX/+AfrvOMo65reYunbjrDuOw+3ntf/08zrsp7eVlIL0pY2s2y229J+1rb96AvWPvND1n3H0YX7Z2YcYzvuOM66Zh5v6Z4tFnjtTgc6rMczs3d/Yf47L5sfMHIUwACYPXv2Z/NB0EMPPVTxm3gohKO7yt0UqVE2JxqKCEdrQjhKURRFUQNcIhwdDPjaJNDQCkdD2Y0vmn/3cdYz8+iy6kgda9lK09U93/w/rC+c2zXjCMveeYQFfZzeHniBdQYdZl7W2qcfZdtTH4nty3tzPmntlfauCAIL/MbY1yKPcBRIqAULFgxLpVJv5sOgX//617HfxISjvXM3RSIcHbwIR2tCOEpRFEVRA1wiHB0M+Nok0FAMR3vWLDBv9gRLzzqmrLbP+ROrOAfQC8x/57XCuZnZx1ow+2jr9vo2u9K3wDwvY775ZlvftmD2obF98e5qsaArfhSr72fMD/zYY4MV4SiQYDNnzvxaPgyaN29e7JRrwtHeZbNZW7Zsma1evbreXcEuIBytCeEoRVEURQ1wiXB0MGBafQINxXA0++w3LD3naEvPOaas/DnHmF9htGYQBGadadtx9+GWnjvBsnOONv8/jrLA34WQ0s9Yz/xPx/ale/Z46/7V9J1ve5AhHAUSLDp6dMmSJeEPRQfhKIYKwtGaEI5SFEVR1ACXCEeBnTIkw9HnLrH03CMt8x8tZeXPHR+O6IyTMfP9wDIPf9TS9x9u3pwP2bZ7J1jmt4t2ui+ZjFn6neWxfcncf6Rt+/GJO932YEM4CiTczJkzT0+lUl4+FFq6dGnJCFLCUQwVhKM1IRylKIqiqAEuEY4CO2UohaNe2jcvk7H2F79h3pzjLH3/UWWVfXCc9fQyEDSzYZF1PjDBvHknFK6zrt/bDq/DMn7WzM+WrAfqZ3ss4wfm+5lwoJUz1sqzrJn/R/Pua7HOeYdb5t6WYn8eaLHsgxNymziZWaX1RxsE4SgwCKRSqYvdYGjevHn2+uuvmxnhKIYOwtGaRH9BoyiKoihqYAvJdFW9O4ByQykczQbhOp3tP/tr8+YfbpkHjywr//4JZr2sIdrtt9v7PxprHXOL13n3j7b0+h9bdxBY2gKzoDiYaquZZZb9W2w46tt2M9+s/UenWve8Fss8cEShzey88eY9dJQFXe9a1i+9rhERjgKDRCqV+robDqVSKVu0aBHhKIYMwtGa1PsXQoqiKIoa6oVk4muTQEMqHM2Y+b+eaZmHPmA9D42z7I+OLK8ff9iCzO+rtuNnPAvSvm175CTrePRw8x4Ybzvmj7bsw2PNW3iS+evuMK/nbQvMM7Md1rXya/b+j46zIPDLwlGzrHleYB0L/9S8Hx1t2R9F+vXweLPfLzfP29HoA0cJR4HBZNasWZ9KpVLvuiHRrFmzCn/u6Ki4tx0wqO3YscP9O/92vb8XE6zevxBSFEVR1FAvJBNfmwQaSuFosPU35i06wLLzj6pY3T85zIJXbuqloax1ZQOzHrOex4629MKjzBYcZ/6i8WYPHW+2aLR5i8ZY+sdjzB45zOyxYWZ/3Fy1ycxjJ5u/YLxl548v79Nz51mH9TByFLvLwbnau94dwSAzd+7cEalU6tpUKtURDUffeuutev9MAXaLN9980w1Hf1Hv70MAAAAMKlfVuwMoN5TC0e6Fh1h24YmWWTShYmXnj7HgR9XfRdZPW+AH5ntpywSepd95xrqfPNuyC8eat+Ao637kSPMWjrfsosOs59nJFux437JBpmqb6SWnmr+oxTILW8r6FPx4nGX/uNaCBk9HCUfr4jsq/j8WT6tzXzBYzZgx44DZs2efl0qlNuRDo+XLl9f7ZwqwW/z85z93p9XPqvf3HwAAAIBd0+jhaJDptqz90d5ZOtq8x8b2WtmFx9iOn46xILvDAj9j1SNN5z5+YGkvY9lMm2UzbZbJbLPAy5qlq1/n+e3me2bbl37MuhcdZd6jcf06wtKLT7EgnbVsEFg26GXHqEGKcLQuZqgYjn60zn1pBEdJOlnSqHp3pC5mz5792Xxo9NBDD9X7ZwqwWzz44IPuyNG/qvf3HQAAAIBd0+jhaDp417qWn2fB0mMt+OnhvVZ2yVjLPn64dbz8T5YNet2bqcC3wCxtlrWwfM8z8zzr9qoHmZkga5bpsOCJcdb508MtWDyuvF9Lx5v9dJR5qy+ynsAzL92YI0gJR+tiughH+8s+ktZpKI/CXbBgwbBUKvVmPjj69a9/Xe+fK0C/Wr9+fcl6o1dfffUe9f6+AwAAwKDCtPoEatRwNAjSZlnfgtdmm/fkwdb5xIHm/9fhtdcTh5v17LC01717O+qbdXZvrrFPoy37x5UWEI6i/xCO9p+RkjZqqL/LmTNnfi0fHs2bN8/S6V7GzwODRE9Pj82bN88NR/+x3t9vAAAAGHQIPBKoUcPRjP++BW0/N/8/D7Jg6QRLP3mY2ZNjaq7Mkmbb/tInzfzd/Ht9sMMyay+uqU/ZZ0eb/9QE6woacxNowtG6IBztP8eId1k+enTJkiUWBI35/9HB0BEEgT3++OOMGgUAAMCuIvBIoEYNR/3M7y37zGjrWXqgZX+2v9nTo8x7enQf6kDznxpjmd9eb5bJmu939VvfMp6Xm3vvW6bLzPvpQbX16alm854+1LxVZ1qHbTXza5zzP0gQjg6I4ZH/JhztPyep+C7/pM59qa+ZM2eenkqlvHyQtHTpUkaQYtDq7u62pUuXupswZWbPnv1n9f4+AwAAwKDEtPoEatRwtGPZRPOfaTbvZ0db5pnR1vXC3hY8d2jN5T93kAXPNZs9Pdr89tWW7cdw1HyzjG21bGBmv/wb61lZe78K9d5Gy/pe//UpAYZAODpa0oWSlqgYoq2RdHnuWNRYSXfn6vjcZ2dKesC5/glJF0gaVuW+4yRdLanNuW6OwjDv+9q5cHRk7r6POdevkvQNSR90zttb0h2Srss9x8kV2tsv18fbJP1A0v65zy/KXX+ZpD0kHSrpmzHP0lvfJ+baX+Fct1TSV3Ntxom79/XO9SsUbsA0RtKJuWfMH7tY0ickfTJXe/XSv8aTSqUudsIkmzdvnr3++uv1/jkD9MmGDRtKNmBiOj0AAADQeBo1HPUzWct0rrGe315j2V99xtI/H2H280NqruD5g8xeOMhs2Sjrfm6EZdtf7r/OeWbZwCyz+T7bsXK4+U/vXVu/Xji4UMELLeY32K71DR6OfkXF4Cyu2iQdHbnGnaZ9n8JwsdL1i1U+KlSSzunlvqbiJkK1hqMn19Dm2c75/+p8vlHSiJg2r3bOeVjFsHeOiu/nb1UaikbryzHtDlcYtvbW38/EXJu/d6ukj6m4nqhbp0maX0P7Q3ODplQq9XU3VEqlUrZo0SJ77bXXLJPJ1PtnDhArk8nY+vXrbeHChRb9+5tKpb5e7+8rAAAAAP2rUcPRvMB8My8wy3SYb11mPV3WteUW63n542YvHmbBC8PM/meU2fLjLbtsf7Plh5ZUsGy0BctHmq0cb7b5Ies2z7LWY55tN+trNumZeUGPZb2sBe8vCAPbyP3iKlg+yoLloyyz4kDLLhtjwQsTLP3iPpbZsnB3vLK6aeBw9FyVBmWrFI5YvDjy+QsqDTiPUXzQdp2k81Q6gtQkfSly30mR422SvqgwML0lpt1awtHjI9c8IWmypNMVzg5wj52Qu2ZPSS86n18TafNjzrFWSaOcY+60/3z9TNL/lfT/VB6Wfti5tinm+vsUvrupKg87z4z0K+7e0Ron6Tu59+D2ZY3CkalLc880sfxVDhGzZs36VCqVejcmZKKowVRbZs+e/fF6fz8BAABg0Luq3h1AuUYPR30vsMDSFgRmlvEs6DYL/MDSlrZtttmsJ2PBlhsss6LJbNU4s5WjYstffoAFy0aZt/4Es643LWtmXrq9b33x02ZexrwNF5ut3seC5c0V71dSqw41W3WoeasOsfSq0bb9F2Os+7VPmv/+st3yzuqlgcPRUQpHZ7ZJiv5ufZhKQzp3rcpoOLpE5dPvpznH3XB1D0nPOsfmKpzi7pqo0kCvt3C0SaXT6KflPnP9uXN8voojQI+OPMupuc9Hqjhy1ST9r0h70YDybyLH91MYQOaPT3eORcPh0yPXDlfpsgIbVTr9PXrvjSqGryMkHRF5/i845w7tNUej5s6dOyKVSl2bSqU6EhByUVTNNWvWrB2zZs265oEHHti/97/pAAAAQK8aLfBoCI0ejtbCt8CCDf/H/JdGW7B6ZO+1apx1vTHNfN+3Hi9rgR9YkO0xPwisJzDrCTzz/MDMD8y8HksHXRZkAgs611jmFx+wYPUhldv+xaHm/c8oy6wcbcHvvmfBjnct6P6DBZmMWYNv+NzA4ahUfU3Qr6sYqp3ifO6Goy8qHIEZtb+K4WqbiqMu3anvrYqfyi71bUOmE51zX6jyTNfG9EcKR8vmr/9N7nncdTq/20v/zq9wv+NU+qwjFYaW9zqfT6twbXRU65QK925T/LqwLjccZXOrODNmzDhg9uzZ56VSqQdnzZr1y1Qqtbne4RdFRWpT7u/mg6lU6nOEogAAAOhnjRh4DHqEo2HmmLFtllm3r9nLB/RawdqRZr8cZ94vh1t2w1+YbXvVPC9tWd83z/PN8wLL+FnzvKxZd4cFm2+29CsfsOCXI61rxZ4WrBlRse2eX+5h3rrR5md6zAuy5ntpC7y0WcYnHG1cf61iqPb3zuduODpf4WjQKDcEdMPIC1Q9dMzrSzjqtnmtpIMkNUs62KkDJH3POe8E5/o9VDry1K3fSNq3l/5VGo3pjpJtUzgad38VR6TmP6vluS6ucO+pVa7PIxwFAAAAAFTFtPoEIhw1s8As8H0zz7P2dfuYrW0yW7NfldrHgl/ta8Ga/cxeGWnBmn0tWHOAeWsPNFv3QbNXx1qw7lDz146wYM1+FqzZx+yV3P9dM8Jszb5lbfpr9zB75UDb8ct9zbq3mhfsMMsNPg0CsyDsZkMbQuHofpJaJP2ZpLMk3aD4cM4NRxcrPhyViiGeG45+2bn2L6r0ZWfD0Vor2uZYla8T2p571l3pX/Q8d7p+dC3XKPc936niVPlaglkX4SgAAAAAAIMN4WipINNt29bvY7Zu7wEt79U9LL1uT7POVZb1Agu8Ro9Cyw2BcPRMSQtVPUzsj3C0ScWd1vsaKlZzY6SvSxVuLhWtpZJW5PpzQkw7D0baWazKU/R3Nhx1p9pXGnWbF33P+b705d1IhKMAAAAAAAw+hKOlsn7Wsn+42fzX9hzQslf3tKDjWcsEZoHnW9DgU+jjNHA4epDC0DA6WnKOpG+q/8NRqXTn+GqjHvsSALrh30m9nFtJdGOmfH1+F/sXPW+0imuxVgtfJWmCc+3DKr5nwlEAAAAAQL9iWn0CEY6W8r0us54XLNiw54CU/eZAS2862Czdap5lLPCHXiia16DhaJNKR4sukHSsSnc5n6z+D0c/51z7lSr929lp9ZU2OKomuvmRW5XWBa2lf267+Xewj0rXHB1V4Vqp8vsnHAUAAAAA9KtGCjwaBuFohBdYkPEs2LjHgJS39Qvme75l/E4LgsbfdKmaBg1HR6o4gvE3il/70t2Qqb/CUTeoq7aZ0wOqPdD7iHPuRsVvoFTNv6j0eZpUulv9fJWP8Kxl3c+TIv06QOF7doPYv6xwbTS8djfE2pVwtJY1SgEAAAAAQ0wjBR4Ng3A0IhtYEHSbvbVH5fr9MAve3Mv8N4aZvbGnBW+q+vkxlX5zD8u2jjPP3xFuBoVGDUfHqhiYrVN5+HeQwjU6+zscHeNcawrXO426OHJObwGguyu8Sfp+hT61SLpG0secz9xg1R0lOkrF8NgknVfh2SzXZvR+B0lao/j3544IbVX4tYj6YqRf7gjTXQlHpzifV9sMCgAAAAAwhDCtPoEIR0sFWS+c2t46rGL1vDHMsptkweZhZpuaqp4bV8HbTRb8vsm89lss8M0afx/62jRoOOpO785PR/9Ars5V+c7t/RWOup/n6zuSPiPpsyoNOfsSAJ4cueYJhSHk8ZI+IWmGSsPGkbl34AaY0fVFPx25ZlyVZ3hC0qckHZm7b1vkWvf5o6NH2yVdqHCTqBMl3RBp2x01Gr13Le/GXXZglaSzJF2R+++4jakAAAAAAEC9EY6W8v2sBX63Be/sacHm4RZsDkPQYPMw8zcfZN4mWbB5uGU77zbfe8e8znus893jzdtyoAWtsmBTWN4Wmdc6zIK2YRa802TZzU2Fdnq2yILf7W1Bd6eFwSjhqFnDhqOS9C3Fr7OZr9XOn3cmHM0HktFwMDoqM+6+j6lvAaAkndPL8+TrIoXT1q9wPpsb8xxNCjenipteHw1Hq9XEmL6OUmkwW6muUOk6sNF71/Juxldpv9rXDwAAAAAA1AvhaKkgyJp5gfnvjLHgXVnQJvO35OqdfS37/hjzsxstE+ywIB2Y72csG/RYT5CxjJ82LzDzAjPfN7PuP1i67QDL/lFm7+5TaCe7pcm8d/Yzz2M6vauBw9EmSZeoPDBboDB0a1IxpJzqXOeGo5XWDZWk61WcOh7deGiUczwaBu6v4rT/doXT4Wt1lMpHXuYD2itVHP15uHNso6RDK7Q3WqUjbPNrdroB5VRJV8fc8zZJH6zS1+G5a1fEXDtXlYNP996nVmnfdbrKRwNP76V/AAAAAIAh4qp6dwDlCEejMmZZM79totn7smCrzM9VsP2Hlg58Mz9r3aQ54gAAGYVJREFUXuCZ53mWDrKW8TrNvKxZ0GN+YOYHZkHGs+7As8DvNGs/0vxNw4rtvLOXpXccbD3m1fthE6WBw9G8vSQ1SzpYYTA50Pc+OFf9uQbmMIUB7O56prgNmdxn2buP7e3nXLtPP/UxapikQxQuKTDQX2cAAAAAQII1auAxqBGOxvO7rzJ7v8mCzYdatnOcBd77ZkF2p3aT9/2sZXb8vdn24WbvH2B+h8zvnGaen+3/jg9iQyAcRd/1dWo7AAAAAACJReCRQISj8XxvjfndV1uQXWWenzE/yFq4e1Lfp8IHXmBe0GWe95L5XVebn77GguwO89mlvgThKGIQjgIAAAAAGgbT6hOIcBRJQTiKGPnNpghHAQAAAABA/yMcRVIQjiLGNyWlJD0o6fg69wUAAAAAADQawlEkBeEoAAAAAABoZEyrTyDCUSQF4SgAAAAAAGhkBB4JRDiKpCAcBQAAAAAAjYzAI4EIR5EUhKMAAAAAAKCRMa0+gQhHkRSEowAAAAAAABhQhKNICsJRAAAAAAAADCjCUSQF4SgAAAAAAGhkTKtPIDeQoqikVL2/LwBgKDo4V3vXuyMAAABAgyLwSKB6h2AUFVf1/r4AUH97S/q6pK9VqH+Q9BlJ4+rVwQZzhcJ/qJmk0+rcFwAAAKBREXgkUL1DMIqKq3p/XwCov/0lrVMxsKtWqySdXJ9uDgqjJZ2k6kHyDBXf50cHolMAAADAEMS0egAAUJN9JK1RbeFovj5fl54m3xyF7+ffqpwzXYSjAAAAAAAAQCK44WibpDGShimcbj9c4dqYX1JpONouptlHNUm6V+H7ubjKeYSjAAAAAAAAQEJEw9FRFc4bmzueD/aqBYBD0T4qLk9AOAoAAADUF9PqAQBATWoNR6Vw46Z8sDdf0h67vXeDx0hJGxW+m3+qch7hKAAAALD7sckKAACoSV/C0eNUDPYWqxiOXiTpDkmX5T47VNL1zrkrJB0VaatJ0icl3a3iiNR2SXMlTZG0V4U+XKQwYLws18afSnrQudd0SR90zj9T0gOSVueOL5X0BVUPdkdKukDSY067qyR9I9J2/twPS/qqc+6dks7IPd9ncu8jzw1HT8gd+7bCd5R/B3dIOrZK/yRpoqRrnefKv7tPK3wvUZ/LtXurwk244nw8d85tufPj7nlz5J6zc/ckKAcAAECSEI4CAICa9CUc/ZhKw9Fhuc/zGxG15s7Z6JyXr9Ocdg5VGDZW2/SpTdKEmD7Mcc65r8K1rQp3jr+2SvvzFa6pGnVyL/0ySWc753+1hvPdDZrccHSNSpcqiNYnY/o3XNItvdxviUoD0CbnvVX7Gn/BaSO6NMBFvdxzhUpDYAAAAKCemFYPAABq0pdw1B0NeqeKIxTdwK9S5Tdw2t+5X76uk/TXCgO5aEA6JtKHuHvdIOnvFR/KmqQFCjeVeiDy+ZRI28dHjj8habKk0xX+48o9dkLumrNyz7PCOdaucITq0tznX+6l/6sUhqzR598o6QDn2iZJMyLnfEvh6NnPqbjmqSkMQ90RpPn77kw4Gg2Mb1AYEP+dc882hYE0AAAAAAAAMGhEw9GRFc77jEoDsi85x6KB30aFU80laYSkI1QM6r4eOe/wyH2io0qnR46792qTdIxzbD9JL0b68reR67/pHHtYxengTSqdRj9N5dPT/9w5Pl/FkbOSdLRzrNY1R03l09dHqzTk/Avn2CRVf3fDVbrEwKkx992ZcPSfnc/Pj7nuoyr9OgAAAAAAAACDQjQcPV5Ss6QPKAzfJqk80PuNpD2dNqKBZaURhO6mRSbpTyqcd7hzTrtK1yt173VGzLV/5Rx/UeVT5w90+vAbSfvmPj/Rue4FlQafrvxU/WjIeIzig8Uot/9/WeGcr8a01STpXlV/dkk6skI/djYcjd73hPhLAQAAgES5qt4dAAAAg4MbjtZSbSrfXMkN/KZWuZe7odMLil/zUyqfPu7u6t7bbu/uCM5vxRyvtIzABc5110o6SGFIfLBTB0j6nuKDwp0JR0+pcM5HYtraX6VT2I/P9d3t3yEqDUfjlj7YmZGjF6r06/9xlYbjAAAAQNJYvTsAAAAGh76Eo99WOHU9yg38Ko0GlUpDvyt66Zcb1LmBa2/haG8hZS3haK3l3n9nwtG4/ldqyw1Hay1306xdCUfdwNmt6xR+vaPLDwAAAAD1RjgKAABqEg1H/1bhJkOfydWfKwzr9q7SRi2Bn1QaQFZbl1OqHNTtrnD0RpUGf0sVrn0arfwmS23a9ZGjfQlHx0f6t0bhsgFu31aruBHUaoXhZX+MHJXCZQcqhbOrFAaoAAAAQFJcVe8OIFZfB6RQ1EAUgCHODQtbFT8ytDe1hqMfc86rFiBK4UZF+XPdIHV3haNuMHhSL32Ls7vDUbffi1XcSKpW+fu2qvKmW9XC0bxTJV2t8v8xaZN0WB/7BAAAAGBoqXcIRlFxBWCIqxQW9kWt4agb+rlTvuNcXaHNgZhWP61KvyoZyGn11QLOWu774Qrn1BKO5u2lcEOpNuea0/rYJwAAAABDS71DMIqKKwBD3ECGo4c557VLGlfhvOiu9hP7cK+dDUfd9VA3qriLfa3c+1ZbMmBnw9HorvHn9bF/lTa4cvUlHM37K+eav+9jnwAAAIDd5ap6dwCxCoEUUE/u38W6fkcASISBDEcl6Xrn3Pkq37G+SdItzjnRKeS7KxzdQ9KzzrXfV/zU9RZJ1yhcIqDSfa93Po+Ojt3ZcFSS/sz5PL9jfdRwSZ+X9F2VrhPrjoydo/JnO1Glo0Dd+x6Q6+teMff7ag3PAwAAAAw0Ao9kIhxFIrh/F+v6HQEgEQY6HB2j0h9CqxSOPjxaYfj3s8jxiZHrd1c4KkknR+79hKTJCkPIT6h09GWbSqe2H+cca1e4sVU+kJzah/5Xe4YmSQsjfbxc0ikKR75eqMoB53GR6+5TuNP8JEnXRo5FR6zm79km6RxJh0g6WNKXIu9jTIXnAQAAAAYagUcyEY4iEVT6+y+AIc5dy3IgwlEpHKUYt85HtD6zE/fqLRzt7XnPqbFvF6m4E7wUhq6rKpzbJmlEjf3v7Rn2U7gbfW/9a1W4w70rLgSN9jN63z0lvVjD/aZUeBYAAACgHq6qdwcQi3AUiaDS32cBDHHDJS1RMVDr60Y/Umngd2qN14yS9G2VBnL5+qGkI3byXm6wGLcG5h6SHswdX6H4tUWPknRDTL/aJF2pymuljlXp1Pz86NOT+9B/KQw18+fErV/apHDqfFxouVDhaNe4JQGaJH0t5ponJJ2UuyYf8H7WuS4/VX9FzLULIs8HAAAAAJUQjiIRVPp7LQDU3UiF07QPUvkapPU0TGGIe7DCEae1Gq1wnc4Dd0enIvZT2L8DVbrGaDXDctd8QH3v48jcdYeob+8EAAAAAAhHkQgiHAUAAAAAAA2MafXJRDiKRBDhKAAAAAAAaGAEHslEOIpEEOEoAAAAAABoYAQeyUQ4ikQQ4SgAAAAAAGhgTKtPJsJRJIIIRwEAAAAAADDACEeRCCIcBQAAAAAAwAAjHEUiiHAUAAAAAAA0MKbVJxPhKBJBhKMAAAAAAKCBEXgkE+EoEkGEowAAAAAAoIEReCQT4SgSQYSjAAAAAACggTGtPpkIR5EIIhwFAAAAAADAACMcRSKIcBQAAAAAAAADjHAUiSDCUQAJc5SkkyWNqndH6oh3AAAAAPQfptUnE+EoEkGEowASZB9J6xT+QDqtzn2pF94BAAAA0L8IPJIpkeHoli1b7LXXXrPXXnvNfN+veu7vfve7wrluvfHGG9bR0VHxutbWVlu7dq21t7f3S583b95sX/nKV+y73/2uZbPZwucrV660u+66y956661+uU+jEuEogAQZKWmjwh9IH61zX+qFdwAAAAD0LwKPZEpcOBoEgZ199tmFfj399NNVzz///POjwVpJXXrppdbW1lZyTXd3t7W0tJgkW7FiRb/0+7XXXjNJ1tzcbO+9956ZhQFsvh9TpkzpNejtT11dXfbqq6/2W/i7u4lwFECCHKPiD6ShGgzyDgAAAID+xbT6ZEpcOPrGG2+UBGVTp06tGipeeumlhXPPPvtsO/vss+20004raaO5udnefvvtwjXd3d02ceJEk2S/+MUv+qXfGzZsKAtH3Wc544wzBjQc/clPftKv4e/uJsJRAAlykoo/kP6kzn2pF94BAAAAgKEgceHorbfeWhKUjRgxouqU9Hw4ev7555eEj9u3b7ebbrqp0M60adMsCAIzG7hw1MxsyZIl9q//+q+2du3afrlPrR566KF+fb7dTYSjABJgjKQTJV2n4g+kiyV9QtInc7VXzHWnSbpZUptz3XxJn6pwn4sk3SHpMkl7SDpU0vXOtSsUbobk+lNJdzr3aJc0V9KnJR0k6eBcxW2eNFHStZJWx1zb1A/v4FOSHnD6tiZ3PaEqAAAAgKRLVDja0dFhJ5xwgkmyyy67rPDnu+66q+I1+XB0ypQp5nle2fHLLrusLLQcyHC0XvLv5Ve/+lW9u1ITEY4CqLMmhYFm1bVaVLo50RhJq3o5/1qVB5BzcsdaJX1MxbU94+7TJOn7NfQrX+skDctdO1zSLb2cv0TS/jv5DoYrDEWrnXtj7jwAAABgqGNafTIlKhx96qmnCqNFN23aZNOnTzdJ1tLSYl1dXbHXuOFo3LT1e++9d5fD0Ww2a4sXL7avfOUrdumll9oFF1xgV1xxhb366quFcyqFo/Pnz7dvfetbtmbNmrJ233jjDbvuuutsypQpNnnyZJs2bZotXbq07DmeffZZ++d//md799137fXXX7fLL7/cJk+ebJMnT7Zrr73WtmzZUji3tbXVli1bZmeddVYhWH7mmWfsySeftHXr1pWcF733448/HhswDwSV/i4NAHXxHUlPqHQE6BpJS3PVqnAUplS6m3u+rpM0VeWB4RmR+0xX9UDRJI3LnfvFyOf/KOl4SX+l+FD1aoUhZ5OkGZFj31I4AvVzkb7PUTHA7cs7+Hqk/W9IOlPSN53PFotwFAAAAJAIPJIqMeFoEAR23nnnmVScIv/6668X+vf888/HXtdbOJqfXr6z4ej27dtt0qRJFX9/ffjhh82scjg6bdo0k2S33nprSbuPPvpoxTbPP//8wo73QRAU2hgxYkTs+WPHjrX33nuvbDOraP37v/+7mZmtX7++4jm9rfG6u0T6AQB19QUVfyBVmxr+5dw5N6h8OvtFThsPK5w+nxcNRzdK+nDu2AhJR6gYcD6WO6dd0gmRe4xUMeRsi/RhUqT9wyPXDpf0oHPOqZHjvb2D3vq2r6SPK5zqDwAAAEB6RqWjR69S8d/cfF7fz00JCEfdzYv+67/+y8zCYPDMM880SXbhhRfGhnaV1hw1C6fp54NNd/RpreGoG0xKsttvv91aW1vtrbfesttvv90k2dNPP21mlcPRfP/cpQHccHLatGn29ttvW2dnpz399NOFz++5556yNiTZpEmTbNmyZfbOO+/Y7NmzC5/n29+wYYM98sgj1tLSUvg8OnI0/0yTJk2ytWvX2tatW+3555+3T3ziEyX3HUiRv48AUFduMNjbTu1xa5BK0oEqjuycr8rhaJuk0RXa2F/F8HNxpI28C5x28uFok6R7nXtER67mHemcc3HkWG/vwO3bRoVhKAAAAAAMNokJR/MbMY0dO9a2b99e+Pzxxx83qfLGTPng8EMf+pBt27bNtm3bZlu3brVly5YVAlBFwsZaw1F35OqcOXPKjqfT6cKfaw1HgyCwiy66qGLg+/zzzxeeJ5PJlLRx4YUXFkaU5uXXVHXXXM1kMoXni6456q7r+sILL1R89oHm/l0c0O8AAIjRl3C0kj0UTkfPh4cjnGNuODq1Shv7OG0sVnEtUVd+arsbjrrBZZvCafijVNy06WBJh6g0HL1TpWuj9vYOmiQtdM5ZKukjVZ4FAAAAAJIoEeGoG9jddtttZcfcUZBR7qjKShUNFWsNRxcsWFAIbNvb26s+Q63hqPusU6dOtddff91eeeUVe+WVV2zt2rW2atUqa2lpKWkn30bcqM6f/OQnZSNnqz2fu3zBiBEj7NFHH+312QZC5GsGAHW1s+HoaIUB4Sckna/iup3RKe9uONrbju5znHM/GTk21rmHO3rTDUdrrWj4Wss7+FxMO22S/kXS+F6eCwAAAACSIBHhaH4jJkl2zTXX2Msvv2wrV660lStX2ksvvRQ7NT6vWjg6depUe+6558ruV2s4Ghc8VlJrOOreu1rFhaNx4XC+j+6aq709n/u+8zVt2rS67mwf6Q8A1FVfwtExkr6t0g2M4gLDSuFob+1/LNLWDZKmqHTTI8t9ljc+cmyNpBclrXJqtYqbLK1WuJlUX0aO5k2p8tx3KlwXFQAAAACSqu7hqDuSsZaKbszkbsjU2dlpnZ2d1tPTU3XX9aSEo/fff7+tWrWqEARHK/8M/R2O5vsbFyzH3WMgRPoBAHVVazAY3UneFO70/kNJNzuf7Uo4Kkn/O+Y+bl0YOT86HT9urdLe9CUg3lfSpyXdHdM3dqsHAAAAkGR1D0fdjZguueQSu/POO+2mm24qqVtuuaUwtT66Tme1DZkqqTUcze90767/WcnOTKuvdc3P3RGO5nV2dtp///d/F95vtP8DRSIcBZActQSD7m7wpjAoPcg5vofCEZq7Go6OVDHoXCDpEklXSrpM4ajNuM2c3Gn1rdq50Zs7u7TASBXXQc0/e6UNpwAAAACg3uoejuZ3fW9ubratW7dWPO/ee+81qXxjJnfkaH+Hoy+99FLh/eR3pXe5o1P7siHTV7/6VZNkZ5xxRtkGS3H6Go66AeyKFSt6bd/MbNWqVYSjAJDjBoOV1gS90DnnL2OO76liqLkr4Wi+L+2SxtXW/bLd6s+r8bq4+1Z7B9Vc71w/cSeuBwAAAICBUNdw1A3xLr300qrnbt68OXbq9+4MR7PZrJ1++umF0HD16tVmFoaiTz75pEmy++67z8xqD0fNSkPXSy65pHB+Z2enLV682M455xy7/fbbC8/T13DU7ff3vvc98zzPnnnmGdu0aZMFQWC33HKL3XDDDSX9nDFjhknhuq47duyo6T32J/fv4sB+CwBAOTcYdNfydKeHf9c554yYNtzNinYlHL3AObddYeh4scJd7s+R9KcKd52PTl3/s8j9j49pe7ikz+eeZe/IsVrewWEKN6By1yqVSsPZ6LMDAAAAQJLUNRx1NwZauXJl1XODILBp06YVArz8xkwXXXTRbgtHzczWrl1bbZk3u+yyyywIgj6Fo2ZmP/jBD6q2O2XKlMKo0r6Go2Zm3/72t2Pb/O1vf1vy2Re/+EVrbm4u/Pf9999f0zvsb5G+AkBduYHkKklnSboi998n5M5xw8MVko6TdIikY1Uafu5qOHqcqvyPhVPtCsPSvCZJCyPnXC7pFIWB5oUq3UTq4j6+g1GSNub++4nccxwk6YOSvudc+4JYcxQAAABActU1HL3yyitNkp1zzjk1TS/PT/2WZK+++qqZmV199dUm7fyao/nRoNX87ne/s3/4h38o+T30lFNOsUcffdSCIDCz4sjRsWPHxoaj99xzT1m7Tz75ZGGEZ74mT55sjz/+eOy6qosWLSpro9KmUVu2bLFJkyYV2m1ubrYlS5aYmdmaNWvKNsFqbm62xx57rKb3tzu4fRmwv/0AUMF4VQ4h8xscHabqO9S3O3/elXD0s5E2V1S5p6l0Cvx+Cnej7y1Ybc09c1/ewbga2m2XdEwvzwcAAAAA9VTXcHSwSafTtm3bNuvo6OjXdjs7O23btm3W09PTr+2aWdX+5u+7bdu2fr9vX6n092kAqLvTVR5+Tlc4MjLvGEnPqjwQ/IbC0ZL5TZs2SjrAuc4NR0+t0odPO+d9Q6XT1/eSdKDCMHSBc94/RdpoUjh1/kWVh5cLJU1W5d3se3sHIyX9S8w5Juk2Sc1Vng0AAAAAkoBwFIkgwlEACTRM4VT5kQp3gK9kpMIg8ECVr7+5K/KbGm1UGIZWcpIqT4937SfpYIX9jK4xWkmt72CUpA/k2mcaPQAAAIDBgnAUiSDCUQAoM0PF0aiVdnxvkvT/VPs0fQAAAABAEeEoEkGEowBQ5q9V+sMxv6HSeIUbP52r0mn9i8WoTQAAAADoC8JRJIIIRwGgTJOk76v3jY9M4bqjB9anmwAAAAAwaBGOIhFEOAoAFU2UdIPKNz5qV7hB0mn16xoAAAAADGqEo0gEEY4CQE32Urix0j717ggAAAAANADCUSSCCEcBAAAAAAAwwAhHkQgiHAUAAAAAAMAAIxxFIohwFAAAAAAAAAOMcBSJIMJRAAAAAAAADDDCUSSCCEcBAAAAAAAwwAhHkQgiHAUAAAAAAMAAIxxFIohwFAAAAAAAAAOMcBSJIMJRAAAAAAAADDDCUSSCCEcBAAAAAAAwwAhHkQgiHAUAAAAAAMAAi4ZSFJWEAgAAAAAAAHa7eodgFBVXAAAAAAAAwG5X7xCMouIKAAAAAAAAAAAAAAAAAAAAAAAAAAAAAAAAAAAAAAAAAAAAAAAAAAAAAAAAAAAAAAAAAAAAAAAAAAAAAAAAAAAAAAAAAAAAAAAAAAAAAAAAAAAAAAAAAAAAAAAAAAAAAAAAAAAAAAAAAAAAAAAAAAAAAAAAAAAAAAAAAAAAAAAAAAAAAAAAAAAAAAAAAAAAAAAAAAAAAAAAAAAAAAAAAAAAAAAAAAAAQH/7/615ubvGKE8JAAAAAElFTkSuQmCC;" vertex="1" parent="1">
          <mxGeometry x="688.17" y="480" width="83.33" height="50" as="geometry" />
        </mxCell>
      </root>
    </mxGraphModel>
  </diagram>
</mxfile>
